<svg xmlns="http://www.w3.org/2000/svg" width="270" height="47" viewBox="0 0 270 47">
    <defs>
        <linearGradient id="prefix__a" x1="0%" x2="98.25%" y1="100%" y2="8.03%">
            <stop offset="0%" stop-color="#F77062"/>
            <stop offset="100%" stop-color="#FDA085"/>
        </linearGradient>
    </defs>
    <g fill="none" fill-rule="evenodd">
        <path fill="#FFF" fill-rule="nonzero" d="M86.297 39.016V31.8H76.038l10.26-18.301v-6.65H65.996v7.215h11.085L65.997 33.626v5.39h20.3zm14.78.782c2.478 0 4.869-.739 6.868-2.173 2.043-1.391 3.739-3.478 4.913-6.173h-7.39c-1 1.26-2.174 2.26-4.39 2.26-2.826 0-5.217-1.695-5.652-4.564h18.084c.087-.565.173-.956.173-1.912 0-7.347-5.39-13.172-12.736-13.172-7.347 0-12.65 6.216-12.65 12.954 0 7.173 5.868 12.78 12.78 12.78zm5.39-15.518H95.513c.304-1.435 1.739-4.13 5.477-4.13 3.739 0 5.173 2.695 5.477 4.13zM124.9 39.016V25.888c0-1.478 0-5.043 4.13-5.043 3.781 0 3.781 3.304 3.781 5v13.17h7.216V23.933c0-4.738-1.478-6.651-2.782-7.781s-3.869-2.087-6.173-2.087c-4.303 0-5.825 2.217-6.564 3.39h-.086V14.89h-6.738v24.126h7.216zm33.95 0l8.694-24.126h-7.477l-4.608 15.04h-.087l-4.608-15.04h-7.476l8.65 24.126h6.912zm19.257-26.69V6.847h-7.216v5.477h7.216zm0 26.69V14.89h-7.216v24.126h7.216zm13.476.826c5.346 0 9.824-3.13 9.824-8.216 0-5.216-4.347-6.434-8.433-7.564-1.913-.565-3.695-1.304-3.695-2.608 0-.652.521-1.608 2.043-1.608 2.13 0 2.217 1.304 2.26 1.825h7.086c-.609-6.346-6.086-7.607-9.26-7.607-4.998 0-9.345 3.173-9.345 7.955 0 3.26 2.608 5.304 5.738 6.303 4.608 1.783 6.39 2 6.39 3.87 0 1.173-1.304 1.868-2.521 1.868l-.119-.001c-.542-.015-2.342-.191-2.62-2.216h-7.173c.653 6.347 6.173 7.999 9.825 7.999zm20.648-27.517V6.848h-7.216v5.477h7.216zm0 26.69V14.89h-7.216v24.126h7.216zm17.084.74c8.78 0 12.997-6.912 12.997-12.824s-4.216-12.823-12.997-12.823c-8.781 0-12.998 6.911-12.998 12.823 0 5.912 4.217 12.824 12.998 12.824zm0-6.738c-3.13 0-5.782-2.565-5.782-6.086 0-3.52 2.652-6.086 5.782-6.086s5.781 2.565 5.781 6.086c0 3.521-2.652 6.086-5.781 6.086zm24.3 5.999v-13.41c.014-1.603.242-4.76 4.129-4.76 3.782 0 3.782 3.303 3.782 4.999v13.17h7.216V23.933c0-4.738-1.478-6.651-2.782-7.781s-3.869-2.087-6.173-2.087c-4.303 0-5.825 2.217-6.564 3.39h-.087V14.89h-6.738v24.126h7.216z" transform="translate(.5)"/>
        <path fill="url(#prefix__a)" d="M23.345 0C36.238 0 46.69 10.452 46.69 23.345c0 12.893-10.452 23.345-23.345 23.345C10.452 46.69 0 36.238 0 23.345c0-5.815 2.126-11.134 5.644-15.22-.26.937-.397 1.925-.397 2.944 0 6.114 4.956 11.07 11.07 11.07 6.113 0 11.068-4.956 11.068-11.07 0-5.126-3.484-9.439-8.214-10.697C20.525.128 21.92 0 23.345 0z" transform="translate(.5)"/>
    </g>
</svg>
