<svg xmlns="http://www.w3.org/2000/svg" viewBox="0 0 48 47" width="48" height="47">
	<defs>
		<linearGradient id="grd1" gradientUnits="userSpaceOnUse"  x1="0.5" y1="4669" x2="4587.792" y2="374.921">
			<stop offset="0" stop-color="#f77062"  />
			<stop offset="100" stop-color="#fda085"  />
		</linearGradient>
	</defs>
	<style>
		tspan { white-space:pre }
		.shp0 { fill: #ffffff } 
		.shp1 { fill: url(#grd1) } 
	</style>
	<g id="Layer">
		<path id="Layer" fill-rule="evenodd" class="shp0" d="M66.5 39.02L66.5 33.63L77.58 14.06L66.5 14.06L66.5 6.85L86.8 6.85L86.8 13.5L76.54 31.8L86.8 31.8L86.8 39.02L66.5 39.02ZM101.58 39.8C94.66 39.8 88.8 34.19 88.8 27.02C88.8 20.28 94.1 14.06 101.45 14.06C108.79 14.06 114.18 19.89 114.18 27.24C114.18 28.19 114.1 28.58 114.01 29.15L95.93 29.15C96.36 32.02 98.75 33.71 101.58 33.71C103.79 33.71 104.97 32.71 105.97 31.45L113.36 31.45C112.18 34.15 110.49 36.23 108.44 37.63C106.45 39.06 104.05 39.8 101.58 39.8ZM106.97 24.28C106.66 22.85 105.23 20.15 101.49 20.15C97.75 20.15 96.32 22.85 96.01 24.28L106.97 24.28ZM125.4 39.02L118.18 39.02L118.18 14.89L124.92 14.89L124.92 17.46L125.01 17.46C125.75 16.28 127.27 14.07 131.57 14.07C133.88 14.07 136.44 15.02 137.75 16.15C139.05 17.28 140.53 19.2 140.53 23.93L140.53 39.02L133.31 39.02L133.31 25.85C133.31 24.15 133.31 20.85 129.53 20.85C125.4 20.85 125.4 24.41 125.4 25.89L125.4 39.02ZM152.44 39.02L143.79 14.89L151.26 14.89L155.87 29.93L155.96 29.93L160.57 14.89L168.04 14.89L159.35 39.02L152.44 39.02ZM178.61 12.32L171.39 12.32L171.39 6.85L178.61 6.85L178.61 12.32ZM178.61 39.02L171.39 39.02L171.39 14.89L178.61 14.89L178.61 39.02ZM192.08 39.84C188.43 39.84 182.91 38.19 182.26 31.84L189.43 31.84C189.71 33.87 191.51 34.04 192.05 34.06L192.17 34.06C193.39 34.06 194.69 33.37 194.69 32.19C194.69 30.32 192.91 30.11 188.3 28.32C185.17 27.32 182.56 25.28 182.56 22.02C182.56 17.24 186.91 14.06 191.91 14.06C195.08 14.06 200.56 15.32 201.17 21.67L194.08 21.67C194.04 21.15 193.95 19.85 191.82 19.85C190.3 19.85 189.78 20.8 189.78 21.45C189.78 22.76 191.56 23.5 193.47 24.06C197.56 25.19 201.91 26.41 201.91 31.63C201.91 36.71 197.43 39.84 192.08 39.84ZM205.52 12.32L205.52 6.85L212.73 6.85L212.73 12.32L205.52 12.32ZM212.73 39.02L205.52 39.02L205.52 14.89L212.73 14.89L212.73 39.02ZM229.81 39.76C221.03 39.76 216.82 32.84 216.82 26.93C216.82 21.02 221.03 14.11 229.81 14.11C238.6 14.11 242.81 21.02 242.81 26.93C242.81 32.84 238.59 39.76 229.81 39.76ZM235.6 26.93C235.6 23.41 232.95 20.85 229.82 20.85C226.69 20.85 224.03 23.41 224.03 26.93C224.03 30.45 226.69 33.02 229.82 33.02C232.94 33.02 235.6 30.45 235.6 26.93ZM246.9 39.02L246.9 14.89L253.64 14.89L253.64 17.46L253.72 17.46C254.46 16.28 255.98 14.07 260.29 14.07C262.59 14.07 265.16 15.02 266.46 16.15C267.76 17.28 269.24 19.2 269.24 23.93L269.24 39.02L262.03 39.02L262.03 25.85C262.03 24.15 262.03 20.85 258.24 20.85C254.36 20.85 254.13 24 254.12 25.61L254.12 39.02L246.9 39.02Z" />
		<path id="Layer" fill-rule="evenodd" class="shp1" d="M23.84 0C36.74 0 47.19 10.45 47.19 23.34C47.19 36.24 36.74 46.69 23.84 46.69C10.95 46.69 0.5 36.24 0.5 23.34C0.5 17.53 2.63 12.21 6.14 8.12C5.88 9.06 5.75 10.05 5.75 11.07C5.75 17.18 10.7 22.14 16.82 22.14C22.93 22.14 27.88 17.18 27.88 11.07C27.88 5.94 24.4 1.63 19.67 0.37C21.02 0.13 22.42 0 23.84 0Z" />
	</g>
</svg>