<?xml version="1.0" encoding="UTF-8"?>
<svg width="155px" height="155px" viewBox="0 0 155 155" version="1.1" xmlns="http://www.w3.org/2000/svg" xmlns:xlink="http://www.w3.org/1999/xlink">
    <title>American Express</title>
    <defs>
        <polygon id="path-1" points="0 77 77.1506849 77 77.1506849 0 0 0"></polygon>
    </defs>
    <g id="American-Express" stroke="none" stroke-width="1" fill="none" fill-rule="evenodd">
        <g id="Group-26" transform="translate(38.500000, 39.000000)">
            <path d="M0,76.9246575 L0,37.8230479 C1.05411644,37.8170205 2.10830822,37.8000685 3.16219863,37.8119726 C3.45369863,37.8152877 3.61500685,37.752226 3.7100137,37.4513836 C3.84917123,37.0105548 4.05523288,36.5913493 4.21526027,36.1565479 C4.28593151,35.9645753 4.38327397,35.8796644 4.59732192,35.8859178 C5.0990274,35.9005342 5.60231507,35.8751438 6.1030411,35.9015137 C6.22735616,35.9080685 6.40177397,36.0229658 6.45473973,36.1346986 C6.65296575,36.5528493 6.82979452,36.9837329 6.97618493,37.4227534 C7.07473288,37.7180959 7.22406164,37.8131027 7.54125342,37.812726 C16.9190548,37.8030822 26.2969315,37.8048904 35.6747329,37.8048904 L36.1299521,37.8048904 L36.1299521,36.0304247 C36.6193767,36.5104315 37.0378288,37.0043014 37.4322466,37.5167055 C37.5919726,37.724274 37.7578767,37.8125 38.0266233,37.8112192 C40.3742192,37.8002192 42.7218151,37.8051918 45.069411,37.8039863 C45.1901849,37.8039863 45.3108836,37.7911027 45.4851507,37.7811575 L45.4851507,36.4964178 C46.3746438,37.2129247 47.2933699,37.7191507 48.3669247,37.7526781 C50.1852397,37.8095616 52.0059658,37.7948699 53.825637,37.7948699 C53.9214726,37.7948699 54.0614589,37.6720616 54.1053836,37.5729863 C54.3082055,37.1151301 54.4950548,36.649363 54.6650274,36.1782466 C54.7395411,35.9716575 54.8361301,35.8770274 55.0684863,35.8852397 C55.5574589,35.9026438 56.0480137,35.9038493 56.5368356,35.8847123 C56.7688904,35.8756712 56.8711301,35.9681164 56.9464726,36.1716918 C57.1074041,36.6062671 57.3087192,37.0265274 57.4551096,37.4655479 C57.5473288,37.7418288 57.6946986,37.8128767 57.9745205,37.8114452 C60.2593562,37.7998425 62.5441918,37.8051918 64.8290274,37.804137 C64.9506301,37.8040616 65.0723082,37.7930616 65.2428082,37.784774 L65.2428082,35.6945479 C65.6730137,36.3668288 66.0476918,36.9303904 66.3969041,37.5093219 C66.5286781,37.7277397 66.6729589,37.8138562 66.9340205,37.8115205 C68.427911,37.7978836 69.9218767,37.8048904 71.4158425,37.8048904 L71.8016712,37.8048904 L71.8016712,25.7365342 L66.5687603,25.7365342 L66.5687603,27.816363 C66.1134658,27.1366986 65.7194247,26.5268014 65.2975068,25.9370959 C65.2141027,25.8205411 65.023637,25.7174726 64.8814658,25.7160411 C63.3249658,25.7005205 61.7682397,25.7060959 60.2115137,25.7075274 C60.1399384,25.7076027 60.068363,25.7231233 59.9568562,25.7360068 L59.9568562,29.2528425 C59.4258425,28.1984247 58.96,27.1351918 58.5095274,26.0654041 C58.4155753,25.8422397 58.3072329,25.7430137 58.0454178,25.7427123 C55.1582945,25.7394726 52.2710959,25.7128767 49.3839726,25.7109178 C48.0577192,25.710089 46.8370205,26.0837877 45.7469658,26.8546164 C45.6729795,26.9069041 45.5917603,26.9489452 45.4528288,27.0325 L45.4528288,25.7199589 L17.6326986,25.7199589 C17.3284658,26.5846644 17.0212192,27.4578082 16.6816507,28.4229452 C16.371089,27.5572603 16.0868219,26.7953973 15.8278699,26.0250959 C15.7474795,25.7859589 15.6420753,25.6973562 15.3786027,25.6992397 C13.5333151,25.7125 11.6878014,25.7058699 9.84236301,25.7073767 C9.735,25.7074521 9.62778767,25.723274 9.47981507,25.7350274 L9.47981507,29.2621849 C8.94947945,28.190137 8.47256164,27.115226 8.01628767,26.031726 C7.9145,25.7899521 7.79447945,25.696226 7.52234247,25.699089 C6.09136301,25.7143836 4.66000685,25.715363 3.2290274,25.698411 C2.95244521,25.6950959 2.83980822,25.8001986 2.74050685,26.0346644 C1.90465753,28.0073562 1.05871233,29.9758288 0.212465753,31.9441507 C0.155582192,32.0764521 0.0714246575,32.1971507 0,32.3231986 L0,0.00218493151 L76.9088356,0.00218493151 C76.9191575,0.126273973 76.9385959,0.250363014 76.9385959,0.374452055 C76.9398775,13.9595274 76.9398775,27.5446027 76.9398775,41.1296781 L76.9398775,41.5466986 L76.353411,41.5466986 L33.8729178,41.5466986 C32.8560959,41.5466986 31.8390479,41.5356986 30.8227534,41.557774 C30.6549658,41.5613904 30.4439315,41.6698082 30.3324247,41.7986438 C29.9101301,42.2864863 29.5205342,42.8026575 29.0997466,43.3321644 C28.7004315,42.8130548 28.3147534,42.3347808 27.9573288,41.8363151 C27.8013699,41.6188767 27.6324521,41.5403699 27.3654384,41.5408973 C23.360911,41.5493356 19.3564589,41.5466233 15.3519315,41.5475274 C15.2180479,41.5475274 15.0841644,41.5590548 14.9545,41.5650068 L14.9545,53.6178425 C15.0636712,53.624774 15.1493356,53.6349452 15.2350753,53.6350205 C19.277274,53.635774 23.3193973,53.6383356 27.3615959,53.6256781 C27.5158973,53.625226 27.7148767,53.515 27.8159863,53.3923425 C28.234137,52.8849863 28.6226027,52.3530685 29.0394726,51.8072877 C29.4375822,52.337774 29.8154247,52.8224521 30.1706644,53.3230274 C30.3290342,53.5462671 30.4959932,53.6455685 30.7857603,53.6437603 C33.0829521,53.6292945 35.3802192,53.6356986 37.6774863,53.6356986 L38.0896849,53.6356986 L38.0896849,50.8510411 C39.4140548,50.798 40.7209452,50.9804795 42.0106575,50.3949178 L42.0106575,53.6054863 L47.1004932,53.6054863 L47.1004932,51.7663767 C47.5765822,52.3510342 48.0054315,52.8592192 48.4108493,53.3854863 C48.5567123,53.5748973 48.7089041,53.6411233 48.9460822,53.6408973 C57.3693699,53.6346438 65.7926575,53.6372055 74.2159452,53.6301233 C74.5635,53.6298219 74.924089,53.5941096 75.2557466,53.4966918 C75.8136575,53.3328973 76.3531096,53.1062671 76.9126027,52.901637 L76.9126027,76.9728017 L76.4037397,76.9728017 C51.0962808,76.9728017 25.7887466,76.9728017 0.481287671,76.9707671 C0.320808219,76.9707671 0.16040411,76.9407055 0,76.9246575" id="Fill-1" fill="#016FCF"></path>
            <mask id="mask-2" fill="white">
                <use xlink:href="#path-1"></use>
            </mask>
            <g id="Clip-4"></g>
            <path d="M41.6881918,36.2216438 L43.9551712,36.2216438 L43.9551712,27.2135479 L41.6881918,27.2135479 L41.6881918,36.2216438 Z M52.0497397,27.1659315 C50.8523973,27.2060137 49.6790137,27.1606575 48.5292877,27.304637 C46.9736918,27.4994726 45.8825068,28.391 45.3660342,29.9000342 C45.0170479,30.9197945 45.0022055,31.9702192 45.2045753,33.0226027 C45.6010274,35.0835205 47.1214384,36.3067808 49.2036781,36.2407055 C49.3083288,36.2373904 49.4649658,36.1846507 49.5049726,36.1071233 C49.8081507,35.5205822 50.0881233,34.9219863 50.4006438,34.2746438 C50.1123836,34.2746438 49.8781438,34.2819521 49.6444315,34.2734384 C48.3671507,34.2270274 47.5804247,33.55 47.4051781,32.3240274 C47.3629863,32.0283836 47.3651712,31.720911 47.3891301,31.4223288 C47.4920479,30.1412808 48.3276712,29.3629932 49.6094726,29.3432534 C50.1366438,29.3351164 50.6639658,29.3416712 51.1912123,29.3415959 C51.4740479,29.3415959 51.7568082,29.3415959 52.0497397,29.3415959 L52.0497397,27.1659315 Z M61.1639178,36.2459041 C61.1507329,36.1631027 61.152089,36.1246781 61.1383767,36.0926575 C59.8979384,33.2055342 58.6586301,30.3178082 57.4053836,27.4361096 C57.3584452,27.3281438 57.1764178,27.2167123 57.0545137,27.2136233 C56.2772808,27.1935068 55.4989932,27.2155068 54.7217603,27.1966712 C54.4539932,27.1901918 54.3325411,27.2780411 54.2272877,27.5249384 C53.039589,30.3121575 51.8378014,33.093274 50.640911,35.8765753 C50.5941233,35.9852192 50.5578836,36.0983836 50.5071781,36.2353562 L53.0157808,36.2353562 C53.2547671,35.6388699 53.4918699,35.0471301 53.7358288,34.4382123 C55.0704452,34.4382123 56.3992603,34.4334658 57.7279247,34.4486849 C57.8197671,34.4496644 57.9498082,34.5818904 57.9940342,34.6829247 C58.1848014,35.1183288 58.3385753,35.5700822 58.5331849,36.0036027 C58.5803493,36.1085548 58.7305068,36.2325685 58.836137,36.2353562 C59.6002603,36.2550959 60.3649863,36.2459041 61.1639178,36.2459041 L61.1639178,36.2459041 Z M10.6998356,36.2458288 C10.6829589,36.1563973 10.6825822,36.1181233 10.6687192,36.085726 C9.42858219,33.1986027 8.18987671,30.3108767 6.93670548,27.4294041 C6.89036986,27.3226438 6.70434932,27.216411 6.58086301,27.2132466 C5.80370548,27.1936575 5.02534247,27.2176918 4.24833562,27.1956164 C3.97197945,27.1877808 3.86092466,27.2930342 3.7589863,27.5318699 C2.56993151,30.3182603 1.36927397,33.0997534 0.172835616,35.8829795 C0.126952055,35.989589 0.0921438356,36.1010205 0.0437739726,36.2331712 L2.55260274,36.2331712 C2.75843836,35.7148904 2.95176712,35.1990959 3.17244521,34.6952808 C3.21976027,34.5872397 3.36532192,34.4503425 3.46710959,34.4489863 C4.78334247,34.4324863 6.09972603,34.4380616 7.43486986,34.4380616 C7.6455274,34.9689247 7.84435616,35.4945137 8.06684247,36.0098562 C8.10971233,36.1090068 8.24359589,36.2333219 8.338,36.2355068 C9.11447945,36.2537397 9.89163699,36.2458288 10.6998356,36.2458288 L10.6998356,36.2458288 Z M23.8818288,36.2251849 L31.2216918,36.2251849 L31.2216918,34.2739658 L26.1657603,34.2739658 L26.1657603,32.6718836 L31.091274,32.6718836 L31.091274,30.7695616 L26.1667397,30.7695616 L26.1667397,29.2187877 L31.2286233,29.2187877 L31.2286233,27.225226 L23.8818288,27.225226 L23.8818288,36.2251849 Z M41.2312397,36.2453767 C40.2211233,35.1123014 39.266911,34.0417603 38.3087808,32.967 C38.3585822,32.9359589 38.3780205,32.9174247 38.4008493,32.9108699 C38.4731027,32.8900753 38.5467123,32.873726 38.6197192,32.8555685 C39.4904521,32.6382808 40.1273219,32.1249726 40.4932603,31.3087877 C41.1902534,29.7544726 40.5166918,27.3584315 37.7941164,27.2244726 C36.0793219,27.140089 34.3568425,27.2107603 32.6378288,27.2135479 C32.6171849,27.2135479 32.5966164,27.236226 32.5728082,27.2501644 L32.5728082,36.2162192 L34.820726,36.2162192 L34.820726,33.0721781 C35.3884315,32.9675274 35.8269247,33.0181575 36.2101918,33.5342534 C36.8522603,34.3990342 37.5839863,35.1975137 38.2851986,36.0176918 C38.3672466,36.1136027 38.4937466,36.2331712 38.6020137,36.2354315 C39.4496164,36.2534384 40.2978973,36.2453767 41.2312397,36.2453767 L41.2312397,36.2453767 Z M63.7377671,36.231137 L63.7377671,30.4515411 C63.8638151,30.6333425 63.942774,30.7404795 64.0148014,30.8519863 C65.1166096,32.5581918 66.2161575,34.2657534 67.3217329,35.9695479 C67.3910479,36.0763082 67.504137,36.2303082 67.5998219,36.2325685 C68.4850205,36.2528356 69.3708973,36.2444726 70.2531575,36.2444726 L70.2531575,27.2327603 L67.9989863,27.2327603 L67.9989863,32.8411027 C67.877911,32.6623151 67.7999315,32.551637 67.7264726,32.4380205 C66.6584932,30.7846301 65.5931507,29.1295068 64.5192945,27.4798836 C64.445911,27.3671712 64.3121781,27.2185959 64.2033836,27.2160342 C63.3041712,27.1947123 62.4040548,27.2039795 61.4905274,27.2039795 L61.4905274,36.231137 L63.7377671,36.231137 Z M13.2671301,29.7922192 C13.2883767,29.7901096 13.3096233,29.7880753 13.3308699,29.7860411 C13.3626644,29.8660548 13.3966438,29.9453151 13.4259521,30.0262329 C14.1418562,32.0043493 14.8606986,33.981411 15.5677123,35.9626918 C15.6421507,36.1711644 15.7287192,36.2625548 15.9620548,36.2520068 C16.4129041,36.2316644 16.8666164,36.2248836 17.3164863,36.2538151 C17.6009795,36.2720479 17.6989247,36.1515 17.7853425,35.9069384 C18.427863,34.0888493 19.0841712,32.2755822 19.7372397,30.4611849 C19.8149932,30.2453288 19.8991507,30.0318082 19.9802945,29.8170822 C20.0041027,29.8221301 20.027911,29.8271781 20.0517192,29.8321507 L20.0517192,36.2230753 L22.2822329,36.2230753 L22.2822329,27.2033767 C21.2040068,27.2033767 20.1516986,27.2129452 19.0997671,27.1967466 C18.8303425,27.1925274 18.7086644,27.2722397 18.6202123,27.5323219 C18.0476849,29.2156233 17.4563973,30.8925959 16.8701575,32.5713014 C16.8236712,32.7045068 16.7688973,32.8348493 16.6942329,33.0281027 C15.9813425,31.0441849 15.295726,29.1359863 14.6097329,27.2269589 L11.0309658,27.2269589 L11.0309658,36.2157671 L13.2671301,36.2157671 L13.2671301,29.7922192 Z M0,32.3231986 C0.0714246575,32.1971507 0.155582192,32.0764521 0.212465753,31.9441507 C1.05871233,29.9758288 1.90465753,28.0073562 2.74050685,26.0346644 C2.83980822,25.8001986 2.95244521,25.6950959 3.2290274,25.698335 C4.66000685,25.715363 6.09136301,25.7143836 7.52234247,25.699089 C7.79447945,25.696226 7.9145,25.7899521 8.01628767,26.031726 C8.47256164,27.115226 8.94947945,28.190137 9.47981507,29.2621849 L9.47981507,25.7350274 C9.62778767,25.723274 9.735,25.7074521 9.84236301,25.7073767 C11.6878014,25.7058699 13.5333151,25.7125 15.3786027,25.6992397 C15.6420753,25.6973562 15.7474795,25.7859589 15.8278699,26.0250959 C16.0868219,26.7953973 16.371089,27.5572603 16.6816507,28.4229452 C17.0212192,27.4578082 17.3284658,26.5846644 17.6326986,25.7199589 L45.4528288,25.7199589 L45.4528288,27.0325 C45.5917603,26.9489452 45.6729795,26.9069041 45.7469658,26.8546164 C46.8370205,26.0837877 48.0577192,25.710089 49.3839726,25.7109178 C52.2710959,25.7128767 55.1582945,25.7394726 58.0454178,25.7427123 C58.3072329,25.7430137 58.4155753,25.8422397 58.5095274,26.0654041 C58.96,27.1351918 59.4258425,28.1984247 59.9568562,29.2528425 L59.9568562,25.7360068 C60.068363,25.7231233 60.1399384,25.7076027 60.2115137,25.7075274 C61.7682397,25.7060959 63.3249658,25.7005205 64.8814658,25.7160411 C65.023637,25.7174726 65.2141027,25.8205411 65.2975068,25.9370959 C65.7194247,26.5268014 66.1134658,27.1366986 66.5687603,27.816363 L66.5687603,25.7365342 L71.8016712,25.7365342 L71.8016712,37.8048904 L71.4158425,37.8048904 C69.9218767,37.8048904 68.427911,37.7978836 66.9340205,37.8115205 C66.6729589,37.8138562 66.5286781,37.7277397 66.3969041,37.5093219 C66.0476918,36.9303904 65.6730137,36.3668288 65.2428082,35.6945479 L65.2428082,37.784774 C65.0723082,37.7930616 64.9506301,37.8040616 64.8290274,37.804137 C62.5441918,37.8051918 60.2593562,37.7998425 57.9745205,37.8114452 C57.6946986,37.8128767 57.5473288,37.7418288 57.4551096,37.4655479 C57.3087192,37.0265274 57.1074041,36.6062671 56.9464726,36.1716918 C56.8711301,35.9681164 56.7688904,35.8756712 56.5368356,35.8847123 C56.0480137,35.9038493 55.5574589,35.9026438 55.0684863,35.8852397 C54.8361301,35.8770274 54.7395411,35.9716575 54.6650274,36.1782466 C54.4950548,36.649363 54.3082055,37.1151301 54.1053836,37.5729863 C54.0614589,37.6720616 53.9214726,37.7948699 53.825637,37.7948699 C52.0059658,37.7948699 50.1852397,37.8095616 48.3669247,37.7526781 C47.2933699,37.7191507 46.3746438,37.2129247 45.4851507,36.4964178 L45.4851507,37.7811575 C45.3108836,37.7911027 45.1901849,37.8039863 45.069411,37.8039863 C42.7218151,37.8051918 40.3742192,37.8002192 38.0266233,37.8112192 C37.7578767,37.8125 37.5919726,37.724274 37.4322466,37.5167055 C37.0378288,37.0043014 36.6193767,36.5104315 36.1299521,36.0304247 L36.1299521,37.8048904 L35.6747329,37.8048904 C26.2969315,37.8048904 16.9190548,37.8030822 7.54125342,37.812726 C7.22406164,37.8131027 7.07473288,37.7180959 6.97618493,37.4227534 C6.82979452,36.9837329 6.65296575,36.5528493 6.45473973,36.1346986 C6.40177397,36.0229658 6.22735616,35.9080685 6.1030411,35.9015137 C5.60231507,35.8751438 5.0990274,35.9005342 4.59732192,35.8859178 C4.38327397,35.8796644 4.28593151,35.9645753 4.21526027,36.1565479 C4.05523288,36.5913493 3.84917123,37.0105548 3.7100137,37.4513836 C3.61500685,37.752226 3.45369863,37.8152877 3.16219863,37.8119726 C2.10830822,37.8000685 1.05411644,37.8170205 0,37.8230479 L0,32.3231986 Z" id="Fill-3" fill="#FAFCFD" mask="url(#mask-2)"></path>
            <path d="M29.0323829,49.2964171 C29.696376,50.1654171 30.3349788,50.9864993 30.9538418,51.8220473 C31.0983486,52.0170336 31.2479034,52.0853692 31.4844034,52.0806226 C32.2117596,52.0661568 32.9395678,52.0764034 33.66715,52.0739171 C33.7565815,52.0735404 33.8458623,52.0537253 33.9708555,52.0385815 C32.7630404,50.5190747 31.5877733,49.0405541 30.4100199,47.5588692 C31.6189651,46.050739 32.8037253,44.5727459 34.0390404,43.0316911 C33.1596432,43.0316911 32.3839925,43.0405815 31.6087185,43.0260404 C31.3820884,43.0218212 31.244287,43.0989719 31.1101021,43.2751979 C30.4573349,44.1326705 29.7916842,44.9803486 29.1078007,45.8608007 C29.0044308,45.7321911 28.917787,45.6279171 28.8348349,45.5207048 C28.2512322,44.7672801 27.6715473,44.0106158 27.0813144,43.2623897 C27.0038623,43.1641432 26.8744993,43.0445747 26.7669856,43.0423144 C25.8948212,43.0245336 25.0220541,43.0322938 24.0642253,43.0322938 C25.3252322,44.6040884 26.5347801,46.1114651 27.7416911,47.6156021 C26.544424,49.1058007 25.3775952,50.5579514 24.1584034,52.0753486 C25.0389308,52.0753486 25.8365062,52.0656295 26.6335541,52.0813007 C26.8738212,52.0859719 27.0223966,52.0117596 27.163061,51.8177527 C27.7659514,50.986424 28.3848144,50.1667733 29.0323829,49.2964171 L29.0323829,49.2964171 Z M36.5997801,49.2238623 C36.7696021,49.2238623 36.9040884,49.2249171 37.03865,49.2236363 C37.8539308,49.2160267 38.6714719,49.2421705 39.4843418,49.1932733 C41.8823418,49.0489925 43.248376,46.7499171 42.1884582,44.6519308 C41.5933281,43.4739514 40.539061,43.0561774 39.2975678,43.0388486 C37.6919445,43.0165473 36.0857938,43.0322938 34.4797938,43.0330473 C34.4207253,43.0330473 34.3616568,43.0473623 34.2991226,43.055424 L34.2991226,52.0548555 L36.5997801,52.0548555 L36.5997801,49.2238623 Z M68.7244514,43.0395267 C67.1171705,43.0395267 65.5851568,43.0084103 64.0556295,43.0558007 C63.4915404,43.0732801 62.9061295,43.2053555 62.3778281,43.4084788 C61.2146158,43.8557116 60.6409582,44.9767322 60.8015884,46.3136842 C60.9509171,47.5567596 61.7089377,48.3813075 62.9829788,48.5328212 C63.8007459,48.6300884 64.6359171,48.5842048 65.4633281,48.5949034 C66.1671774,48.6041705 66.5480336,48.8704308 66.5443418,49.3656568 C66.5407253,49.8516911 66.1811158,50.1108692 65.4878897,50.1126021 C64.1574171,50.1159171 62.8268692,50.1135815 61.4963966,50.1136568 L61.0921842,50.1136568 L61.0921842,52.0576432 C61.1676021,52.0643486 61.2273486,52.0742938 61.2870952,52.0742938 C62.8686842,52.0737664 64.4504993,52.089739 66.0316363,52.0658555 C67.6270884,52.0417459 68.6061637,51.1452459 68.8156158,49.5721705 C69.0326021,47.9425884 68.0444103,46.7229445 66.4049582,46.6370541 C65.6412116,46.5971226 64.8742253,46.6214582 64.1087459,46.6116637 C63.9463829,46.6096295 63.7807801,46.6030747 63.6230884,46.5690199 C63.2522527,46.4889308 63.0247185,46.1868075 63.0277322,45.8072322 C63.0306705,45.4461158 63.2161637,45.2124034 63.6019925,45.1240267 C63.7832664,45.0824377 63.9741089,45.0678966 64.1607322,45.0669925 C65.2653281,45.0619445 66.369924,45.0681226 67.4744445,45.0593829 C67.5954445,45.0584034 67.7853075,45.0217116 67.8256158,44.9419993 C68.1346705,44.3311979 68.4146432,43.7054788 68.7244514,43.0395267 L68.7244514,43.0395267 Z M59.8580747,48.5182801 L59.8580747,46.6075952 L54.9421295,46.6075952 L54.9421295,45.05215 L59.9936911,45.05215 L59.9936911,43.0544445 L52.6726637,43.0544445 L52.6726637,52.0542527 L59.9966295,52.0542527 L59.9966295,50.1003212 L54.9451432,50.1003212 L54.9451432,48.5182801 L59.8580747,48.5182801 Z M16.5114445,43.0506021 L16.5114445,52.045061 L23.8447527,52.045061 L23.8447527,50.1109445 L18.7835473,50.1109445 L18.7835473,48.508561 L23.7138075,48.508561 L23.7138075,46.5959925 L18.7818144,46.5959925 L18.7818144,45.0458966 L23.8406842,45.0458966 L23.8406842,43.0506021 L16.5114445,43.0506021 Z M49.2554308,48.7955404 C49.5738281,48.6829034 49.8759514,48.6067322 50.1507253,48.4736774 C51.2676774,47.9329445 51.8612253,46.7291226 51.6553897,45.4630678 C51.4523418,44.2146432 50.5143281,43.1990267 49.207061,43.1220267 C47.3339719,43.0115747 45.451013,43.0689856 43.5721979,43.05565 C43.5618007,43.0555747 43.5512527,43.0686089 43.5274445,43.0842048 L43.5274445,52.0554582 L45.7677527,52.0554582 L45.7677527,48.9157116 C46.3671021,48.7864993 46.7959514,48.8792459 47.1746226,49.3859993 C47.8191774,50.2486705 48.5459308,51.0505404 49.2544514,51.8636363 C49.3522459,51.9758966 49.5415815,52.0607322 49.6916637,52.0659308 C50.3307185,52.0880062 50.9709788,52.0753486 51.6107116,52.0753486 C51.7754856,52.075424 51.9404103,52.0753486 52.1795473,52.0753486 C51.1620473,50.9341363 50.2127322,49.8693212 49.2554308,48.7955404 L49.2554308,48.7955404 Z M-7.53424683e-06,76.92465 C0.160471918,76.9406979 0.320800685,76.9707596 0.481280137,76.9707596 C25.788739,76.9728692 51.0962733,76.9727938 76.4037322,76.9727938 L76.9125952,76.9727938 L76.9125952,52.9017048 C76.3531021,53.1062596 75.81365,53.3328897 75.255739,53.4966842 C74.9240815,53.5941021 74.5634925,53.6298897 74.2159377,53.6301911 C65.79265,53.6371979 57.3693623,53.6346363 48.94615,53.6408897 C48.7088966,53.6411158 48.5567801,53.5748897 48.4108418,53.3854788 C48.005424,52.8592116 47.5765747,52.3510267 47.1004856,51.7663692 L47.1004856,53.6054788 L42.01065,53.6054788 L42.01065,50.3949103 C40.7209377,50.9805473 39.4140473,50.7979925 38.0896774,50.8510336 L38.0896774,53.6356911 L37.6774788,53.6356911 C35.3802116,53.6356911 33.0829445,53.629287 30.7857527,53.6437527 C30.4959856,53.6456363 30.3290267,53.5462596 30.1706568,53.3230199 C29.8154925,52.8224445 29.4375747,52.3377664 29.0394651,51.8072801 C28.6226705,52.353061 28.2341295,52.8849788 27.8159788,53.3923349 C27.7148692,53.5149925 27.5158897,53.6252185 27.3615884,53.6256705 C23.3193897,53.6383281 19.2772664,53.6357664 15.2350678,53.635013 C15.1493281,53.6349377 15.0636637,53.6247664 14.9544925,53.6178349 L14.9544925,41.5649993 C15.0841568,41.5590473 15.2180404,41.5475199 15.351924,41.5475199 C19.3564514,41.5466158 23.3609788,41.5493281 27.3654308,41.5408897 C27.6324445,41.5404377 27.8013623,41.6189445 27.9573212,41.8363075 C28.3148212,42.3348486 28.700424,42.8130473 29.0998144,43.3321568 C29.5205267,42.8027253 29.9101226,42.2864788 30.3324171,41.7986363 C30.443924,41.6698007 30.6549582,41.5613829 30.8227459,41.5577664 C31.8390404,41.5356911 32.8560884,41.5467664 33.8729856,41.5467664 L76.3534034,41.5467664 L76.9398692,41.5467664 L76.9398692,41.1296705 C76.9398692,27.5445952 76.9399445,13.9595199 76.9385884,0.374444521 C76.9385884,0.250355479 76.91915,0.126266438 76.9088281,0.00217739726 C77.0333692,0.00579383562 77.2004034,-0.044610274 77.1366637,0.191060959 C77.1240062,0.23784863 77.1347801,0.290965068 77.1347801,0.341218493 L77.1347801,48.6720541 C77.1126295,48.6452322 77.0760884,48.6211979 77.0704377,48.591287 C76.8667116,47.5129856 76.2015884,46.855924 75.1418212,46.7139788 C74.2774925,46.5981774 73.3919171,46.6423281 72.5159856,46.6124171 C72.3160267,46.605561 72.11215,46.6067664 71.9178418,46.5667596 C71.5466295,46.490287 71.3218829,46.1840199 71.3262527,45.8038418 C71.3303212,45.4454377 71.5185267,45.2110473 71.9039034,45.1237253 C72.0853281,45.0825884 72.2760199,45.0678212 72.4625678,45.0669925 C73.5667116,45.0619445 74.6709308,45.0681979 75.7749993,45.0593075 C75.8966774,45.0583281 76.0872938,45.0208829 76.1278281,44.9406432 C76.4356774,44.3306705 76.7140678,43.7057801 77.0148349,43.0572322 C76.9166637,43.0442733 76.8704788,43.0327459 76.8243692,43.0328212 C75.3563212,43.0335747 73.8872938,43.0036637 72.4208281,43.053013 C71.8438555,43.0724514 71.2457116,43.1971432 70.7046774,43.4003418 C69.5392048,43.8382322 68.9427938,44.9563897 69.0931021,46.2458007 C69.2458966,47.5569103 69.9809377,48.3758829 71.2885062,48.5333486 C72.1056705,48.6317459 72.9407664,48.5841295 73.7679514,48.5950541 C74.463061,48.6041705 74.8584582,48.8815062 74.8519788,49.3688966 C74.84565,49.8458897 74.4727048,50.1108692 73.7855062,50.1125267 C72.4554856,50.1158418 71.1253897,50.1135815 69.7953692,50.1136568 L69.3989171,50.1136568 L69.3989171,52.0616363 C71.1451295,52.0616363 72.8642938,52.0937322 74.581424,52.0508623 C75.810787,52.0200473 76.6980199,51.2511021 77.0303555,50.0687527 C77.0560473,49.9773623 77.0995199,49.8909445 77.1347801,49.8021911 L77.1347801,76.9999926 C51.5361979,76.9999926 25.9375404,76.9999926 0.338958219,76.9969034 C0.226019863,76.9969034 0.113006164,76.949739 -7.53424683e-06,76.92465 L-7.53424683e-06,76.92465 Z" id="Fill-5" fill="#FAFCFD" mask="url(#mask-2)"></path>
            <path d="M77.1347952,49.802176 C77.0995349,49.8909295 77.0560623,49.9773473 77.0303705,50.0687377 C76.6980349,51.251087 75.8108021,52.0200322 74.5813637,52.0508473 C72.8642336,52.0937171 71.1451445,52.0616212 69.3989322,52.0616212 L69.3989322,50.1136418 L69.7953842,50.1136418 C71.1254048,50.1135664 72.4555007,50.1158267 73.7855212,50.1125116 C74.4727199,50.1108541 74.8456651,49.8458747 74.8519938,49.3688815 C74.8584733,48.8814911 74.463076,48.6042308 73.7678911,48.5951144 C72.9407815,48.5841144 72.1056856,48.6317308 71.2885212,48.5333336 C69.9809527,48.3758678 69.2459116,47.5568952 69.0931171,46.2457856 C68.9428089,44.9563747 69.5392199,43.8382171 70.7046925,43.4003267 C71.2457267,43.1971281 71.8437952,43.0724363 72.4208432,43.0529979 C73.8872336,43.0036486 75.3563363,43.0335596 76.8243842,43.0328062 C76.8704938,43.0327308 76.9166034,43.0442582 77.01485,43.0572925 C76.7140829,43.7057651 76.4356925,44.3306555 76.1278432,44.9406281 C76.0873089,45.0208678 75.8966171,45.058313 75.7750144,45.0592925 C74.6709459,45.0681829 73.5667267,45.0619295 72.4625075,45.0669774 C72.2760349,45.0678062 72.0852678,45.0825733 71.9039185,45.1237103 C71.5185418,45.2110322 71.3303363,45.4454226 71.3262678,45.8038267 C71.3218979,46.1840801 71.5466445,46.4902719 71.9178568,46.5667445 C72.1121651,46.6067514 72.3160418,46.6055459 72.5159253,46.6124021 C73.3919322,46.6423884 74.2775075,46.5981623 75.1418363,46.7139637 C76.2016034,46.8559842 76.8666514,47.5129705 77.0704527,48.5912719 C77.0761034,48.6211829 77.1126445,48.6452925 77.1347952,48.672039 L77.1347952,49.802176 Z" id="Fill-6" fill="#016FCF" mask="url(#mask-2)"></path>
            <path d="M13.2671151,29.7922041 L13.2671151,36.2157521 L11.0309507,36.2157521 L11.0309507,27.2269438 L14.6097178,27.2269438 C15.295711,29.1360466 15.9813274,31.0441699 16.6942178,33.0280877 C16.7689575,32.8348342 16.8236562,32.7044918 16.8701425,32.5712863 C17.4563822,30.8925808 18.0476699,29.2156836 18.6201973,27.5323068 C18.7087247,27.2722247 18.8303274,27.1925877 19.0998274,27.1967315 C20.1516836,27.2129301 21.2039918,27.2033616 22.2822178,27.2033616 L22.2822178,36.2230603 L20.0517041,36.2230603 L20.0517041,29.8321356 C20.0278959,29.827163 20.0040877,29.8221151 19.9803548,29.8171425 C19.8991356,30.0317932 19.8149781,30.2453137 19.7372247,30.4611699 C19.0841562,32.2755671 18.4278479,34.0888342 17.7853274,35.9069986 C17.6989096,36.1514849 17.6009644,36.2720329 17.3164712,36.2538 C16.8666014,36.2248685 16.412889,36.2316493 15.9621151,36.2519918 C15.7287041,36.2625397 15.6421356,36.1711493 15.5676973,35.9626767 C14.8606836,33.9813959 14.1418411,32.0043342 13.425937,30.0262178 C13.3966288,29.9453 13.3626493,29.8660397 13.3308548,29.786026 C13.3096082,29.7880603 13.2883616,29.7901699 13.2671151,29.7922041" id="Fill-7" fill="#016FCF" mask="url(#mask-2)"></path>
            <path d="M63.737737,36.2311521 L61.4905726,36.2311521 L61.4905726,27.2039945 C62.4041,27.2039945 63.3041411,27.1947274 64.2034288,27.2160493 C64.3121479,27.218611 64.4458808,27.3671863 64.5192644,27.4798986 C65.5931205,29.1295219 66.6585384,30.7845699 67.7264425,32.4379603 C67.7999014,32.5516521 67.8778808,32.6623301 67.9990315,32.8411178 L67.9990315,27.2327 L70.2532027,27.2327 L70.2532027,36.2444877 C69.3709425,36.2444877 68.4850658,36.2528507 67.5998671,36.2325836 C67.5041068,36.2303233 67.3910178,36.0763233 67.3217027,35.9694877 C66.2162027,34.2657685 65.1166548,32.5582068 64.0148466,30.8520014 C63.9428192,30.7404945 63.8638603,30.6333575 63.737737,30.4515562 L63.737737,36.2311521 Z" id="Fill-8" fill="#016FCF" mask="url(#mask-2)"></path>
            <path d="M34.8300007,29.2349034 L34.8300007,31.1195199 C35.7517404,31.1195199 36.6511788,31.1393349 37.5491103,31.1118349 C38.0562404,31.096239 38.4740144,30.6371774 38.4699011,30.1876842 C38.4654253,29.7064719 38.0226377,29.253739 37.4817541,29.2406295 C36.6076308,29.2193829 35.7326034,29.2349034 34.8300007,29.2349034 M41.2312473,36.2453692 C40.2979048,36.2453692 39.449624,36.2534308 38.6019459,36.2354993 C38.4937541,36.2331637 38.3672541,36.1135952 38.2852062,36.0176842 C37.5839938,35.1975062 36.8522678,34.3990267 36.2101993,33.5342459 C35.8269322,33.01815 35.388439,32.9675199 34.8207336,33.0722459 L34.8207336,36.2162116 L32.5728158,36.2162116 L32.5728158,27.2501568 C32.596624,27.2362185 32.6171925,27.2135404 32.6378363,27.2135404 C34.35685,27.2107527 36.0793295,27.1400815 37.794124,27.2244651 C40.5166993,27.358424 41.190261,29.7544651 40.4932678,31.3087801 C40.1273295,32.1249651 39.4903842,32.6382733 38.6197267,32.855561 C38.5467199,32.8737185 38.4731103,32.8900678 38.4008568,32.9108623 C38.3780281,32.9174171 38.3585897,32.9360267 38.3087884,32.9669925 C39.2669185,34.0417527 40.2211308,35.1122938 41.2312473,36.2453692" id="Fill-9" fill="#016FCF" mask="url(#mask-2)"></path>
            <polygon id="Fill-10" fill="#016FCF" mask="url(#mask-2)" points="23.8818363 36.2251925 23.8818363 27.2252336 31.2286308 27.2252336 31.2286308 29.2187952 26.1667473 29.2187952 26.1667473 30.7695692 31.0912815 30.7695692 31.0912815 32.6718911 26.1657678 32.6718911 26.1657678 34.2739733 31.2216993 34.2739733 31.2216993 36.2251925"></polygon>
            <path d="M5.34401849,29.3128527 C4.89957329,30.4163185 4.49325137,31.4250034 4.08188151,32.4461952 L6.60427192,32.4461952 C6.18604589,31.4065445 5.78409384,30.406976 5.34401849,29.3128527 M10.699813,36.2457911 C9.89161438,36.2457911 9.11445685,36.2537021 8.3379774,36.2354692 C8.24357329,36.2332842 8.10968973,36.1090445 8.06689521,36.0098938 C7.8444089,35.494476 7.64550479,34.9689623 7.43484726,34.438024 C6.09977877,34.438024 4.78331986,34.4324486 3.46708699,34.449024 C3.36529932,34.4503048 3.21981301,34.5872021 3.17249795,34.6952432 C2.95174452,35.1990582 2.75841575,35.7148527 2.55258014,36.2331336 L0.0437513699,36.2331336 C0.0921212329,36.1009829 0.126929452,35.9896267 0.172813014,35.8829418 C1.36932671,33.0997158 2.5699089,30.3182979 3.7589637,27.5319075 C3.86090205,27.2930719 3.97203219,27.1877432 4.24831301,27.1955788 C5.02539521,27.2177295 5.80368288,27.1936952 6.58084041,27.2132842 C6.70440205,27.2163733 6.89034726,27.3226815 6.93675822,27.4293664 C8.18985411,30.3109144 9.42855959,33.1986404 10.6686966,36.0857637 C10.6825596,36.118161 10.6830116,36.1563596 10.699813,36.2457911" id="Fill-11" fill="#016FCF" mask="url(#mask-2)"></path>
            <path d="M55.8096377,29.3083699 C55.3632336,30.420726 54.9580418,31.4304658 54.5479527,32.4523356 L57.0713979,32.4523356 C56.6549048,31.4144932 56.2530281,30.4131918 55.8096377,29.3083699 M61.1639253,36.2459041 C60.3649938,36.2459041 59.6002678,36.2550959 58.8361445,36.2353562 C58.7305144,36.2325685 58.5802815,36.1085548 58.5331171,36.0036027 C58.3385075,35.5700822 58.1848089,35.1183288 57.9940418,34.6829247 C57.9498158,34.5818904 57.8197747,34.4496644 57.7279322,34.4486849 C56.3992678,34.4334658 55.0703774,34.4382123 53.7358363,34.4382123 C53.4918774,35.0471301 53.2547747,35.6388699 53.0157884,36.2353562 L50.5071856,36.2353562 C50.5578911,36.0983836 50.5941308,35.9852192 50.6408432,35.8765753 C51.8378089,33.093274 53.0395966,30.3121575 54.2272952,27.5249384 C54.3325486,27.2780411 54.4540007,27.1901918 54.7217678,27.1966712 C55.4990007,27.2155068 56.2772884,27.1935068 57.0544459,27.2136233 C57.1764253,27.2167123 57.3584527,27.3281438 57.4053911,27.4361096 C58.6585623,30.3178082 59.8979459,33.2055342 61.1383842,36.0926575 C61.1520966,36.1246781 61.1507404,36.1631027 61.1639253,36.2459041" id="Fill-12" fill="#016FCF" mask="url(#mask-2)"></path>
            <path d="M52.0497247,27.165924 L52.0497247,29.3415884 C51.7567932,29.3415884 51.4740329,29.3415884 51.1911973,29.3415884 C50.6639507,29.3416637 50.1366288,29.3351842 49.6094575,29.3432459 C48.3277315,29.3629856 47.4920329,30.1412733 47.3891904,31.4223212 C47.3651562,31.7209788 47.3629712,32.0284514 47.405163,32.3240199 C47.5804849,33.5499925 48.3671356,34.2270199 49.6444164,34.2734308 C49.8781288,34.2819445 50.1123685,34.2746363 50.4006288,34.2746363 C50.0881082,34.9219788 49.8081356,35.5205747 49.5050329,36.1071158 C49.4649507,36.1846432 49.3083137,36.2373829 49.2037384,36.2406979 C47.1214233,36.3067733 45.6010123,35.083513 45.2045603,33.0225952 C45.0021904,31.9702116 45.0170329,30.919787 45.3660192,29.9001021 C45.8825671,28.3909925 46.9736767,27.4994651 48.5292726,27.3046295 C49.6789986,27.16065 50.8523822,27.2060062 52.0497247,27.165924" id="Fill-13" fill="#016FCF" mask="url(#mask-2)"></path>
            <polygon id="Fill-14" fill="#016FCF" mask="url(#mask-2)" points="41.6881918 36.2217192 43.9551712 36.2217192 43.9551712 27.2136233 41.6881918 27.2136233"></polygon>
            <path d="M45.781661,46.9537336 C46.6765788,46.9537336 47.5513048,46.9676719 48.4254281,46.9486856 C48.971887,46.9367815 49.3988527,46.5248842 49.4142979,46.0521856 C49.4296678,45.5810692 49.0303527,45.1024938 48.4983596,45.079439 C47.6000514,45.0406377 46.6989555,45.0688158 45.781661,45.0688158 L45.781661,46.9537336 Z M49.2554007,48.7954801 C50.2127774,49.869261 51.1620171,50.9341514 52.1795171,52.0753637 C51.9403801,52.0753637 51.7755308,52.075439 51.6106815,52.0753637 C50.9709486,52.0753637 50.3306884,52.0880212 49.6916336,52.0659459 C49.5415514,52.0607473 49.3522911,51.9759116 49.2544966,51.8636514 C48.5459007,51.0505555 47.8191473,50.2486103 47.1745925,49.3860144 C46.7959212,48.879261 46.3671473,48.7865144 45.7677226,48.9157267 L45.7677226,52.0554733 L43.5274144,52.0554733 L43.5274144,43.0842199 C43.5512226,43.068624 43.5617705,43.0555897 43.5722432,43.0556651 C45.4509829,43.0689253 47.3340171,43.0115897 49.2071062,43.1220418 C50.5142979,43.1990418 51.452387,44.2146582 51.6553596,45.4630829 C51.8611952,46.7291377 51.2676473,47.9329596 50.1506952,48.4736925 C49.8759966,48.6066719 49.5737979,48.6829185 49.2554007,48.7954801 L49.2554007,48.7954801 Z" id="Fill-15" fill="#016FCF" mask="url(#mask-2)"></path>
            <polygon id="Fill-16" fill="#016FCF" mask="url(#mask-2)" points="16.5114068 43.0505644 23.8406466 43.0505644 23.8406466 45.0458589 18.7817767 45.0458589 18.7817767 46.5960301 23.7137699 46.5960301 23.7137699 48.5085233 18.7835849 48.5085233 18.7835849 50.1109068 23.8447904 50.1109068 23.8447904 52.0450986 16.5114068 52.0450986"></polygon>
            <polygon id="Fill-17" fill="#016FCF" mask="url(#mask-2)" points="59.8580445 48.5182651 54.945113 48.5182651 54.945113 50.1003062 59.9966747 50.1003062 59.9966747 52.054313 52.6727089 52.054313 52.6727089 43.0544295 59.9937363 43.0544295 59.9937363 45.0521349 54.9420993 45.0521349 54.9420993 46.6076555 59.8580445 46.6076555"></polygon>
            <path d="M68.7244664,43.0395342 C68.4146582,43.7054863 68.1346856,44.3312055 67.8255555,44.9420068 C67.7853226,45.0217192 67.5954596,45.058411 67.4744596,45.0593904 C66.369939,45.0681301 65.2653432,45.0619521 64.1607473,45.067 C63.974124,45.0679041 63.7832815,45.0824452 63.6020075,45.1240342 C63.2161788,45.212411 63.0306856,45.4461233 63.0277473,45.8072397 C63.0247336,46.1867397 63.2522678,46.4889384 63.6231034,46.5690274 C63.7807952,46.6030822 63.9463979,46.609637 64.1086856,46.6116712 C64.8741651,46.6214658 65.6412267,46.5971301 66.4049733,46.6370616 C68.0444253,46.7229521 69.0326171,47.9425959 68.8156308,49.5721781 C68.6061788,51.1452534 67.6271034,52.0416781 66.0316514,52.065863 C64.450439,52.0897466 62.868624,52.073774 61.2871103,52.0743014 C61.2273637,52.0743014 61.1676171,52.0643562 61.092124,52.0576507 L61.092124,50.1136644 L61.4963363,50.1136644 C62.8268842,50.113589 64.1574322,50.1159247 65.4879048,50.1126096 C66.1811308,50.1108014 66.5407404,49.8516986 66.5442815,49.3656644 C66.5479733,48.8704384 66.1671925,48.6041027 65.4633432,48.594911 C64.6358568,48.5842123 63.8006856,48.6300959 62.9829938,48.5328288 C61.7089527,48.3813151 60.9509322,47.5567671 60.8016034,46.3136918 C60.6409733,44.9767397 61.2145555,43.8557192 62.3778432,43.408411 C62.9060692,43.205363 63.4915555,43.0732877 64.0555692,43.0558082 C65.5851719,43.0084178 67.1171856,43.0395342 68.7244664,43.0395342" id="Fill-18" fill="#016FCF" mask="url(#mask-2)"></path>
            <path d="M36.6126863,47.1615884 C37.4995425,47.1615884 38.3494055,47.1792185 39.1979877,47.155561 C39.7874671,47.139061 40.1976315,46.7096842 40.2188027,46.1581021 C40.2410288,45.5787938 39.8652205,45.1571774 39.2352822,45.0990884 C38.8750699,45.0659377 38.5101863,45.082287 38.147337,45.0807048 C37.6390767,45.0784445 37.1307411,45.0801021 36.6126863,45.0801021 L36.6126863,47.1615884 Z M36.5998027,49.2238623 L36.5998027,52.0548555 L34.2991452,52.0548555 L34.2991452,43.055424 C34.3616795,43.0473623 34.4207479,43.0330473 34.4798164,43.0330473 C36.0857411,43.0322938 37.6919671,43.0165473 39.2975904,43.0388486 C40.5390082,43.0561774 41.5932753,43.4739514 42.1884808,44.6519308 C43.2483233,46.7499171 41.882289,49.0489925 39.484289,49.1932733 C38.6714192,49.2421705 37.8539534,49.2160267 37.0385973,49.2236363 C36.904111,49.2249171 36.7696247,49.2238623 36.5998027,49.2238623 L36.5998027,49.2238623 Z" id="Fill-19" fill="#016FCF" mask="url(#mask-2)"></path>
            <path d="M29.0323829,49.2964171 C28.3848144,50.1667733 27.7659514,50.986424 27.163061,51.8177527 C27.0223966,52.0117596 26.8738212,52.0859719 26.6335541,52.0813007 C25.8365062,52.0656295 25.0389308,52.0753486 24.1584034,52.0753486 C25.3775952,50.5579514 26.544424,49.1058007 27.7416911,47.6156021 C26.5347801,46.1114651 25.3252322,44.6040884 24.0642253,43.0322938 C25.0220541,43.0322938 25.8948212,43.0245336 26.7669856,43.0423144 C26.8744993,43.0445747 27.0038623,43.1641432 27.0813144,43.2623897 C27.6715473,44.0106158 28.2512322,44.7672801 28.8348349,45.5207048 C28.917787,45.6279171 29.0044308,45.7321911 29.1078007,45.8608007 C29.7916842,44.9803486 30.4573349,44.1326705 31.1101021,43.2751979 C31.244287,43.0989719 31.3820884,43.0218212 31.6087185,43.0260404 C32.3839925,43.0405815 33.1596432,43.0316911 34.0390404,43.0316911 C32.8037253,44.5727459 31.6189651,46.050739 30.4100199,47.5588692 C31.5877733,49.0405541 32.7630404,50.5190747 33.9708555,52.0385815 C33.8458623,52.0537253 33.7565815,52.0735404 33.66715,52.0739171 C32.9395678,52.0764034 32.2117596,52.0661568 31.4844034,52.0806226 C31.2479034,52.0853692 31.0983486,52.0170336 30.9538418,51.8220473 C30.3349788,50.9864993 29.696376,50.1654171 29.0323829,49.2964171" id="Fill-20" fill="#016FCF" mask="url(#mask-2)"></path>
            <path d="M34.8300007,29.2349034 C35.7326034,29.2349034 36.6076308,29.2193829 37.4817541,29.2406295 C38.0226377,29.253739 38.4654253,29.7064719 38.4699011,30.1876842 C38.4740144,30.6371774 38.0562404,31.096239 37.5491103,31.1118349 C36.6511788,31.1393349 35.7517404,31.1195199 34.8300007,31.1195199 L34.8300007,29.2349034 Z" id="Fill-21" fill="#FAFCFD" mask="url(#mask-2)"></path>
            <path d="M5.34401849,29.3128527 C5.78409384,30.406976 6.18604589,31.4065445 6.60427192,32.4461952 L4.08188151,32.4461952 C4.49325137,31.4250034 4.89957329,30.4163185 5.34401849,29.3128527" id="Fill-22" fill="#FAFCFD" mask="url(#mask-2)"></path>
            <path d="M55.8096377,29.3083699 C56.2530281,30.4131918 56.6549048,31.4144932 57.0713979,32.4523356 L54.5479527,32.4523356 C54.9580418,31.4304658 55.3632336,30.420726 55.8096377,29.3083699" id="Fill-23" fill="#FAFCFD" mask="url(#mask-2)"></path>
            <path d="M45.781661,46.9537336 L45.781661,45.0688158 C46.6989555,45.0688158 47.6000514,45.0406377 48.4983596,45.079439 C49.0303527,45.1024938 49.4296678,45.5810692 49.4142979,46.0521856 C49.3988527,46.5248842 48.971887,46.9367815 48.4254281,46.9486856 C47.5513048,46.9676719 46.6765788,46.9537336 45.781661,46.9537336" id="Fill-24" fill="#FAFCFD" mask="url(#mask-2)"></path>
            <path d="M36.6126863,47.1615884 L36.6126863,45.0801021 C37.1307411,45.0801021 37.6390767,45.0784445 38.147337,45.0807048 C38.5101863,45.082287 38.8750699,45.0659377 39.2352822,45.0990884 C39.8652205,45.1571774 40.2410288,45.5787938 40.2188027,46.1581021 C40.1976315,46.7096842 39.7874671,47.139061 39.1979877,47.155561 C38.3494055,47.1792185 37.4995425,47.1615884 36.6126863,47.1615884" id="Fill-25" fill="#FAFCFD" mask="url(#mask-2)"></path>
        </g>
    </g>
</svg>