<?xml version="1.0" encoding="UTF-8"?>
<svg width="155px" height="155px" viewBox="0 0 155 155" version="1.1" xmlns="http://www.w3.org/2000/svg" xmlns:xlink="http://www.w3.org/1999/xlink">
    <title>bank of america</title>
    <g id="bank-of-america" stroke="none" stroke-width="1" fill="none" fill-rule="evenodd">
        <g id="Group-16" transform="translate(28.000000, 53.000000)">
            <path d="M98.0314476,19.619487 C96.0947473,20.4684438 94.3351248,21.2234957 92.5886349,22.0077781 C81.8320758,26.8377378 71.5139749,32.4751383 61.7453236,39.0774294 C57.2171305,42.1378818 52.857119,45.4481354 48.4386464,48.6692853 C48.0246176,48.9711931 47.771851,48.9915274 47.352315,48.6982334 C45.2551997,47.2317637 43.1439634,45.7844986 41.0132401,44.3673112 C40.2618597,43.8677089 39.4147386,43.5129885 38.6588395,43.0191758 C37.8283813,42.476928 37.0527127,41.8506599 36.1862458,41.2115418 C37.6902775,40.188755 39.1721392,39.1620144 40.6730643,38.1639395 C48.7428135,32.7975216 57.1561277,28.0354841 65.9042516,23.8675187 C73.2483207,20.3683256 80.7801997,17.3303256 88.4897213,14.7351614 C88.7285081,14.6548127 89.0763092,14.6562248 89.2879836,14.7734294 C92.1011767,16.3312622 94.8989778,17.9169135 97.7014389,19.4940922 C97.7634303,19.52883 97.8354476,19.5459164 98.0314476,19.619487" id="Fill-4" fill="#EB1C2E"></path>
            <path d="M85.8298403,13.0840873 C83.6126963,13.8052487 81.4425752,14.4915311 79.2851631,15.216364 C71.6387625,17.7852631 64.1952813,20.8510816 56.9387625,24.373998 C48.4318259,28.5039778 40.2776329,33.2407386 32.4578259,38.5577329 C32.2697337,38.6855282 31.9025867,38.7510499 31.7190133,38.6548856 C28.2243389,36.8231046 24.7446329,34.9626579 21.262385,33.1070124 C21.1876847,33.0671911 21.1208922,33.0122602 20.9535579,32.8985859 C23.0728432,31.5782689 25.1071199,30.2784274 27.172604,29.0298452 C35.7552294,23.8416349 44.7086732,19.3959086 54.0157078,15.6604706 C61.0227078,12.848266 68.1798144,10.4904764 75.4740363,8.54770403 C75.6865579,8.49121988 75.9612121,8.46622565 76.1495867,8.55208156 C79.3334571,10.0034418 82.5082899,11.4747127 85.68397,12.9434418 C85.7233677,12.9616579 85.7506213,13.0062804 85.8298403,13.0840873" id="Fill-6" fill="#EB1C2E"></path>
            <path d="M46.5257824,15.7556464 C44.9704914,16.4136867 43.4784625,17.0345888 41.9947651,17.6742718 C34.7595692,20.7937501 27.7507334,24.3603006 20.9652925,28.3641795 C20.5819063,28.5903986 20.2966614,28.6286666 19.8810793,28.4069663 C18.1429207,27.4802026 16.3896527,26.5798452 14.6195807,25.7159202 C13.7440764,25.2886176 12.8197133,24.9617156 11.781817,24.5334245 C12.2924337,24.2282689 12.6756787,23.9883524 13.0688084,23.7659461 C20.8720937,19.3541104 28.9463617,15.5138942 37.3181599,12.3078539 C37.6685029,12.173704 38.1654222,12.1725744 38.5103991,12.3137847 C41.0471023,13.3518222 43.5627651,14.4412602 46.0839352,15.5171421 C46.2107421,15.5712256 46.3279467,15.6479029 46.5257824,15.7556464" id="Fill-8" fill="#046CB6"></path>
            <path d="M34.4056112,10.7652859 C32.1849369,11.6241274 30.0496948,12.4150467 27.9411415,13.27177 C21.357349,15.9465769 14.984666,19.0580063 8.84130865,22.6326058 C8.40765159,22.8849487 8.06493401,22.899917 7.60119914,22.7142254 C5.31217896,21.7973464 3.00578991,20.9236778 0.706178963,20.0333464 C0.55804928,19.976015 0.414155908,19.9076692 0.123686167,19.7817095 C1.36167752,19.1239516 2.48486484,18.5061562 3.6262683,17.9242282 C10.923738,14.2033349 18.4625363,11.0656403 26.2617265,8.55435504 C26.8757092,8.35666052 27.4161213,8.33547896 28.0277035,8.5523781 C29.8868793,9.21183055 31.7646948,9.81917637 33.6336141,10.4513752 C33.8705651,10.5315827 34.0981963,10.6393262 34.4056112,10.7652859" id="Fill-10" fill="#046CB6"></path>
            <path d="M26.3921343,5.35848184 C27.8100277,4.89686513 29.0961718,4.46843285 30.3889527,4.06047608 C31.4629988,3.72142997 32.5593562,3.44677579 33.6180104,3.06621383 C34.3014686,2.82050778 34.9100853,2.8683781 35.5888836,3.07962882 C42.9292813,5.36314179 50.0745262,8.14173833 57.0137452,11.4504386 C57.151849,11.5162427 57.2851516,11.5920726 57.4868,11.6978392 C55.0043216,12.601868 52.611653,13.4793493 50.2110767,14.3346605 C50.0406357,14.3955222 49.7888576,14.3434156 49.6141804,14.2606663 C42.1742294,10.7367614 34.4966213,7.83714755 26.6118576,5.47964035 C26.58997,5.47314467 26.5706242,5.45747032 26.3921343,5.35848184" id="Fill-12" fill="#EB1C2E"></path>
            <path d="M38.8514646,1.65666599 C39.8695914,1.4022049 40.8857412,1.13941239 41.9062686,0.895542075 C42.7971648,0.68259683 43.722234,0.573582421 44.5799458,0.270827378 C45.9791994,-0.223126513 47.2591303,0.213637176 48.5603839,0.590527666 C55.6014156,2.63002911 62.4958709,5.08101758 69.2331591,7.97215879 C69.2957153,7.99898876 69.3493752,8.04615303 69.5160035,8.15488501 C68.4985827,8.44507233 67.569136,8.70857089 66.6406778,8.97531729 C65.1516144,9.4027611 63.6669285,9.84630288 62.171087,10.2476228 C61.9084357,10.3180867 61.5637412,10.2942222 61.3173291,10.1816775 C54.6691447,7.14523084 47.8659112,4.51801182 40.8737383,2.38559395 C40.2046836,2.18154496 39.5342167,1.98159107 38.8644559,1.77980144 C38.8602196,1.73885043 38.8558421,1.69775821 38.8514646,1.65666599" id="Fill-14" fill="#EB1C2E"></path>
        </g>
    </g>
</svg>