<?xml version="1.0" encoding="UTF-8"?>
<svg width="155px" height="155px" viewBox="0 0 155 155" version="1.1" xmlns="http://www.w3.org/2000/svg" xmlns:xlink="http://www.w3.org/1999/xlink">
    <title>BBVA</title>
    <g id="BBVA" stroke="none" stroke-width="1" fill="none" fill-rule="evenodd">
        <g id="Group-18" transform="translate(26.000000, 62.000000)" fill="#2D4491">
            <path d="M34.15851,4.04628539 L34.15851,26.4450869 C35.1360268,26.3981078 36.0914052,26.4282492 37.0225666,26.2926129 C39.4415698,25.9401664 41.081054,24.6198692 41.714751,22.2157288 C42.1685349,20.4941352 42.1357951,18.763811 41.5858705,17.062381 C41.1045435,15.5733959 40.1466707,14.4854992 38.7142266,13.8324702 C38.3737328,13.6771901 38.0132832,13.565459 37.6303835,13.4219236 C37.8761918,13.053367 38.1083845,12.711522 38.3341332,12.3655195 C39.0881879,11.2095449 39.9345376,10.1012768 40.5716644,8.88418787 C41.6535328,6.81752723 40.1548816,4.21279064 37.8348253,4.0602128 C36.6293772,3.98101367 35.414367,4.04628539 34.15851,4.04628539 L34.15851,4.04628539 Z M26.3640481,0.0463138192 L26.9337205,0.0463138192 C31.4015074,0.0455862682 35.8693982,0.0272935569 40.3370812,0.0596176093 C41.1920575,0.0658537609 42.0746809,0.170205364 42.8948387,0.403333499 C46.1018836,1.31485099 47.6394068,4.0999163 46.6786237,7.28690157 C46.4041291,8.19769152 45.9184368,9.05485055 45.4566498,9.89683496 C45.0679297,10.6053657 44.573195,11.2561081 44.1306361,11.9246236 C44.8934214,12.4579185 45.6789686,12.9310345 46.3774176,13.508814 C48.8840387,15.5822304 50.2946562,18.193411 50.2275137,21.5135382 C50.1482106,25.4335831 47.397652,28.9020266 43.3650446,30.0138285 C42.3421078,30.2959105 41.2548348,30.462 40.194793,30.4740565 C35.7101685,30.5246733 31.2247125,30.4972342 26.7396723,30.4968185 C26.6224326,30.4968185 26.5052969,30.4787336 26.3640481,30.4670928 L26.3640481,0.0463138192 Z" id="Fill-4"></path>
            <path d="M7.8044294,4.04876946 L7.8044294,26.4413348 C8.76354952,26.397162 9.69969981,26.4211712 10.6162062,26.298423 C12.9052896,25.9917082 14.5180623,24.7883388 15.259125,22.5564202 C15.685366,21.2725005 15.7407638,19.9427451 15.571972,18.6144448 C15.2541361,16.1120851 14.0601209,14.2789683 11.5146278,13.5304222 C11.4406255,13.5085957 11.3754577,13.4570435 11.2787973,13.404452 C11.7307105,12.7295964 12.170567,12.0905988 12.5917151,11.4396485 C13.1631545,10.5562976 13.817015,9.70942821 14.2637313,8.76600241 C15.2304387,6.72490999 13.7461307,4.22410926 11.4910344,4.0639441 C10.2870414,3.97840488 9.07192722,4.04876946 7.8044294,4.04876946 M0.00820053936,30.466147 L0.00820053936,0.0792510933 C0.197675612,0.0696889942 0.365116283,0.0537868076 0.532660889,0.0537868076 C5.03630564,0.0530592566 9.54005433,0.039339723 14.0434912,0.0680260204 C14.8484744,0.0731188776 15.6778826,0.161256487 16.4524126,0.371102988 C19.736474,1.26069001 21.2777389,4.13171028 20.3138377,7.41286144 C19.9113981,8.78315182 19.0948779,9.91875503 18.3252329,11.0850193 C18.1361736,11.3714665 17.94753,11.6582256 17.8003568,11.8818956 C18.7880593,12.6364699 19.8032008,13.3048814 20.6936193,14.1103843 C24.8834817,17.9001976 24.9561329,24.2508865 20.8650096,27.9203421 C18.8964644,29.6862123 16.5221536,30.4615738 13.9096218,30.4796587 C9.3715743,30.5112552 4.83321497,30.4899483 0.294855641,30.4897405 C0.211603017,30.4897405 0.128350394,30.4764367 0.00820053936,30.466147" id="Fill-6"></path>
            <path d="M90.0849828,19.3195769 C88.9116509,15.3433027 87.7611848,11.443941 86.6106149,7.54457936 C86.5535541,7.5464502 86.4964933,7.54832105 86.4394325,7.55008796 C85.2774296,11.4632731 84.1154267,15.3763543 82.9444853,19.3195769 L90.0849828,19.3195769 Z M102.502512,30.5187697 C101.405677,30.5187697 100.386586,30.5184579 99.3675984,30.5187697 C97.5667017,30.5192894 95.7658051,30.5105588 93.9651163,30.5286384 C93.5753568,30.5323853 93.3975226,30.4248117 93.2837128,30.0264256 C92.7443896,28.1367677 92.1549694,26.2612451 91.6053565,24.3743935 C91.509008,24.0434617 91.3913526,23.9035641 91.0148969,23.9058506 C88.0021081,23.9237276 84.9891115,23.9252866 81.9762188,23.9048113 C81.5897853,23.9022129 81.4847061,24.0588442 81.3926189,24.3774076 C80.8470596,26.2656104 80.2757242,28.1464337 79.7333869,30.0355719 C79.6380777,30.3678549 79.5118995,30.5059856 79.1383541,30.5009967 C77.4444074,30.4781308 75.750045,30.4909149 73.9733654,30.4909149 C74.2101313,29.6840608 74.4266297,28.9317731 74.6513391,28.1821877 C77.4183195,18.9521636 80.188522,9.72317892 82.9466679,0.490556472 C83.0544494,0.12958723 83.2127437,0.0105062469 83.5912781,0.0131790671 C85.7381772,0.0268986006 87.8852842,0.00922950437 90.0322873,0.0105062469 C90.3946077,0.0108924781 90.757136,0.0487251312 91.1192485,0.0739815452 C91.9466819,0.131562012 92.5895252,0.530571778 92.9539243,1.25199058 C93.3250793,1.98681711 93.6442663,2.75729364 93.8961029,3.54097003 C95.9631793,9.97418402 98.0093646,16.4140499 100.06137,22.8521489 C100.866353,25.3781021 101.670089,27.904471 102.502512,30.5187697 L102.502512,30.5187697 Z" id="Fill-8"></path>
            <path d="M48.8354903,0.0455135131 C49.4479843,0.0455135131 50.0149544,0.0434347959 50.5820285,0.0459292566 C52.3483145,0.0536205102 54.1149123,0.0543480612 55.8811983,0.0749273615 C56.9999639,0.087919344 57.8236556,0.638363659 58.2032294,1.66119646 C58.7479572,3.12897867 59.2257503,4.62503144 59.6563566,6.13054238 C61.2167457,11.5858239 62.7453304,17.0501478 64.2872189,22.51073 C64.3322231,22.6704794 64.3921941,22.8260714 64.5765763,22.9993325 C64.6356119,22.8184841 64.7005718,22.6392986 64.7529555,22.4566833 C66.8351025,15.1954123 68.9214071,7.93538859 70.9851575,0.669024738 C71.1219371,0.187282026 71.3052799,0.017346895 71.8185152,0.0309624927 C73.2899352,0.0699384402 74.7629142,0.044889898 76.2351657,0.0449938338 L76.7824919,0.0449938338 C76.5981097,0.695008703 76.4361776,1.28411716 76.263748,1.87021147 C73.5037313,11.2506307 70.7402846,20.6299067 67.9888945,30.0129243 C67.8853744,30.3662023 67.7488027,30.5020465 67.3597708,30.4995857 C64.4498785,30.4815711 61.5397783,30.483338 58.62999,30.4991363 C58.2764002,30.501111 58.1129091,30.4063215 58.0074142,30.0617742 C54.967706,20.1352759 51.9182279,10.2116879 48.8711403,0.287372259 C48.8564853,0.239457828 48.8557578,0.187385962 48.8354903,0.0455135131" id="Fill-10"></path>
        </g>
    </g>
</svg>