<?xml version="1.0" encoding="UTF-8"?>
<svg width="155px" height="155px" viewBox="0 0 155 155" version="1.1" xmlns="http://www.w3.org/2000/svg" xmlns:xlink="http://www.w3.org/1999/xlink">
    <title>Capital One</title>
    <defs>
        <polygon id="path-1" points="3.33333333e-05 1.11111111e-05 133.333333 1.11111111e-05 133.333333 48 3.33333333e-05 48"></polygon>
        <polygon id="path-3" points="0.0488538476 0.0552790127 42.2222222 0.0552790127 42.2222222 19.673689 0.0488538476 19.673689"></polygon>
    </defs>
    <g id="Capital-One" stroke="none" stroke-width="1" fill="none" fill-rule="evenodd">
        <g id="Group-39" transform="translate(10.000000, 53.500000)">
            <g id="Group-3">
                <mask id="mask-2" fill="white">
                    <use xlink:href="#path-1"></use>
                </mask>
                <g id="Clip-2"></g>
            </g>
            <path d="M110.777778,0 C111.594667,0.0725555556 112.410667,0.155222222 113.228444,0.215777778 C116.849333,0.483777778 120.464222,0.829222222 123.888889,2.12866667 C125.013889,2.55555556 126.113111,3.15088889 127.084111,3.86066667 C128.712,5.05055556 129.104333,6.60388889 128.482444,8.53855556 C127.944667,10.2115556 126.930889,11.5994444 125.804,12.908 C123.129,16.0145556 119.952667,18.5624444 116.672778,20.9844444 C114.769333,22.39 112.816,23.7281111 110.799111,25.1574444 C110.186889,23.0118889 109.094556,21.2856667 107.391778,20.162 C108.138222,18.7791111 108.985556,17.503 109.545667,16.1112222 C110.776889,13.0514444 109.937556,10.5504444 107.211333,8.67788889 C105.162667,7.27066667 102.833889,6.55488889 100.446556,6.00733333 C96.7541111,5.16055556 92.9972222,4.77088889 89.2216667,4.68588889 C85.2446667,4.59633333 81.2602222,4.56222222 77.286,4.70366667 C73.0717778,4.85366667 68.8605556,5.17655556 64.658,5.53877778 C60.752,5.87544444 56.8503333,6.29744444 52.9624444,6.80211111 C48.581,7.37088889 44.2163333,8.06866667 39.8462222,8.723 C38.7315556,8.88988889 37.6254444,9.11366667 36.5116667,9.28733333 C36.3541111,9.31188889 36.1752222,9.19944444 36.0062222,9.15033333 C36.1448889,9.05922222 36.2728889,8.91511111 36.4237778,8.88455556 C40.4811111,8.06311111 44.5301111,7.19522222 48.6025556,6.45666667 C53.5676667,5.55622222 58.5458889,4.72111111 63.5317778,3.94266667 C67.4225556,3.33533333 71.3281111,2.81411111 75.237,2.33444444 C79.4776667,1.81411111 83.7232222,1.31266667 87.9785556,0.939111111 C92.125,0.575 96.2866667,0.384 100.441444,0.112 C100.629222,0.0996666667 100.813889,0.0384444444 101,0 L110.777778,0 Z" id="Fill-4" fill="#CF3128"></path>
            <g id="Group-8" transform="translate(91.111111, 19.777778)">
                <mask id="mask-4" fill="white">
                    <use xlink:href="#path-3"></use>
                </mask>
                <g id="Clip-7"></g>
                <path d="M33.6845667,13.1142556 C35.6961222,13.0531444 37.4311222,12.5873667 38.8504556,11.2778111 C39.6870111,10.5059222 40.1926778,9.56447778 40.1215667,8.38158889 C40.0583444,7.33381111 39.3086778,6.77281111 38.2886778,7.03914444 C38.0074556,7.11247778 37.7189,7.23136667 37.4853444,7.40058889 C35.5421222,8.80892222 34.5215667,10.8304778 33.6845667,13.1142556 L33.6845667,13.1142556 Z M15.9259,7.80536667 C15.9737889,5.99125556 15.5616778,4.30781111 14.4351222,2.86047778 C13.1763444,1.24314444 11.5347889,0.545477778 9.49478889,1.01992222 C8.2279,1.31458889 7.21078889,2.05225556 6.35145556,3.00392222 C4.62823333,4.91247778 3.68512222,7.1947 3.21156667,9.69103333 C2.82312222,11.7387 2.88945556,13.7415889 3.8729,15.6374778 C5.30712222,18.4018111 8.07523333,19.3159222 10.8702333,17.9460333 C12.2464556,17.2715889 13.2415667,16.1937 14.0093444,14.8954778 C15.3015667,12.7104778 15.8594556,10.3227 15.9259,7.80536667 L15.9259,7.80536667 Z M42.2222333,9.6667 C41.6030111,11.3417 40.3174556,12.3224778 38.6931222,12.8277 C37.4656778,13.2093667 36.1781222,13.3997 34.9150111,13.6639222 C34.6813444,13.7129222 34.4306778,13.7512556 34.1976778,13.7201444 C33.5180111,13.6293667 33.4233444,14.0177 33.3863444,14.5641444 C33.2661222,16.3443667 34.0663444,17.6392556 35.5640111,17.9585889 C36.5242333,18.1631444 37.4797889,18.0413667 38.2825667,17.4845889 C39.1372333,16.8918111 39.9042333,16.1722556 40.7094556,15.5080333 C40.6839,15.4582556 40.6585667,15.4083667 40.6330111,15.3585889 C40.7613444,15.4469222 40.8899,15.5352556 41.0121222,15.6194778 C39.9117889,18.1750333 37.1052333,19.8901444 34.5639,19.5722556 C33.0973444,19.3887 32.0800111,18.6021444 31.5133444,17.2351444 C31.4572333,17.0998111 31.3992333,16.9652556 31.3396778,16.8313667 C31.3331222,16.8167 31.3110111,16.8089222 31.3073444,16.8063667 C30.8497889,17.3834778 30.4230111,17.9878111 29.9279,18.5299222 C29.2973444,19.2203667 28.5395667,19.7031444 27.5396778,19.5884778 C26.7896778,19.5023667 26.3174556,19.0625889 26.3553444,18.3110333 C26.3931222,17.5624778 26.5342333,16.8077 26.7249,16.0805889 C27.2916778,13.9197 27.9065667,11.7715889 28.4969,9.61681111 C28.5452333,9.44036667 28.5609,9.25247778 28.5723444,9.0687 C28.6286778,8.17247778 28.1073444,7.78403333 27.3311222,8.25758889 C26.5335667,8.74414444 25.7935667,9.34958889 25.1060111,9.98681111 C24.0747889,10.9422556 23.1035667,11.9633667 22.1262333,12.9751444 C21.9592333,13.1481444 21.8337889,13.4024778 21.7824556,13.6393667 C21.3875667,15.4622556 21.0155667,17.2902556 20.6309,19.1442556 L18.4684556,19.1442556 C18.7403444,17.9874778 19.0126778,16.8464778 19.2765667,15.7034778 C19.7669,13.5791444 20.2552333,11.4543667 20.7385667,9.32847778 C20.9460111,8.4167 20.7367889,8.17758889 19.8072333,8.25025556 C19.5155667,8.27303333 19.2257889,8.31814444 18.9056778,8.35658889 C18.8343444,9.99336667 18.5319,11.5615889 17.8836778,13.0522556 C15.4732333,18.5957 9.96734444,20.3610333 5.74123333,19.4435889 C2.63412222,18.7690333 0.8629,16.7104778 0.252677778,13.6632556 C-0.896322222,7.92536667 2.93756667,1.86914444 8.60367778,0.401366667 C10.2615667,-0.0280777778 11.9373444,-0.0786333333 13.5987889,0.367144444 C16.4281222,1.12636667 18.4066778,3.49636667 18.7777889,6.51736667 C18.8203444,6.86447778 18.8635667,7.21147778 18.9191222,7.65914444 C20.4005667,7.24292222 21.8491222,6.83581111 23.3667889,6.40947778 C23.1524556,7.36536667 22.9461222,8.2937 22.7361222,9.22125556 C22.5729,9.94203333 22.3991222,10.6605889 22.2445667,11.3831444 C22.2091222,11.5489222 22.2331222,11.7274778 22.2296778,11.8999222 C22.2032333,11.8977 22.1767889,11.8954778 22.1502333,11.8933667 C22.1567889,11.9167 22.1633444,11.9399222 22.1697889,11.9631444 C22.1867889,11.9375889 22.2035667,11.9122556 22.2203444,11.8867 C22.8150111,11.2580333 23.3796778,10.5971444 24.0112333,10.0081444 C25.0376778,9.05103333 26.0649,8.0847 27.1779,7.23514444 C27.7292333,6.81425556 28.4487889,6.53858889 29.1343444,6.38481111 C30.3619,6.10914444 31.1682333,6.88758889 30.9187889,8.1207 C30.5825667,9.78347778 30.1307889,11.4233667 29.7167889,13.0702556 C29.3973444,14.3412556 29.0324556,15.6018111 28.7512333,16.8808111 C28.6882333,17.1668111 28.8903444,17.5108111 28.9703444,17.8281444 C29.2692333,17.7319222 29.6481222,17.7184778 29.8505667,17.5225889 C30.3112333,17.0769222 30.7023444,16.5544778 31.0827889,16.0345889 C31.1859,15.8937 31.1786778,15.6501444 31.1735667,15.4549222 C31.0751222,11.5947 34.1847889,7.42058889 37.9055667,6.52881111 C38.6200111,6.35758889 39.4122333,6.38492222 40.1507889,6.47147778 C41.1823444,6.59247778 41.8447889,7.26703333 42.2222333,8.22225556 L42.2222333,9.6667 Z" id="Fill-6" fill="#024A78" mask="url(#mask-4)"></path>
            </g>
            <path d="M0,28.1111111 C0.0387777778,28.0567778 0.101222222,28.007 0.112888889,27.9472222 C0.743666667,24.7295556 2.74344444,22.6033333 5.63477778,21.3203333 C9.65911111,19.5345556 13.8163333,19.1388889 18.0635556,20.5366667 C18.1328889,20.5595556 18.2002222,20.5888889 18.2671111,20.6183333 C18.2826667,20.6251111 18.2926667,20.6445556 18.3503333,20.7071111 C18.1345556,21.9164444 17.9116667,23.1654444 17.678,24.4748889 C17.4401111,24.3611111 17.2487778,24.2716667 17.0593333,24.1783333 C14.1971111,22.7677778 10.605,23.146 8.47344444,25.1064444 C7.53777778,25.9668889 6.84222222,26.9832222 6.77211111,28.3034444 C6.70233333,29.6171111 7.27811111,30.6473333 8.44233333,31.1951111 C9.22388889,31.5626667 10.1265556,31.8395556 10.9795556,31.8524444 C12.5601111,31.8763333 14.1438889,31.6771111 15.7906667,31.5664444 C15.574,32.7642222 15.3394444,34.0602222 15.0893333,35.4425556 C13.4955556,35.5141111 11.9112222,35.5943333 10.3261111,35.6541111 C8.382,35.7274444 6.48788889,35.4407778 4.65977778,34.7754444 C3.14,34.2222222 1.75266667,33.4468889 0.853111111,32.0454444 C0.493888889,31.4857778 0.280111111,30.8327778 0,30.2222222 L0,28.1111111 Z" id="Fill-9" fill="#024A78"></path>
            <path d="M39.3336556,30.2050778 C39.3268778,31.3437444 39.8549889,31.9716333 40.9593222,32.1379667 C43.0489889,32.4527444 44.8177667,30.6585222 44.5034333,28.5469667 C44.3777667,27.7029667 43.8942111,27.1905222 43.0788778,26.9775222 C41.1011,26.4609667 39.3468778,27.9731889 39.3336556,30.2050778 M38.7865444,34.1281889 C38.4744333,35.9055222 38.1843222,37.5578556 37.8923222,39.2205222 L32.5184333,39.2205222 C33.3997667,34.2629667 34.2752111,29.3391889 35.1574333,24.3769667 L39.9142111,24.3769667 C39.8247667,24.9104111 39.7352111,25.4446333 39.6257667,26.0974111 C40.7719889,25.0077444 42.0872111,24.4557444 43.5107667,24.3009667 C44.5616556,24.1867444 45.6777667,24.1774111 46.7009889,24.4063 C48.8405444,24.8848556 50.0892111,26.8973 49.8549889,29.1827444 C49.4693222,32.9480778 46.7059889,35.4914111 42.9249889,35.5534111 C42.4443222,35.5613 41.9595444,35.5673 41.4829889,35.5158556 C40.4637667,35.4059667 39.5397667,35.0679667 38.7865444,34.1281889" id="Fill-11" fill="#024A78"></path>
            <path d="M27.1923778,30.3682778 C26.0039333,30.5872778 24.8120444,30.7960556 23.6258222,31.0329444 C23.3426,31.0896111 23.0597111,31.2088333 22.8093778,31.3552778 C22.4298222,31.5771667 22.1713778,31.9581667 22.3401556,32.3712778 C22.4501556,32.6406111 22.7978222,32.9522778 23.0718222,32.9871667 C23.7178222,33.0695 24.4030444,33.0957222 25.0370444,32.9682778 C26.5403778,32.6661667 27.2313778,31.7702778 27.1923778,30.3682778 M32.6106,35.3836111 L26.7616,35.3836111 C26.7279333,34.9791667 26.6920444,34.5487222 26.6544889,34.0999444 C25.8776,34.4151667 25.1290444,34.7617222 24.3522667,35.0252778 C22.6112667,35.6159444 20.8216,35.5911667 19.0309333,35.3182778 C18.1234889,35.1799444 17.4366,34.6419444 16.9083778,33.9170556 C16.2750444,33.0480556 16.5160444,31.6787222 17.4620444,30.8037222 C18.2873778,30.0401667 19.3029333,29.6186111 20.3942667,29.4559444 C22.1679333,29.1917222 23.9546,29.0172778 25.7319333,28.7761667 C26.2213778,28.7097222 26.7034889,28.5618333 27.1771556,28.4138333 C27.6201556,28.2755 27.8166,27.9443889 27.7862667,27.4746111 C27.7563778,27.0105 27.4360444,26.7986111 27.0541556,26.7820556 C25.8762667,26.7307222 24.6878222,26.6402778 23.5186,26.7409444 C22.0540444,26.8670556 20.6044889,27.1678333 19.1028222,27.4002778 C19.4304889,26.5202778 19.7490444,25.6430556 20.0913778,24.7752778 C20.1311556,24.6745 20.2960444,24.5782778 20.4151556,24.5600556 C23.2934889,24.1205 26.1876,23.8382778 29.0986,24.0271667 C30.0044889,24.0859444 30.9244889,24.3258333 31.7812667,24.6385 C32.7654889,24.9973889 33.2740444,25.7959444 33.1116,26.8760556 C32.8614889,28.5390556 32.5639333,30.1948333 32.2809333,31.8528333 C32.1659333,32.5271667 32.0534889,33.2026111 31.9080444,33.8706111 C31.7767111,34.4739444 32.0097111,34.9307222 32.6106,35.3836111" id="Fill-13" fill="#024A78"></path>
            <path d="M76.2804889,30.3855222 C75.2858222,30.5626333 74.3189333,30.7128556 73.3626,30.9138556 C72.8440444,31.0228556 72.2992667,31.1421889 71.8521556,31.4035222 C71.5920444,31.5555222 71.3901556,31.9927444 71.3747111,32.3119667 C71.3643778,32.5237444 71.6878222,32.8623 71.9342667,32.9585222 C73.9433778,33.7434111 76.0230444,32.4941889 76.2804889,30.3855222 M68.1689333,27.4270778 C68.5007111,26.5157444 68.8120444,25.6366333 69.1494889,24.7675222 C69.1882667,24.6678556 69.3661556,24.5806333 69.4907111,24.5620778 C72.2944889,24.1431889 75.1131556,23.8450778 77.9477111,24.0279667 C78.9428222,24.0920778 79.9589333,24.3399667 80.8937111,24.6936333 C81.9527111,25.0944111 82.3361556,25.9514111 82.1526,27.0725222 C81.8121556,29.1510778 81.4499333,31.2260778 81.0813778,33.2998556 C80.9517111,34.0295222 80.6698222,34.7703 81.5942667,35.3009667 C81.5468222,35.3273 81.4996,35.3535222 81.4521556,35.3797444 L75.7918222,35.3797444 L75.7918222,34.0287444 C75.5498222,34.1415222 75.3918222,34.2061889 75.2419333,34.2861889 C72.9994889,35.4850778 70.6160444,35.7358556 68.1371556,35.3441889 C67.2041556,35.1967444 66.5039333,34.6749667 65.9654889,33.9317444 C65.2961556,33.0078556 65.6238222,31.5081889 66.6747111,30.6719667 C67.6891556,29.8647444 68.8874889,29.4994111 70.1478222,29.3357444 C71.7241556,29.1309667 73.3074889,28.9799667 74.8836,28.7726333 C75.3541556,28.7108556 75.8151556,28.5539667 76.2716,28.4117444 C76.7033778,28.2774111 76.8693778,27.9311889 76.8523778,27.5063 C76.8346,27.0620778 76.5259333,26.8106333 76.1348222,26.7907444 C74.9942667,26.7327444 73.8413778,26.6289667 72.7109333,26.7339667 C71.2809333,26.8667444 69.8683778,27.1879667 68.4480444,27.4256333 C68.3791556,27.4371889 68.3066,27.4270778 68.1689333,27.4270778" id="Fill-15" fill="#024A78"></path>
            <path d="M63.4028333,35.3703333 L57.9062778,35.3703333 C58.4488333,32.4048889 58.9861667,29.4682222 59.5351667,26.4667778 L57.4845,26.4667778 C57.6308333,25.6797778 57.7642778,24.9615556 57.9028333,24.217 L60.0142778,24.217 C60.1255,23.5727778 60.2159444,22.952 60.3496111,22.3406667 C60.3852778,22.1776667 60.5303889,21.9425556 60.6645,21.9117778 C62.4096111,21.5118889 64.1618333,21.1426667 65.9126111,20.7677778 C65.9448333,20.7608889 65.9827222,20.78 66.0743889,20.7981111 C65.8860556,21.9145556 65.6972778,23.0328889 65.5001667,24.2014444 L68.2700556,24.2014444 C68.0938333,24.9697778 67.9317222,25.6768889 67.7572778,26.4376667 L65.0493889,26.4376667 C64.4956111,29.4417778 63.9512778,32.3952222 63.4028333,35.3703333" id="Fill-17" fill="#024A78"></path>
            <path d="M84.9529111,19.9797667 L90.3656889,19.9797667 C90.1899111,21.0382111 90.0355778,21.9988778 89.8700222,22.9575444 C89.1778,26.9654333 88.4855778,30.9731 87.7762444,34.9778778 C87.7480222,35.1374333 87.5492444,35.3895444 87.4265778,35.3915444 C85.7080222,35.4188778 83.9889111,35.4101 82.1838,35.4101 C83.1145778,30.2234333 84.0366889,25.0855444 84.9529111,19.9797667" id="Fill-19" fill="#024A78"></path>
            <path d="M57.0127,24.3030556 C56.7390333,25.8742778 56.4768111,27.4006111 56.2065889,28.9257222 C55.8484778,30.9459444 55.4902556,32.9662778 55.1107,34.9823889 C55.0803667,35.1433889 54.8854778,35.3968333 54.7637,35.3987222 C53.0818111,35.4262778 51.3992556,35.4173889 49.6137,35.4173889 C50.2732556,31.6822778 50.9232556,28.0006111 51.5761444,24.3030556 L57.0127,24.3030556 Z" id="Fill-21" fill="#024A78"></path>
            <path d="M90.4596333,34.6730667 C90.7694111,35.3712889 91.0667444,36.0414 91.3837444,36.7559556 C90.0656333,37.4784 88.7453,38.2155111 87.4128556,38.9300667 C82.0099667,41.8275111 76.6034111,44.7179556 71.1980778,47.6107333 C71.0841889,47.6717333 70.9741889,47.7540667 70.8523,47.7817333 C70.7456333,47.8059556 70.6247444,47.7674 70.5101889,47.7565111 C70.5618556,47.6405111 70.5815222,47.4790667 70.6706333,47.4165111 C71.0029667,47.1838444 71.3581889,46.9839556 71.7043,46.7709556 C77.9365222,42.9346222 84.1483,39.0669556 90.1447444,34.8652889 C90.2474111,34.7934 90.3590778,34.7341778 90.4596333,34.6730667" id="Fill-23" fill="#CF3128"></path>
            <path d="M54.4523667,23.4811222 C53.8102556,23.2796778 53.1235889,23.1636778 52.5368111,22.8565667 C51.6815889,22.4089 51.6574778,21.5381222 52.3927,20.9021222 C53.4867,19.9559 55.8351444,19.7710111 57.0612556,20.5344556 C57.9080333,21.0617889 57.9887,21.8395667 57.2341444,22.4875667 C56.4497,23.1612333 55.4929222,23.3385667 54.4523667,23.4811222" id="Fill-25" fill="#024A78"></path>
            <path d="M113.331489,31.6645 C113.314711,31.6899444 113.297822,31.7153889 113.280933,31.7408333 C113.274378,31.7177222 113.267933,31.6945 113.261378,31.6711667 C113.287822,31.6732778 113.314378,31.6755 113.340822,31.6777222 C113.340822,31.6778333 113.331489,31.6645 113.331489,31.6645" id="Fill-31" fill="#FEFEFE"></path>
        </g>
    </g>
</svg>