<?xml version="1.0" encoding="UTF-8"?>
<svg width="155px" height="155px" viewBox="0 0 155 155" version="1.1" xmlns="http://www.w3.org/2000/svg" xmlns:xlink="http://www.w3.org/1999/xlink">
    <title>chase</title>
    <g id="chase" stroke="none" stroke-width="1" fill="none" fill-rule="evenodd">
        <g id="Group-24" transform="translate(36.000000, 36.000000)">
            <path d="M80.7060852,23.4279941 L26.8322745,23.4279941 C26.8035787,23.1905269 26.751908,22.9620499 26.751908,22.7335729 C26.7476399,16.2563037 26.7467318,9.77903457 26.7539966,3.30176543 C26.7543598,2.94179606 26.7952242,2.57383545 26.8770437,2.2234919 C27.1558292,1.02989015 28.1506487,0.17637046 29.3793938,0.0610422319 C29.7399988,0.0271702407 30.1045995,0.02735186 30.4675655,0.0272610503 C38.7608456,0.0255356674 47.0541257,0.0338901532 55.3474058,0.0112657789 C56.0390119,0.00937155361 56.5261148,0.220867177 57.0197559,0.691079431 C64.7556465,8.06037155 72.5071563,15.4132271 80.2584846,22.7661735 C80.4321126,22.9309022 80.6468774,23.0524055 80.8423905,23.1940685 C80.7969857,23.272074 80.75149,23.3500794 80.7060852,23.4279941" id="Fill-14" fill="#127BCA"></path>
            <path d="M56.2382119,59.5356457 L56.2382119,60.4791578 C56.2382119,66.7430243 56.2383027,73.0068908 56.2380303,79.2707573 C56.2379395,79.4825254 56.2445686,79.6951107 56.2300391,79.9059707 C56.0992732,81.7960823 54.9459001,82.8976939 53.047434,82.8992376 C44.4838137,82.90623 35.9201025,82.8980571 27.3564822,82.9139522 C26.8523979,82.9148569 26.5104997,82.736416 26.1636069,82.4062322 C20.7730566,77.2728547 15.3741518,72.1482858 9.97669989,67.0219915 C7.62908939,64.7922519 5.28093403,62.5629663 2.93187057,60.3347705 C2.69322287,60.1084729 2.44612987,59.8911654 2.16934212,59.6390779 C2.88719223,59.425312 54.2669165,59.3401326 56.2382119,59.5356457" id="Fill-16" fill="#127BCA"></path>
            <path d="M23.4062724,56.197502 L22.4064584,56.197502 C16.1431368,56.197502 9.87972429,56.197502 3.61631182,56.1972295 C3.37430416,56.1972295 3.13157002,56.2050392 2.89028884,56.1901464 C1.32654705,56.093979 0.181619256,54.9827416 0.0395929978,53.418909 C0.0149835886,53.1485687 0.0232472648,52.8747777 0.0232472648,52.6025304 C0.0237013129,44.2514046 0.0316925602,35.9002788 0.0128865956,27.549153 C0.0114420131,26.9245643 0.199054705,26.4848641 0.624770241,26.0377175 C7.98834136,18.3011004 15.3366565,10.5499538 22.689512,2.80316608 C22.8895656,2.59248775 23.1042396,2.3958849 23.4062724,2.10057199 L23.4062724,56.197502 Z" id="Fill-18" fill="#127ACA"></path>
            <path d="M59.5938184,26.7495989 L60.5161718,26.7495989 C66.8101871,26.7495989 73.1041116,26.7495989 79.3981269,26.7504187 C79.6702834,26.7505095 79.9433479,26.7495989 80.2145963,26.7685806 C81.5707473,26.8643848 82.6026171,27.751504 82.8754092,29.0880402 C82.9531422,29.469259 82.9670361,29.8687305 82.9671269,30.2597568 C82.9689431,38.6416671 82.9586816,47.0234865 82.9740335,55.4053968 C82.9751182,55.9986561 82.7984026,56.4247349 82.3962976,56.8474537 C75.0123851,64.6074089 67.6391882,72.3776255 60.2697144,80.1511113 C60.088186,80.3426288 59.9740383,80.5979854 59.8282888,80.8234658 C59.7501926,80.7678903 59.6719147,80.7123148 59.5938184,80.6566485 L59.5938184,26.7495989 Z" id="Fill-20" fill="#127ACA"></path>
        </g>
    </g>
</svg>