<?xml version="1.0" encoding="UTF-8"?>
<svg width="155px" height="155px" viewBox="0 0 155 155" version="1.1" xmlns="http://www.w3.org/2000/svg" xmlns:xlink="http://www.w3.org/1999/xlink">
    <title>citi</title>
    <g id="citi" stroke="none" stroke-width="1" fill="none" fill-rule="evenodd">
        <g id="Group-8" transform="translate(28.500000, 46.000000)">
            <path d="M29.8092144,50.7194242 C31.2821857,52.5015185 32.760985,54.2908361 34.2770497,56.1250528 C33.8141041,56.6282188 33.369545,57.1427122 32.8923171,57.6248652 C30.2574672,60.2867202 27.1300399,62.0353248 23.4037383,62.5929116 C20.1233091,63.0838473 16.8690643,62.8505687 13.714796,61.8305288 C6.29543621,59.4313379 1.81159475,54.3926184 0.477671201,46.6849848 C-0.279458255,42.3098206 0.0920473734,38.0032774 1.91304878,33.910231 C4.14003049,28.9045087 7.97788227,25.6237512 13.123227,23.8894289 C17.1594723,22.5290748 21.282561,22.2397338 25.431834,23.3831438 C28.7626618,24.3009909 31.4557903,26.2314904 33.7308724,28.7876231 C33.8854339,28.9612277 34.0374508,29.1369665 34.1894676,29.3128694 C34.2069512,29.3330617 34.2163907,29.3601489 34.255462,29.430822 C32.7834756,31.2122596 31.2990947,33.0087183 29.7898429,34.8353834 C29.4148077,34.4857118 29.0639048,34.1474496 28.7013462,33.8224027 C26.8128729,32.1288755 24.6753612,30.8858994 22.151651,30.464898 C16.3852697,29.5030546 10.3196154,32.5336245 8.62329737,39.1388895 C7.612697,43.0742554 8.06177064,46.8667976 10.4092495,50.2775739 C12.4469489,53.2382915 15.3517683,54.7935096 18.9032341,55.1556578 C22.967962,55.5701747 26.2887758,53.9886902 29.1757833,51.272989 C29.3550516,51.1042273 29.5287383,50.9296377 29.7068574,50.7595626 C29.7241768,50.743064 29.7545474,50.7401091 29.8092144,50.7194242" id="Fill-3" fill="#014685"></path>
            <path d="M60.4761011,23.3882985 C60.4761011,20.9057118 60.4885776,18.4980664 60.4648558,16.0909135 C60.4604233,15.6408548 60.5816592,15.3981367 60.9939599,15.1829984 C63.2812723,13.9890256 65.5498698,12.7591006 67.825034,11.5419805 C67.9422479,11.4793515 68.0617601,11.4208267 68.2429984,11.3282376 L68.2429984,23.3653154 L76.3060495,23.3653154 L76.3060495,30.6650809 L68.2548182,30.6650809 L68.2548182,31.133526 C68.2548182,37.7428131 68.2461175,44.3521822 68.2663919,50.9613872 C68.2688544,51.7461785 68.3425645,52.5524754 68.5353764,53.3100973 C68.8878389,54.6951583 69.8938426,55.4428483 71.3233924,55.5627709 C73.1711527,55.7177427 74.8659932,55.2011972 76.491474,54.3927662 C77.0869008,54.0966944 77.6599191,53.7554773 78.2889998,53.4097455 C77.9473722,54.7593469 77.6175645,56.0661832 77.2855406,57.3724449 C77.0198394,58.4176841 76.7638239,59.4657141 76.4728412,60.5038121 C76.4182563,60.698512 76.2549941,60.9148816 76.080815,61.0160894 C73.4706719,62.5322362 70.6374285,63.0296564 67.7000223,62.4953811 C64.0387301,61.8293633 61.9030242,59.435754 60.9052287,55.9433877 C60.5689364,54.766406 60.4719149,53.5549496 60.473064,52.3310987 C60.4793844,45.2838192 60.4761011,38.2366217 60.4761011,31.1895063 L60.4761011,30.6733712 L53.7816123,30.6733712 L53.7816123,23.3882985 L60.4761011,23.3882985 Z" id="Fill-4" fill="#014685"></path>
            <path d="M33.5805629,17.0610061 C40.3417847,6.92036351 52.9651782,-0.318825047 66.7127744,0.16587242 C80.9667378,0.668463884 92.0152955,8.96339822 97.2784287,17.0610061 L96.8593973,17.0610061 C94.1095497,17.0610061 91.359538,17.0569841 88.6096083,17.0672533 C88.3270802,17.0682294 88.1327908,16.9877064 87.9333302,16.7856191 C83.7098546,12.5066557 78.7320403,9.4936515 72.8724953,8.07928705 C64.0460765,5.94875235 55.8238673,7.46998827 48.2245005,12.4103729 C46.2793902,13.6749367 44.5215103,15.1722866 42.8939775,16.8250188 C42.7823452,16.9384568 42.6019278,17.0504995 42.4529479,17.0511562 C39.5120122,17.0643715 36.5709944,17.0610061 33.5805629,17.0610061" id="Fill-5" fill="#ED1D25"></path>
            <polygon id="Fill-6" fill="#014685" points="38.8389189 62.0436562 46.7318129 62.0436562 46.7318129 23.3515009 38.8389189 23.3515009"></polygon>
            <polygon id="Fill-7" fill="#014685" points="84.4183748 62.0559686 92.3145521 62.0559686 92.3145521 23.3420614 84.4183748 23.3420614"></polygon>
        </g>
    </g>
</svg>