<?xml version="1.0" encoding="UTF-8"?>
<svg width="155px" height="155px" viewBox="0 0 155 155" version="1.1" xmlns="http://www.w3.org/2000/svg" xmlns:xlink="http://www.w3.org/1999/xlink">
    <title>First Republic</title>
    <defs>
        <polygon id="path-1" points="0 0 82.7568998 0 82.7568998 82.9999262 0 82.9999262"></polygon>
    </defs>
    <g id="First-Republic" stroke="none" stroke-width="1" fill="none" fill-rule="evenodd">
        <g id="Group-6" transform="translate(36.000000, 36.000000)">
            <mask id="mask-2" fill="white">
                <use xlink:href="#path-1"></use>
            </mask>
            <g id="Clip-5"></g>
            <path d="M61.8906653,41.4416418 C61.8596787,44.3248773 64.0571498,46.5891173 66.9319009,46.6344907 C69.863092,46.6809707 72.2472209,44.3510684 72.2265631,41.4600862 C72.2062742,38.638824 69.8977676,36.3690507 67.0451498,36.3653571 C64.146052,36.3616729 61.921652,38.5521351 61.8906653,41.4416418 L61.8906653,41.4416418 Z M10.6453587,41.384464 C10.5885498,44.286144 12.7598298,46.5743618 15.6272031,46.6337529 C18.5871676,46.6953573 20.9867898,44.4100907 20.9908551,41.5257484 C20.9956431,38.7059618 18.698572,36.3985618 15.8562831,36.3668373 C12.9527587,36.3343751 10.7017987,38.5019662 10.6453587,41.384464 L10.6453587,41.384464 Z M46.5759006,15.8259973 C46.5847276,12.9597307 44.362172,10.6862684 41.5132431,10.6471662 C38.605292,10.6073262 36.1787409,12.9516151 36.1787409,15.8009129 C36.178372,18.6664418 38.588692,21.0306507 41.4811498,21.0022462 C44.3038876,20.9745796 46.566652,18.6752951 46.5759006,15.8259973 L46.5759006,15.8259973 Z M41.2491187,72.3416196 C44.1471098,72.4135529 46.4840209,70.2592418 46.5755053,67.4313396 C46.6721542,64.4525618 44.5064076,62.1071662 41.5589853,61.9979751 C38.7074742,61.8924729 36.2278031,64.2548373 36.1791098,67.1222107 C36.1322609,69.9017884 38.4341276,72.2715307 41.2491187,72.3416196 L41.2491187,72.3416196 Z M67.4671587,57.8509262 C64.0106698,56.7634418 60.689932,55.7183796 57.5739276,54.7378729 C56.5436209,55.6497662 55.3591187,56.6974107 54.594412,57.3739529 C55.6962831,60.9551262 56.7184742,64.2766018 57.7591098,67.6567307 C61.6829809,65.1287351 65.1295098,61.8732907 67.4671587,57.8509262 L67.4671587,57.8509262 Z M57.313492,28.3150996 C60.8574076,27.2191307 64.1268698,26.208744 67.5195409,25.159624 C65.0450342,21.1774684 61.7095409,17.7600818 57.7819809,15.4109973 C56.7015053,18.8254329 55.6509098,22.1454329 54.6239231,25.3916551 C55.4716298,26.3131396 56.5425142,27.476984 57.313492,28.3150996 L57.313492,28.3150996 Z M28.2251276,25.6000773 C27.1206742,22.0605884 26.0966387,18.7782151 25.0419853,15.3969796 C21.0609364,17.8692729 17.6321142,21.1770996 15.3645542,25.1452373 C18.7974342,26.2242373 22.0775942,27.2552818 25.5362964,28.3423973 C26.3091187,27.5544507 27.4187364,26.4226996 28.2251276,25.6000773 L28.2251276,25.6000773 Z M15.4007053,57.8225218 C17.1591987,61.3561084 22.4475898,66.5559662 25.0818253,67.4486773 C26.115452,64.1703618 27.1520298,60.8835618 28.2457853,57.4152684 C27.463372,56.6228951 26.311332,55.4568373 25.5222787,54.657824 C22.0340653,55.7486284 18.755012,56.7737707 15.4007053,57.8225218 L15.4007053,57.8225218 Z M34.5670653,11.3299796 C33.0192076,11.8534329 31.2496476,12.4927173 29.4524209,13.0438373 C28.3420653,13.3843218 27.9768653,14.0450018 27.9292787,15.1907707 C27.6146164,22.7441396 33.3279676,28.9772551 40.9647053,29.2273618 C45.3718209,29.3719662 48.9146298,31.0563129 51.4990653,34.6658907 C51.725932,34.9827662 51.9646031,35.2911573 52.1955276,35.6002862 C53.382612,33.7639573 54.5025587,32.0312862 55.6177098,30.3059929 C52.3139409,25.9062551 47.333572,23.4324862 41.4523764,23.2591084 C37.8025898,23.1517618 34.7990964,21.0509396 34.2258431,17.639824 C33.8990076,15.6924596 34.4143453,13.6034418 34.5670653,11.3299796 L34.5670653,11.3299796 Z M71.8123009,35.5656107 C71.0206653,33.2050907 70.3629364,31.3694996 69.7952164,29.5066107 C69.4488298,28.370064 68.7438831,28.0439662 67.6091809,28.0089218 C60.0137587,27.7768907 53.8765542,33.4891351 53.5781231,41.324704 C53.405852,45.8535529 51.5709987,49.339184 47.8455898,51.8697618 C47.668892,51.9896507 47.5242876,52.1563884 47.3365231,52.3268151 C49.1411276,53.5017262 50.8184653,54.5940062 52.5264209,55.7058373 C52.5931898,55.6873929 52.7226698,55.6785396 52.8211631,55.6184107 C52.9764653,55.5228684 53.1166431,55.3989218 53.2542387,55.2768196 C57.2212698,51.7509796 59.3774253,47.3523484 59.5286698,42.0333396 C59.594332,39.7196684 60.1867676,37.6365529 61.9463676,36.0709884 C64.839932,33.4965129 68.0127453,33.436384 71.8123009,35.5656107 L71.8123009,35.5656107 Z M30.1536787,27.2062196 C25.6583987,30.9758951 23.3561631,35.7087396 23.2263142,41.5132062 C23.1348298,45.6004951 20.0641987,48.8987307 16.0783542,48.9367262 C14.5574253,48.9514818 13.0305942,48.3612596 11.1924209,47.9816729 C11.819532,49.8552596 12.4757853,51.6738818 13.0298564,53.5234907 C13.3777187,54.6836462 14.1188164,54.9558862 15.2321231,54.9883484 C22.7836476,55.2085751 28.9499942,49.4557529 29.1949364,41.8455751 C29.3174076,38.0327396 30.6055676,34.7795084 33.5083542,32.2404462 C34.1295631,31.6970729 34.8042609,31.2149351 35.484492,30.6815218 C33.6691898,29.4981262 31.9940653,28.4058462 30.1536787,27.2062196 L30.1536787,27.2062196 Z M47.5287142,71.8790329 C49.6413409,71.1910551 51.3581498,70.5864462 53.1029942,70.0784862 C54.5191587,69.6664373 54.9555542,68.7681929 54.9627223,67.3509218 C54.9976076,60.0878684 49.2440476,54.0093173 41.9573853,53.7669573 C38.5119631,53.6526018 35.4184609,52.7244773 32.9542831,50.2116062 C32.1106342,49.3513573 31.3794964,48.3804418 30.5878609,47.4486284 C29.4395098,49.2281484 28.3291542,50.9486462 27.1627276,52.7565707 C30.7859542,57.2038951 35.4575631,59.4057929 41.1657498,59.8034551 C42.8500964,59.9211307 44.7100342,60.494384 46.0867276,61.4435351 C49.1451853,63.5513662 49.5963364,67.141024 47.5287142,71.8790329 L47.5287142,71.8790329 Z M41.4848387,51.3761884 C46.9919809,51.3400373 51.3463453,46.8783262 51.2828964,41.3365084 C51.2209231,35.9282284 46.7935187,31.603744 41.3391276,31.6239618 C35.8249764,31.6446907 31.543652,36.0411084 31.5649677,41.6614996 C31.5853364,47.0612951 36.0271276,51.4112329 41.4848387,51.3761884 L41.4848387,51.3761884 Z M51.9826787,3.81681956 C53.0742209,5.20347289 53.9060653,6.10909511 54.5567853,7.13017956 C55.2108253,8.15679733 55.8405187,9.250184 56.1950209,10.402224 C56.5860431,11.673784 57.3182876,12.4097173 58.4197898,13.111344 C68.7682298,19.701544 74.2074964,29.130344 74.4635053,41.4368462 C74.5247409,44.3680373 73.1687053,46.6514596 70.5510698,48.0399573 C67.1812698,49.827224 64.1589631,49.0016507 61.4122164,46.5596062 C60.5984476,48.5150862 59.8130831,50.4012151 58.9959942,52.3644418 C63.4204476,55.2679662 67.9710609,55.9253262 72.698372,53.6754729 C77.4662609,51.4064373 80.3148209,47.5260951 80.4004031,42.2336462 C80.6154653,28.927824 75.1736164,18.237424 64.7086076,10.1008418 C61.0569764,7.26113511 56.9530876,5.25364178 51.9826787,3.81681956 L51.9826787,3.81681956 Z M30.2506964,78.9941618 C28.9747098,76.7435707 27.7913142,74.5520018 26.4976209,72.4272018 C25.9623631,71.5477707 25.338572,70.583864 24.5048831,70.0456551 C14.2641587,63.432584 8.72492311,54.1542907 8.36894533,41.9005396 C8.27450978,38.645464 9.66042533,36.1676373 12.6299809,34.7662284 C15.5183809,33.403184 18.2400431,33.8716729 20.7049587,35.8913396 C20.9214964,36.0687751 21.1745542,36.2023129 21.4467942,36.3801173 C22.260932,34.4076684 23.0201053,32.5694951 23.8106342,30.6538551 C19.229772,27.5843307 14.5050431,27.0472284 9.65415422,29.5556729 C4.731332,32.101744 2.21919867,36.3601973 2.33244756,41.8378284 C2.58070978,53.8506951 7.32351422,63.8427884 16.5084787,71.6374107 C20.571052,75.0850462 25.1814253,77.5577084 30.2506964,78.9941618 L30.2506964,78.9941618 Z M46.7178964,21.5625884 C48.5151231,22.3195484 50.3138253,23.0768773 52.2479098,23.8910151 C55.1466387,19.558784 55.9006476,14.9793973 53.6246031,10.1687173 C51.1504653,4.93971733 46.8241364,2.16751733 41.1129987,2.36229067 C25.0176387,2.91082844 13.3216476,10.5671173 6.02465644,24.900664 C5.13268311,26.6525173 4.57639867,28.5755351 3.92715422,30.2576684 C6.54589644,28.8942551 9.08754089,27.6090462 11.5830742,26.2397307 C12.0677942,25.9733929 12.3828253,25.3868596 12.7583542,24.9331262 C15.096372,22.1089129 17.1459187,18.9707751 19.8222076,16.5165573 C25.7450876,11.0854062 32.9362076,8.47957511 40.9861009,8.370384 C46.2372342,8.29918844 49.8851764,12.6594551 48.6276342,17.6103129 C48.2782964,18.9866373 47.3818964,20.2238907 46.7178964,21.5625884 L46.7178964,21.5625884 Z M30.5812209,59.1162151 C27.5666609,63.5362418 26.9491409,68.2240818 29.292692,73.0410329 C31.7815853,78.1571529 36.1042253,80.7744196 41.7615053,80.6453084 C54.9739987,80.3435573 65.5087276,74.7209529 73.3155231,64.0807218 C75.935372,60.5102462 77.834412,56.5494862 78.8245098,52.6842684 C76.449972,53.9580418 73.8747587,55.3078062 71.3390164,56.7276596 C70.8495009,57.001744 70.483932,57.5259351 70.112092,57.9759796 C67.7773942,60.8027751 65.7433409,63.9527173 63.0733231,66.4132062 C57.1120787,71.9059618 49.866732,74.5435173 41.746012,74.6261484 C36.8851631,74.6755796 33.3239098,70.8745484 34.046932,66.2022018 C34.305892,64.5300284 35.3291898,62.9755307 35.995772,61.3859884 C34.385572,60.7109218 32.5887142,59.9576507 30.5812209,59.1162151 L30.5812209,59.1162151 Z M45.0044076,-7.37777773e-05 C48.449092,0.825499556 51.9878431,1.37588178 55.3218609,2.52275733 C72.0203542,8.26635733 83.2969187,24.791104 82.7369453,42.4284196 C82.0677809,63.5041484 67.084252,79.932984 46.0347142,82.681944 C45.6831631,82.7280551 45.3474742,82.891104 45.0044076,82.9999262 L37.9955187,82.9999262 C37.5244476,82.8829884 37.0592787,82.7262107 36.5811987,82.6546462 C19.5794787,80.1085751 8.10223867,70.7321573 2.24243867,54.6150329 C1.12654978,51.5455084 0.728887556,48.2144418 -3.68888891e-05,45.0043707 L-3.68888891e-05,37.9954818 C0.122065333,37.4705529 0.282163111,36.9515262 0.361105333,36.4203262 C2.71350978,20.5654818 11.2621409,9.37597511 25.9678964,3.13326844 C29.7405231,1.53192178 33.973892,1.01510844 37.9955187,-7.37777773e-05 L45.0044076,-7.37777773e-05 Z" id="Fill-4" fill="#000000" mask="url(#mask-2)"></path>
        </g>
    </g>
</svg>