<?xml version="1.0" encoding="UTF-8"?>
<svg width="155px" height="155px" viewBox="0 0 155 155" version="1.1" xmlns="http://www.w3.org/2000/svg" xmlns:xlink="http://www.w3.org/1999/xlink">
    <title>Svb</title>
    <g id="Svb" stroke="none" stroke-width="1" fill="none" fill-rule="evenodd">
        <g id="Group-121" transform="translate(35.500000, 49.500000)">
            <path d="M13.1760206,36.2101238 L13.1760206,36.5428184 C13.1760206,37.9633741 13.2201458,39.3858384 13.1562483,40.8034168 C13.1270096,41.452011 13.362293,41.7334807 13.9217971,41.9797572 C15.7614656,42.7895839 17.6861781,43.1506011 19.680132,43.191978 C21.1680206,43.2228198 22.6362895,43.0825812 24.0468446,42.5656754 C25.8431513,41.9074622 27.1489663,40.7479168 27.7545041,38.8907662 C28.1277359,37.7459546 28.1431568,36.5705303 28.031088,35.3841891 C27.8138975,33.084718 26.7271816,31.3903267 24.6123033,30.3837689 C23.4939058,29.8515186 22.3019154,29.5510399 21.122674,29.2049092 C20.2274216,28.9421431 19.3385818,28.6569326 18.5589099,28.119262 C17.6213645,27.472729 17.3653164,26.5534292 17.5273122,25.480989 C17.6774752,24.4870275 18.2769058,23.8492737 19.2069697,23.5457414 C20.4654532,23.1350261 21.7290516,23.2000688 22.9797483,23.6189525 C23.1776245,23.6852166 23.2725165,23.8027056 23.3206114,24.0131018 C23.5235261,24.9023996 23.753771,25.7853611 23.9607318,26.6738191 C24.0006582,26.8450523 24.0715028,26.8945977 24.2408274,26.8932999 C25.1847854,26.8859711 26.1287435,26.8901699 27.0727015,26.888414 C27.1277435,26.8883377 27.1828618,26.8709319 27.2477517,26.8599388 C27.2477517,25.2150165 27.2381327,23.5865839 27.2564546,21.9584567 C27.2598136,21.6606499 27.1601884,21.5271293 26.9019264,21.4080371 C25.4746527,20.7499003 23.9639381,20.4478184 22.4097854,20.3367421 C20.9186142,20.2300935 19.4298858,20.2267345 17.9723047,20.6295103 C16.1715702,21.1271018 14.7200963,22.0871678 13.8666788,23.8067517 C13.2686224,25.0117201 13.1638824,26.2962359 13.3027469,27.6122043 C13.5123796,29.5985241 14.4348095,31.1339732 16.1771431,32.1554938 C17.1969842,32.7534739 18.3061444,33.117163 19.4336265,33.4390935 C20.4353748,33.7250674 21.4386499,34.008064 22.3332153,34.5701637 C23.0485316,35.0195839 23.4933714,35.6525282 23.5866602,36.4960977 C23.6299457,36.8884147 23.6315488,37.2914195 23.5982641,37.6850344 C23.5016162,38.8264106 22.9125681,39.5726451 21.8126451,39.8819794 C20.5442373,40.2387215 19.265218,40.1997875 17.9866568,39.8799945 C17.4480702,39.7453287 17.1732421,39.4747758 17.094,38.8917586 C16.9717015,37.9919257 16.7434415,37.1065213 16.5591541,36.2101238 L13.1760206,36.2101238 Z M29.64326,23.8942387 C30.1380268,23.9777558 30.6231747,24.0770757 31.1132847,24.1354003 C31.3852882,24.1677689 31.5127015,24.275868 31.602784,24.5410007 C33.6248315,30.4903411 35.6587882,36.4357118 37.6844237,42.3839072 C37.7564897,42.5955248 37.8520688,42.6710261 38.0819319,42.6689649 C39.4130158,42.6567503 40.7444051,42.6554525 42.075489,42.6696382 C42.3293232,42.6722476 42.4307043,42.5896465 42.5112442,42.3542105 C44.5087098,36.5115186 46.5210619,30.6737889 48.5060839,24.8268982 C48.653575,24.3925172 48.8485502,24.2119704 49.2940007,24.1833425 C49.7624298,24.1532641 50.2257442,24.0433329 50.6793631,23.9702744 L50.6793631,20.9964821 L42.4156651,20.9964821 L42.4156651,23.894773 C43.1804505,23.9991314 43.9268377,24.1010468 44.6949821,24.2059395 C44.6639876,24.3210619 44.6407799,24.4154195 44.6133735,24.508403 C44.1026513,26.2386747 43.5778824,27.9648239 43.0837263,29.6997524 C42.3942132,32.1205296 41.7173728,34.5450475 41.0580144,36.9742221 C40.8912854,37.5884629 40.8116616,38.2263693 40.6755454,38.9400062 C40.6328707,38.8006836 40.6097393,38.7418246 40.596914,38.6807517 C40.3465915,37.4876162 40.1768851,36.2707387 39.832663,35.105315 C38.9259594,32.0354092 37.9434491,28.9879477 36.9915516,25.9313253 C36.8219979,25.3868604 36.6548872,24.841632 36.4824326,24.2833494 C37.2201933,24.1752503 37.922379,24.0723425 38.6136479,23.9710378 L38.6136479,20.9999175 L29.64326,20.9999175 L29.64326,23.8942387 Z M57.3789078,40.4962201 C57.409597,40.4749209 57.4402861,40.4535454 57.4709752,40.4322462 C57.5178487,40.5073659 57.5533473,40.593326 57.6133514,40.6558494 C58.2016362,41.2684869 58.8661857,41.7836369 59.6039464,42.2060323 C61.32124,43.189077 63.1568624,43.3731355 65.0776816,43.0458611 C67.2012627,42.6840041 68.7290014,41.5350702 69.6812043,39.6121135 C70.4553796,38.0488762 70.7725007,36.365478 70.9412146,34.6505509 C71.1312276,32.718815 71.1421444,30.7831857 70.9449553,28.850381 C70.782196,27.2547751 70.4825571,25.6890949 69.8086939,24.2189938 C69.1568171,22.7966059 68.2279746,21.6054553 66.7538274,20.9798398 C64.2840392,19.9317524 61.9015853,20.1815406 59.6654773,21.6493514 C59.058947,22.0474704 58.5225743,22.552467 57.9322283,23.0258583 L57.9322283,11.3829202 L50.5005722,11.3829202 C50.4918693,11.4356719 50.4803418,11.4730791 50.4802655,11.5105626 C50.4786623,12.3448184 50.481945,13.179227 50.4749006,14.0134828 C50.4734711,14.1824257 50.547293,14.2251768 50.6989828,14.2549498 C51.4855254,14.4092352 52.2694725,14.577033 53.0850248,14.7465867 L53.0850248,42.5388033 C53.146403,42.5576596 53.1741912,42.5736149 53.2019794,42.5736149 C54.3345763,42.5759051 55.4672497,42.5807909 56.5997703,42.5694161 C56.6787834,42.5686527 56.8019979,42.460859 56.8275722,42.3788686 C57.0221657,41.7547036 57.1975213,41.1245839 57.3789078,40.4962201 L57.3789078,40.4962201 Z M0,55.4330488 L0,0.0601568088 L83.0603686,0.0601568088 L83.0603686,55.4257964 L82.658738,55.4257964 C55.2344092,55.4257964 27.8101568,55.4257964 0.385828061,55.4260254 C0.25719326,55.4260254 0.128634801,55.4306059 0,55.4330488 L0,55.4330488 Z" id="Fill-1" fill="#0095DA"></path>
            <path d="M57.9396563,31.9196226 C57.9396563,33.8760931 57.9363737,35.8325635 57.9466034,37.7889576 C57.9473668,37.9282038 58.0090504,38.1091323 58.1076068,38.1992911 C59.0609548,39.0714122 60.1573661,39.6752705 61.4625704,39.788408 C63.2397918,39.9423881 64.449188,39.2932595 65.0374727,37.6736825 C65.2990937,36.9534803 65.4769686,36.1866336 65.5732347,35.425818 C65.8619569,33.1425312 65.8410394,30.8490146 65.6372086,28.5586281 C65.5490346,27.5680257 65.3795573,26.5907065 64.9324273,25.6851481 C64.4359046,24.6796591 63.6224899,24.1549665 62.5072987,24.0715257 C60.8338248,23.9463262 59.4134981,24.5198771 58.1676109,25.6041501 C58.0045463,25.7460683 57.933091,25.8876811 57.934148,26.1098338 C57.9437024,28.0463792 57.9396563,29.9830009 57.9396563,31.9196226 M57.3788544,40.4961666 C57.1975442,41.1245305 57.0221887,41.7547265 56.8275951,42.3788915 C56.8020208,42.4608819 56.6787299,42.5685992 56.5997932,42.569439 C55.4672726,42.5807375 54.3345992,42.575928 53.2019259,42.5736378 C53.1742141,42.5736378 53.1464259,42.5576825 53.0850477,42.5388262 L53.0850477,14.7465332 C52.2694954,14.5770559 51.4855483,14.4092581 50.6989294,14.2548964 C50.5473159,14.2251997 50.473494,14.1823723 50.4749235,14.0135057 C50.4819679,13.1792499 50.4786852,12.3448413 50.4802884,11.5105091 C50.4803647,11.4730257 50.4918922,11.4356948 50.5005951,11.3828668 L57.9321749,11.3828668 L57.9321749,23.0258812 C58.5225208,22.5524899 59.0589699,22.0474933 59.6655002,21.649298 C61.9015318,20.1814871 64.2840621,19.9317753 66.7538503,20.9798627 C68.2279975,21.6054782 69.15684,22.7966288 69.8087169,24.2189404 C70.4825036,25.6890415 70.7822189,27.254798 70.9449782,28.8504039 C71.1421673,30.7832086 71.1311742,32.7188379 70.9412375,34.6505738 C70.7725236,36.3655009 70.4554025,38.0488991 69.6812272,39.6121364 C68.7290243,41.5350931 67.2012856,42.684027 65.0776281,43.0458076 C63.156809,43.373082 61.3211866,43.1890999 59.6038929,42.2059789 C58.8661323,41.7836598 58.2016591,41.2685098 57.6133743,40.6558723 C57.5533702,40.5933489 57.5178716,40.5073124 57.4709218,40.4322691 C57.4402327,40.4535683 57.4096199,40.4748675 57.3788544,40.4961666" id="Fill-11" fill="#FDFDFE"></path>
            <path d="M29.6432294,23.8942234 L29.6432294,20.9999022 L38.6136937,20.9999022 L38.6136937,23.9710226 C37.9223484,24.0723272 37.2201627,24.1752351 36.4824784,24.2833341 C36.6548567,24.8416168 36.8220437,25.3868451 36.9915974,25.93131 C37.9434186,28.9879325 38.9260052,32.0354703 39.8326325,35.1052997 C40.1768546,36.2707234 40.3465609,37.487601 40.5968835,38.6807365 C40.6097088,38.7418094 40.6329165,38.8006684 40.6755149,38.9399909 C40.8117074,38.2263541 40.8913312,37.5884476 41.0579839,36.9742069 C41.7173422,34.5451085 42.3941827,32.1205143 43.0837721,29.6997371 C43.5779282,27.9648087 44.1026971,26.2386594 44.6133429,24.5083878 C44.6408257,24.4154043 44.6640334,24.3210466 44.6949516,24.2059242 C43.9268835,24.1010315 43.1804199,23.9991924 42.4156345,23.8947578 L42.4156345,20.9964669 L50.6793326,20.9964669 L50.6793326,23.9702591 C50.2257136,24.0433939 49.7623993,24.1533252 49.2940465,24.1834036 C48.848596,24.2119552 48.6535444,24.3925019 48.5060534,24.8268829 C46.5210314,30.6738499 44.5086792,36.5115033 42.5112136,42.3541952 C42.4307501,42.5896312 42.3292927,42.6722323 42.0754585,42.6696229 C40.7443746,42.6554373 39.4130616,42.6567351 38.0819014,42.6689497 C37.8520382,42.6710109 37.7564591,42.5955095 37.6843931,42.3838919 C35.658834,36.4356966 33.6248773,30.4903259 31.6028298,24.5409854 C31.5127473,24.2758527 31.385334,24.1677536 31.1132542,24.135385 C30.6232205,24.0771367 30.1379963,23.9777406 29.6432294,23.8942234" id="Fill-13" fill="#FDFEFE"></path>
            <path d="M13.1760206,36.2101238 L16.5591541,36.2101238 C16.7434415,37.1065213 16.9717015,37.9919257 17.094,38.8917586 C17.1732421,39.4747758 17.4480702,39.7453287 17.9866568,39.8799945 C19.265218,40.1997875 20.5442373,40.2387215 21.8126451,39.8819794 C22.9125681,39.5726451 23.5016162,38.8264106 23.5982641,37.6850344 C23.6315488,37.2914195 23.6299457,36.8884147 23.5866602,36.4960977 C23.4933714,35.6525282 23.0485316,35.0195839 22.3332153,34.5701637 C21.4386499,34.008064 20.4353748,33.7250674 19.4336265,33.4390935 C18.3061444,33.117163 17.1969842,32.7534739 16.1771431,32.1554938 C14.4348095,31.1339732 13.5123796,29.5985241 13.3027469,27.6122043 C13.1638824,26.2962359 13.2686224,25.0117201 13.8666788,23.8067517 C14.7200963,22.0871678 16.1715702,21.1271018 17.9723047,20.6295103 C19.4298858,20.2267345 20.9186142,20.2300935 22.4097854,20.3367421 C23.9639381,20.4478184 25.4746527,20.7499003 26.9019264,21.4080371 C27.1601884,21.5271293 27.2598136,21.6606499 27.2564546,21.9584567 C27.2381327,23.5865839 27.2477517,25.2150165 27.2477517,26.8599388 C27.1828618,26.8709319 27.1277435,26.8883377 27.0727015,26.888414 C26.1287435,26.8901699 25.1847854,26.8859711 24.2408274,26.8932999 C24.0715028,26.8945977 24.0006582,26.8450523 23.9607318,26.6738191 C23.753771,25.7853611 23.5235261,24.9023996 23.3206114,24.0131018 C23.2725165,23.8027056 23.1776245,23.6852166 22.9797483,23.6189525 C21.7290516,23.2000688 20.4654532,23.1350261 19.2069697,23.5457414 C18.2769058,23.8492737 17.6774752,24.4870275 17.5273122,25.480989 C17.3653164,26.5534292 17.6213645,27.472729 18.5589099,28.119262 C19.3385818,28.6569326 20.2274216,28.9421431 21.122674,29.2049092 C22.3019154,29.5510399 23.4939058,29.8515186 24.6123033,30.3837689 C26.7271816,31.3903267 27.8138975,33.084718 28.031088,35.3841891 C28.1431568,36.5705303 28.1277359,37.7459546 27.7545041,38.8907662 C27.1489663,40.7479168 25.8431513,41.9074622 24.0468446,42.5656754 C22.6362895,43.0825812 21.1680206,43.2228198 19.680132,43.191978 C17.6861781,43.1506011 15.7614656,42.7895839 13.9217971,41.9797572 C13.362293,41.7334807 13.1270096,41.452011 13.1562483,40.8034168 C13.2201458,39.3858384 13.1760206,37.9633741 13.1760206,36.5428184 L13.1760206,36.2101238 Z" id="Fill-15" fill="#FDFEFE"></path>
            <path d="M57.9396563,31.9196226 C57.9396563,29.9830009 57.9437024,28.0463792 57.934148,26.1098338 C57.933091,25.8876811 58.0045463,25.7460683 58.1676109,25.6041501 C59.4134981,24.5198771 60.8338248,23.9463262 62.5072987,24.0715257 C63.6224899,24.1549665 64.4359046,24.6796591 64.9324273,25.6851481 C65.3795573,26.5907065 65.5490346,27.5680257 65.6372086,28.5586281 C65.8410394,30.8490146 65.8619569,33.1425312 65.5732347,35.425818 C65.4769686,36.1866336 65.2990937,36.9534803 65.0374727,37.6736825 C64.449188,39.2932595 63.2397918,39.9423881 61.4625704,39.788408 C60.1573661,39.6752705 59.0609548,39.0714122 58.1076068,38.1992911 C58.0090504,38.1091323 57.9473668,37.9282038 57.9466034,37.7889576 C57.9363737,35.8325635 57.9396563,33.8760931 57.9396563,31.9196226" id="Fill-99" fill="#0095DA"></path>
        </g>
    </g>
</svg>