<?xml version="1.0" encoding="UTF-8"?>
<svg width="155px" height="155px" viewBox="0 0 155 155" version="1.1" xmlns="http://www.w3.org/2000/svg" xmlns:xlink="http://www.w3.org/1999/xlink">
    <title>TD Bank</title>
    <defs>
        <polygon id="path-1" points="3.70179949e-05 9.25449871e-05 85.6863301 9.25449871e-05 85.6863301 72 3.70179949e-05 72"></polygon>
    </defs>
    <g id="TD-Bank" stroke="none" stroke-width="1" fill="none" fill-rule="evenodd">
        <g id="Group-25" transform="translate(34.500000, 41.500000)">
            <g id="Group-6">
                <mask id="mask-2" fill="white">
                    <use xlink:href="#path-1"></use>
                </mask>
                <g id="Clip-5"></g>
                <path d="M36.2917388,56.5954242 L37.0963249,56.5954242 C43.5130242,56.5954242 49.9300936,56.6394756 56.3460524,56.5717326 C58.6507928,56.5473008 60.9727465,56.3903445 63.2521296,56.0564422 C68.9045923,55.2287198 72.8560781,52.1786221 74.5700113,46.6399897 C75.2385563,44.4792494 75.6788853,42.213563 75.9232041,39.963054 C76.4410859,35.1901388 76.3605717,30.4142622 75.1286129,25.7288946 C73.7778262,20.5915373 70.8043558,16.8567918 65.5255897,15.4758355 C63.3172812,14.8981697 60.9681193,14.6277532 58.6811476,14.6177584 C42.4855897,14.5468689 26.2894766,14.58 10.0937337,14.58 L9.0501964,14.58 L9.0501964,20.5595167 L23.5603249,20.5595167 L23.5603249,56.5330488 L33.5000267,56.5330488 L33.5000267,20.6150437 C33.6725306,20.5817275 33.759708,20.5500771 33.8470704,20.5502622 C41.3432144,20.5532237 48.8400987,20.5038046 56.3356874,20.5850591 C60.8017234,20.6333676 63.5443866,22.7931825 64.5383198,27.1461285 C65.8256206,32.7841542 65.7906386,38.4801131 64.3711835,44.093892 C63.2569419,48.5005141 60.6314406,50.4693162 56.106546,50.5529769 C53.022762,50.6097995 49.9369419,50.5694499 46.8520473,50.5672288 C46.6799136,50.5672288 46.5075949,50.5179949 46.2523558,50.479126 L46.2523558,22.8098406 L36.2917388,22.8098406 L36.2917388,56.5954242 Z M85.6863301,9.25449879e-05 C85.6828134,22.7060051 85.6789265,45.4121028 85.675965,68.1182005 C85.675965,69.4121645 85.6828134,70.7061285 85.6863301,72.0000925 L3.70179951e-05,72.0000925 L3.70179951e-05,9.25449879e-05 L85.6863301,9.25449879e-05 Z" id="Fill-4" fill="#54B748" mask="url(#mask-2)"></path>
            </g>
            <path d="M36.2917388,56.5954242 L36.2917388,22.8098406 L46.2523558,22.8098406 L46.2523558,50.479126 C46.5075949,50.5179949 46.6799136,50.5672288 46.8520473,50.5672288 C49.9369419,50.5694499 53.022762,50.6097995 56.106546,50.5529769 C60.6314406,50.4693162 63.2569419,48.5005141 64.3711835,44.093892 C65.7906386,38.4801131 65.8256206,32.7841542 64.5383198,27.1461285 C63.5443866,22.7931825 60.8017234,20.6333676 56.3356874,20.5850591 C48.8400987,20.5038046 41.3432144,20.5532237 33.8470704,20.5502622 C33.759708,20.5500771 33.6725306,20.5817275 33.5000267,20.6150437 L33.5000267,56.5330488 L23.5603249,56.5330488 L23.5603249,20.5595167 L9.0501964,20.5595167 L9.0501964,14.58 L10.0937337,14.58 C26.2894766,14.58 42.4855897,14.5468689 58.6811476,14.6177584 C60.9681193,14.6277532 63.3172812,14.8981697 65.5255897,15.4758355 C70.8043558,16.8567918 73.7778262,20.5915373 75.1286129,25.7288946 C76.3605717,30.4142622 76.4410859,35.1901388 75.9232041,39.963054 C75.6788853,42.213563 75.2385563,44.4792494 74.5700113,46.6399897 C72.8560781,52.1786221 68.9045923,55.2287198 63.2521296,56.0564422 C60.9727465,56.3903445 58.6507928,56.5473008 56.3460524,56.5717326 C49.9300936,56.6394756 43.5130242,56.5954242 37.0963249,56.5954242 L36.2917388,56.5954242 Z" id="Fill-17" fill="#FEFEFE"></path>
        </g>
    </g>
</svg>