<svg version="1.2" baseProfile="tiny-ps" xmlns="http://www.w3.org/2000/svg" viewBox="0 0 155 155" width="155" height="155">
	<title>US Bank-svg</title>
	<style>
		tspan { white-space:pre }
		.shp0 { fill: #dc172c } 
		.shp1 { fill: #0d2174 } 
	</style>
	<g id="US-Bank">
		<g id="Group-26">
			<path id="Fill-4" fill-rule="evenodd" class="shp0" d="M0.99 62.57L54.55 62.57C54.57 62.8 54.61 63.02 54.61 63.23C54.61 73.32 54.6 83.4 54.63 93.48C54.63 94.13 54.35 94.31 53.85 94.48C46.94 96.81 40.04 99.16 33.14 101.51C31.63 102.02 30.13 102.59 28.6 103.04C28.09 103.19 27.45 103.21 26.96 103.04C18.56 100.22 10.18 97.35 1.79 94.5C1.2 94.3 0.97 94.05 0.97 93.38C1 83.41 0.99 73.44 0.99 63.47L0.99 62.57ZM27.72 70.98L19.22 70.98C19.22 71.35 19.23 71.66 19.22 71.97C19.22 75.66 19.26 79.36 19.18 83.05C19.16 83.93 18.86 84.86 18.45 85.65C17.86 86.76 16.39 87.2 15.05 86.9C13.93 86.65 13.34 85.88 13.18 84.43C13.11 83.83 13.07 83.23 13.07 82.63C13.06 79.05 13.06 75.47 13.06 71.89L13.06 70.97L4.58 70.97C4.55 71.11 4.51 71.19 4.51 71.27C4.5 76.34 4.45 81.41 4.52 86.48C4.57 89.53 5.87 91.9 8.79 93.14C12.35 94.65 16.5 93.72 19.15 90.84C19.21 90.77 19.31 90.73 19.52 90.6L19.52 93.19C19.81 93.21 20 93.24 20.2 93.24C22.68 93.24 25.17 93.24 27.72 93.24L27.72 70.98ZM29.5 85.94C29.5 86.19 29.48 86.39 29.5 86.58C29.79 89.4 31.4 91.24 33.86 92.42C36.34 93.63 39.01 93.91 41.73 93.78C44.47 93.64 47.11 93.16 49.42 91.48C52.57 89.21 53.51 82.58 48.36 80.38C46.79 79.72 45.11 79.32 43.45 78.88C41.99 78.49 40.49 78.26 39.04 77.83C38.68 77.72 38.23 77.15 38.22 76.78C38.21 76.36 38.54 75.78 38.9 75.52C40.14 74.64 42.58 75.02 43.16 76.38C43.68 77.58 44.44 77.41 45.32 77.42C46.06 77.42 46.81 77.42 47.55 77.42L51.31 77.42C51.33 77.2 51.36 77.09 51.35 76.98C51.34 76.78 51.32 76.58 51.28 76.38C50.79 73.75 49.12 72.16 46.69 71.29C43.8 70.25 40.81 70.14 37.8 70.52C35.9 70.76 34.12 71.32 32.51 72.4C29.19 74.62 28.75 80.59 33.18 82.64C34.79 83.39 36.56 83.83 38.29 84.31C39.69 84.71 41.14 84.93 42.55 85.29C43.27 85.47 43.78 85.94 43.77 86.76C43.75 87.57 43.22 88 42.52 88.21C39.68 89.1 38.09 88.07 37.5 85.94L29.5 85.94Z" />
			<path id="Fill-6" fill-rule="evenodd" class="shp1" d="M65.89 90.73L65.89 93.12L57.78 93.12L57.78 62.61L66.13 62.61L66.13 73.25C66.34 73.14 66.45 73.12 66.51 73.05C69.4 69.12 77.19 69.51 80.03 74.33C82.74 78.93 82.35 86.45 79.09 90.59C76.3 94.13 71.6 94.43 68.29 92.89C67.83 92.68 67.44 92.32 67.05 91.98C66.7 91.66 66.39 91.28 65.89 90.73ZM73.56 82.07C73.24 80.8 73.06 79.52 72.59 78.34C72.09 77.08 70.96 76.58 69.61 76.58C68.24 76.58 67.16 77.13 66.64 78.38C65.6 80.83 65.6 83.35 66.66 85.79C67.21 87.04 68.31 87.57 69.66 87.56C71.01 87.55 72.12 87.01 72.61 85.75C73.06 84.59 73.24 83.34 73.56 82.07Z" />
			<path id="Fill-8" fill-rule="evenodd" class="shp1" d="M134.96 62.59L143.4 62.59L143.4 77.07C143.46 77.1 143.52 77.13 143.58 77.15C144.26 76.36 144.93 75.57 145.6 74.78C146.54 73.66 147.47 72.53 148.43 71.43C148.63 71.2 148.98 70.98 149.26 70.97C152.24 70.94 155.21 70.95 158.39 70.95C157.42 71.98 156.56 72.9 155.7 73.82C154.14 75.46 152.61 77.13 151.02 78.74C150.57 79.2 150.58 79.51 150.93 80.03C153.73 84.22 156.5 88.42 159.28 92.62C159.37 92.75 159.45 92.89 159.62 93.16L158.49 93.16C155.72 93.16 152.94 93.15 150.16 93.18C149.63 93.18 149.35 93.01 149.1 92.55C147.75 90.1 146.36 87.67 144.96 85.19C143.95 86 143.23 86.8 143.36 88.21C143.51 89.83 143.39 91.47 143.39 93.13L134.96 93.13L134.96 62.59Z" />
			<path id="Fill-10" fill-rule="evenodd" class="shp1" d="M108.74 70.99L116.83 70.99L116.83 73.82C117.12 73.52 117.25 73.39 117.36 73.25C119.94 69.85 125.88 69.67 128.79 71.64C130.74 72.96 131.77 74.85 131.81 77.13C131.9 82.37 131.84 87.61 131.84 92.85C131.84 92.93 131.81 93.01 131.78 93.12L123.41 93.12L123.41 91.9C123.41 88.4 123.41 84.91 123.4 81.42C123.4 80.82 123.36 80.21 123.28 79.62C123.06 78.11 122.44 77.37 121.27 77.17C119.75 76.91 118.32 77.45 117.77 78.72C117.39 79.58 117.18 80.58 117.16 81.52C117.09 85.07 117.13 88.63 117.13 92.18L117.13 93.13L108.74 93.13L108.74 70.99Z" />
			<path id="Fill-12" fill-rule="evenodd" class="shp1" d="M97.59 91.12C96.29 92.48 94.78 93.23 93.05 93.53C90.77 93.91 88.5 93.91 86.32 92.99C83.41 91.77 82.32 89.15 82.58 86.32C82.92 82.78 85.24 81.33 88.23 80.63C90.58 80.07 93.01 79.81 95.4 79.39C96.74 79.15 97.38 78.57 97.46 77.66C97.55 76.67 97.03 75.89 95.95 75.55C94.73 75.17 93.48 75.19 92.42 75.95C91.93 76.3 91.64 76.95 91.16 77.59L83.68 77.59C83.46 75.02 85.17 72.46 87.93 71.48C89.31 70.99 90.79 70.64 92.24 70.52C95.35 70.28 98.48 70.2 101.49 71.24C104.09 72.13 105.46 73.95 105.51 76.71C105.58 80.17 105.56 83.63 105.57 87.1C105.58 89.12 105.49 91.16 106.55 93.16L103.12 93.16C101.66 93.16 100.2 93.13 98.74 93.18C98.08 93.2 97.78 92.99 97.77 92.33C97.77 91.97 97.67 91.62 97.59 91.12ZM97.5 83.35C95.77 83.85 94.18 84.27 92.61 84.77C91.78 85.03 91.27 85.64 91.24 86.55C91.22 87.43 91.74 87.99 92.45 88.38C94.21 89.34 96.66 88.37 97.19 86.43C97.45 85.46 97.4 84.41 97.5 83.35Z" />
		</g>
	</g>
</svg>