<?xml version="1.0" encoding="UTF-8"?>
<svg width="155px" height="155px" viewBox="0 0 155 155" version="1.1" xmlns="http://www.w3.org/2000/svg" xmlns:xlink="http://www.w3.org/1999/xlink">
    <title>wells fargo</title>
    <defs>
        <polygon id="path-1" points="0 3.25e-05 77.9363638 3.25e-05 77.9363638 77.9373725 0 77.9373725"></polygon>
        <polygon id="path-3" points="0 3.9e-05 78 3.9e-05 78 77.9999749 0 77.9999749"></polygon>
    </defs>
    <g id="wells-fargo" stroke="none" stroke-width="1" fill="none" fill-rule="evenodd">
        <g id="Group-29" transform="translate(38.500000, 38.500000)">
            <g id="Group-3">
                <mask id="mask-2" fill="white">
                    <use xlink:href="#path-1"></use>
                </mask>
                <g id="Clip-2"></g>
                <path d="M41.512679,33.9940575 L41.512679,33.5766275 C41.512679,30.9471825 41.512614,28.3177375 41.513069,25.6882925 C41.513069,25.5585525 41.511054,25.4281625 41.521779,25.2990725 C41.560649,24.8302925 41.705534,24.6532975 42.168464,24.5975275 C42.521154,24.5550175 42.880344,24.5658725 43.236609,24.5552775 C43.361994,24.5515725 43.487509,24.5546925 43.619719,24.5546925 L43.619719,23.2165375 L36.893519,23.2165375 L36.893519,23.8798625 L36.893519,24.5584625 C37.300484,24.5584625 37.665849,24.5487125 38.030564,24.5606075 C38.743289,24.5838775 38.951224,24.8003925 38.951809,25.5166275 C38.953889,28.0270575 38.954019,30.5374225 38.951744,33.0478525 C38.951029,33.8211575 38.737699,34.0305875 37.967774,34.0334475 C37.616189,34.0347475 37.264539,34.0336425 36.918999,34.0336425 L36.918999,35.3753075 L48.165494,35.3753075 L48.165494,30.8338225 L46.821359,30.8338225 C46.694154,31.4480725 46.603089,32.0473075 46.441954,32.6270425 C46.220889,33.4223825 45.678074,33.9386775 44.846334,33.9806025 C43.757974,34.0355275 42.664739,33.9940575 41.512679,33.9940575 L41.512679,33.9940575 Z M54.039544,33.9943825 L54.039544,33.6088675 C54.039544,30.9690225 54.039414,28.3292425 54.039609,25.6893975 C54.039739,24.7316225 54.203539,24.5674325 55.175419,24.5560575 C55.494894,24.5523525 55.814499,24.5554725 56.138069,24.5554725 L56.138069,23.2192025 L49.439104,23.2192025 L49.439104,24.5634675 C49.861084,24.5634675 50.260314,24.5446175 50.657009,24.5678875 C51.255009,24.6029225 51.466584,24.8096875 51.468404,25.3916975 C51.476789,27.9882525 51.477699,30.5847425 51.468014,33.1812975 C51.465674,33.8106925 51.219974,34.0261675 50.584729,34.0327325 C50.208899,34.0365675 49.833069,34.0333825 49.441119,34.0333825 L49.441119,35.3762825 L60.710039,35.3762825 C60.710039,33.8940875 60.711729,32.4360725 60.703279,30.9781225 C60.702954,30.9241725 60.604934,30.8261525 60.550009,30.8243325 C60.141549,30.8112025 59.732504,30.8171825 59.306234,30.8171825 C59.278999,31.0161475 59.264049,31.1880725 59.230834,31.3563575 C59.145099,31.7901675 59.082959,32.2321025 58.953869,32.6530425 C58.716684,33.4262175 58.188039,33.9404975 57.369494,33.9810575 C56.281004,34.0350075 55.187899,33.9943825 54.039544,33.9943825 L54.039544,33.9943825 Z M11.891789,48.7821425 C12.566034,48.8012525 13.208754,48.6728125 13.744224,49.0730175 C14.376349,49.5454375 14.257464,50.2816275 14.306279,50.9623075 L15.558699,50.9623075 L15.558699,45.3851775 L14.298219,45.3851775 C14.282424,46.0295875 14.273584,46.6758175 13.730574,47.1196375 C13.189579,47.5619625 12.545689,47.3982275 11.918764,47.4108375 L11.918764,43.5461325 C13.047944,43.5811675 14.154244,43.5585475 15.248129,43.6646925 C16.453684,43.7816275 17.097834,44.4472925 17.342299,45.6334125 C17.391959,45.8741075 17.432974,46.1165575 17.477759,46.3568625 L18.759104,46.3568625 L18.759104,42.2378775 L7.260734,42.2378775 L7.260734,43.5825325 C7.703904,43.5825325 8.114769,43.5703125 8.524594,43.5855225 C9.078134,43.6060625 9.306804,43.8450675 9.307454,44.3965925 C9.310314,46.9503125 9.311354,49.5039675 9.306804,52.0576225 C9.305569,52.7726875 9.014434,53.0509525 8.292609,53.0575175 C7.950514,53.0605725 7.608354,53.0580375 7.259954,53.0580375 L7.259954,54.4082175 L13.949949,54.4082175 L13.949949,53.0509525 C13.557219,53.0509525 13.190034,53.0696075 12.825319,53.0469225 C12.142819,53.0044125 11.899134,52.7429825 11.894129,52.0626275 C11.887174,51.1321525 11.891984,50.2014825 11.891789,49.2709425 C11.891724,49.1226125 11.891789,48.9742175 11.891789,48.7821425 L11.891789,48.7821425 Z M63.662794,34.3299775 C63.743394,34.3912075 63.787464,34.4205875 63.826984,34.4553625 C64.719564,35.2405625 65.760474,35.6810025 66.945424,35.7451575 C68.320109,35.8196475 69.655079,35.6498025 70.836714,34.8759125 C72.813819,33.5811125 72.907939,30.6856875 71.001294,29.2915675 C70.512104,28.9338075 69.939649,28.6498225 69.363164,28.4609975 C68.503214,28.1794175 67.599779,28.0337525 66.726114,27.7895475 C66.064349,27.6044925 65.373659,27.4410175 64.779234,27.1155625 C63.911939,26.6407375 63.909794,25.5044075 64.715664,24.9246725 C64.939329,24.7637975 65.202969,24.6259975 65.468624,24.5609325 C67.322489,24.1069725 69.160754,24.5552775 70.003804,26.7367425 C70.050539,26.8577075 70.108454,26.9769825 70.135169,27.1026275 C70.178589,27.3069225 70.283954,27.3881075 70.496309,27.3745225 C70.755074,27.3580125 71.016829,27.3551525 71.275074,27.3749775 C71.537024,27.3951925 71.604364,27.2904125 71.602089,27.0411375 C71.591299,25.8722425 71.597864,24.7032175 71.596369,23.5342575 C71.596239,23.4292825 71.583369,23.3243075 71.574724,23.1936575 C71.352879,23.1936575 71.157554,23.2090625 70.965804,23.1898225 C70.710874,23.1643425 70.538884,23.2429925 70.414929,23.4773175 C70.300464,23.6938975 70.146999,23.8899375 70.021029,24.0796075 C68.044184,22.5653675 65.947869,22.4449225 63.802544,23.4979875 C61.849554,24.4567375 61.312264,26.9347975 62.618504,28.5755925 C63.090079,29.1678725 63.700234,29.5972625 64.409904,29.8154675 C65.398944,30.1195375 66.414049,30.3403425 67.420574,30.5859775 C68.155919,30.7655075 68.908099,30.8990175 69.538924,31.3562275 C70.292794,31.9025525 70.365399,32.8480425 69.685694,33.4823775 C69.469764,33.6838775 69.201704,33.8680875 68.924414,33.9585675 C67.504359,34.4216275 66.141829,34.2730375 64.898899,33.4248525 C64.078209,32.8648775 63.670919,32.0233225 63.462334,31.0723725 C63.442509,30.9819575 63.368019,30.8342775 63.313419,30.8316775 C62.887929,30.8115925 62.461074,30.8205625 62.038704,30.8205625 L62.038704,35.4003975 C62.387624,35.4003975 62.711974,35.4175575 63.032619,35.3907125 C63.138829,35.3818725 63.280269,35.2818375 63.328109,35.1851175 C63.456549,34.9256375 63.543129,34.6454225 63.662794,34.3299775 L63.662794,34.3299775 Z M71.739174,48.3265575 C71.722404,46.7024025 71.262984,45.2337275 70.178719,43.9989875 C69.117919,42.7912225 67.757014,42.1340075 66.178879,41.9282175 C64.408279,41.6973375 62.709504,41.9355625 61.208264,42.9540475 C59.042594,44.4233075 58.249269,46.5551125 58.489574,49.0874475 C58.687499,51.1740125 59.687914,52.8114275 61.511229,53.8938075 C62.708204,54.6044525 64.026079,54.8487225 65.404924,54.8079025 C69.082169,54.6989625 71.735144,51.9839775 71.739174,48.3265575 L71.739174,48.3265575 Z M53.841749,43.1905175 C53.776359,43.1485925 53.737684,43.1300025 53.706419,43.1028325 C52.730899,42.2568575 51.580074,41.8709525 50.306724,41.8565875 C48.088209,41.8315625 46.330739,42.6939175 45.199024,44.6482075 C44.335629,46.1391125 44.171114,47.7673625 44.358704,49.4527475 C44.777564,53.2173525 48.023794,55.5077575 51.707409,54.6368225 C52.552409,54.4369475 53.313689,54.0719725 53.998919,53.5074475 C54.192294,53.7703075 54.366494,54.0169825 54.552849,54.2541675 C54.608359,54.3247575 54.695849,54.4136125 54.772224,54.4170575 C55.146104,54.4338275 55.521154,54.4246625 55.925129,54.4246625 L55.925129,53.9975475 C55.925194,52.7964775 55.924544,51.5954075 55.926169,50.3943375 C55.926364,50.2432125 55.926104,50.0901375 55.948139,49.9412875 C56.011384,49.5137175 56.198389,49.3366575 56.630834,49.3002575 C56.821089,49.2843325 57.013749,49.2975925 57.216744,49.2975925 L57.216744,47.9455275 L51.616929,47.9455275 C51.616929,48.3128425 51.615369,48.6566275 51.618164,49.0003475 C51.618814,49.0839375 51.634024,49.1673975 51.646569,49.2904425 C51.937834,49.2904425 52.216294,49.2851125 52.494429,49.2914825 C53.112709,49.3057825 53.395784,49.5703975 53.414309,50.1772375 C53.425229,50.5333725 53.422564,50.8930175 53.385189,51.2466825 C53.298414,52.0682825 52.877994,52.6784375 52.103324,52.9758125 C50.707969,53.5114775 48.752249,53.3630825 47.796944,51.3653075 C47.163129,50.0400225 47.095659,48.6357625 47.253154,47.2079725 C47.346754,46.3606325 47.581989,45.5525525 48.059609,44.8344975 C48.674704,43.9096125 49.536799,43.4337475 50.655839,43.4461625 C52.084149,43.4620875 53.004289,44.2436475 53.650064,45.4369825 C53.819844,45.7506075 53.915849,46.1932575 54.178774,46.3428875 C54.457299,46.5013575 54.895399,46.3655075 55.261869,46.3883875 C55.532269,46.4052875 55.585049,46.2925775 55.583034,46.0497375 C55.572959,44.8812325 55.579004,43.7125975 55.577509,42.5440275 C55.577379,42.4411325 55.563469,42.3382375 55.554629,42.2170125 C55.193034,42.2170125 54.868749,42.2270875 54.545504,42.2131775 C54.356549,42.2051175 54.245984,42.2634225 54.175914,42.4448375 C54.079584,42.6943725 53.958099,42.9342225 53.841749,43.1905175 L53.841749,43.1905175 Z M30.253639,43.5824025 C30.735939,43.5824025 31.179109,43.5716775 31.621564,43.5853925 C32.093269,43.6000175 32.273969,43.7810425 32.274684,44.2457275 C32.278649,46.9622725 32.278779,49.6788175 32.274164,52.3953625 C32.273384,52.8354775 32.083649,53.0311275 31.641714,53.0500425 C31.274724,53.0658375 30.905849,53.0558275 30.538534,53.0413325 C29.775564,53.0111075 29.300154,52.6361875 29.011099,51.9096175 C27.764464,48.7752525 26.480909,45.6555775 25.222834,42.5256325 C25.124619,42.2814925 25.005409,42.2018025 24.749309,42.2108375 C24.187189,42.2305975 23.623574,42.2278675 23.061259,42.2116175 C22.832524,42.2050525 22.720854,42.2755775 22.636939,42.4948225 C22.223409,43.5751225 21.790964,44.6482075 21.365409,45.7238925 C20.542249,47.8049325 19.713759,49.8838925 18.899504,51.9684425 C18.654519,52.5955625 18.233189,52.9623575 17.555564,53.0208575 C17.354389,53.0382775 17.153734,53.0612875 16.943654,53.0826725 L16.943654,54.3973625 L22.642139,54.3973625 L22.642139,53.0571275 C22.187009,53.0571275 21.755604,53.0647975 21.324654,53.0551125 C20.850284,53.0443875 20.702864,52.8644025 20.845214,52.4201925 C21.033064,51.8338275 21.253284,51.2576025 21.475519,50.6831325 C21.504184,50.6091625 21.627554,50.5251175 21.707634,50.5245325 C23.038769,50.5147175 24.369969,50.5140675 25.701104,50.5255075 C25.786904,50.5262225 25.917424,50.6246325 25.949794,50.7077675 C26.169429,51.2716425 26.382889,51.8388975 26.569244,52.4144075 C26.726544,52.9003475 26.603304,53.0517325 26.095394,53.0569975 C25.665094,53.0614175 25.234664,53.0579725 24.786099,53.0579725 L24.786099,54.3998325 L36.933884,54.3998325 L36.933884,53.0764325 C36.850619,53.0693475 36.787569,53.0597925 36.724454,53.0594025 C36.313199,53.0566075 35.901424,53.0686325 35.490819,53.0509525 C35.053954,53.0321025 34.872149,52.8499725 34.869549,52.4271475 C34.862269,51.2475275 34.866494,50.0678425 34.867924,48.8881575 C34.867989,48.8375875 34.885214,48.7869525 34.894769,48.7346925 C35.408919,48.7346925 35.908834,48.6904275 36.398414,48.7428825 C37.924809,48.9063575 38.558364,49.5420575 38.727169,51.0719625 C38.785084,51.5967725 38.754014,52.1310075 38.777479,52.6602375 C38.836694,53.9976775 39.442494,54.6689325 40.742949,54.7908075 C41.621294,54.8730975 42.469869,54.7702675 43.075929,54.0251075 C43.653519,53.3149825 43.684459,52.4619875 43.666974,51.5908575 L42.497299,51.5908575 C42.460964,51.9180675 42.448159,52.2223325 42.388879,52.5172375 C42.316989,52.8751925 42.096639,53.0537475 41.793674,53.0558275 C41.485119,53.0579725 41.272959,52.8867625 41.191839,52.5271825 C41.139839,52.2968225 41.116894,52.0574925 41.104739,51.8208925 C41.078544,51.3134375 41.092519,50.8027975 41.045654,50.2976175 C40.953679,49.3061075 40.419184,48.6894525 39.466674,48.4302975 C39.271609,48.3772575 39.071864,48.3418325 38.929384,48.3103725 C39.406679,48.1775775 39.941889,48.0772825 40.438879,47.8803975 C41.497014,47.4613425 42.119259,46.6881025 42.154749,45.5147875 C42.192969,44.2497575 41.736149,43.2529175 40.556984,42.6722075 C39.810914,42.3048275 39.005694,42.2188975 38.188189,42.2180525 C35.655659,42.2154525 33.123129,42.2170125 30.590599,42.2169475 L30.253639,42.2169475 L30.253639,43.5824025 Z M5.000879,24.5275875 C5.069649,24.5392225 5.110664,24.5498175 5.152134,24.5525475 C6.112184,24.6150775 6.148129,24.6409475 6.456424,25.5484125 C7.531069,28.7115725 8.607794,31.8740825 9.673404,35.0402975 C9.761609,35.3023125 9.868144,35.4209375 10.165649,35.4085875 C10.792314,35.3825225 11.421189,35.3881775 12.048439,35.4067675 C12.298949,35.4142425 12.401129,35.3275325 12.478869,35.0930775 C13.097994,33.2254325 13.731744,31.3626625 14.361789,29.4985925 C14.403844,29.3741825 14.452139,29.2518525 14.529619,29.0414475 C14.599234,29.2580275 14.639859,29.3789925 14.677039,29.5009975 C15.243319,31.3627925 15.812849,33.2236125 16.370549,35.0880075 C16.440294,35.3212925 16.539419,35.4152175 16.794804,35.4072225 C17.432779,35.3872675 18.072119,35.3883075 18.710159,35.4068975 C18.952349,35.4139825 19.041269,35.3194725 19.113874,35.1048425 C19.772389,33.1590675 20.441304,31.2168025 21.108724,29.2740175 C21.540779,28.0163975 21.972314,26.7585825 22.410739,25.5031725 C22.560499,25.0742375 22.814064,24.6929475 23.289539,24.6374375 C23.810124,24.5766625 24.344944,24.5865425 24.869169,24.6252825 C25.244674,24.6530375 25.454624,24.9174575 25.509354,25.2979025 C25.530804,25.4470125 25.528399,25.6002175 25.528529,25.7515375 C25.529569,28.0461025 25.530024,30.3407325 25.527814,32.6353625 C25.527619,32.8512275 25.528464,33.0704725 25.493624,33.2823725 C25.403144,33.8334425 25.175709,34.0217475 24.615799,34.0312375 C24.271429,34.0370875 23.926864,34.0323425 23.559939,34.0323425 L23.559939,35.3741375 L35.6084429,35.3741375 C35.6084429,33.8990275 35.611134,32.4501125 35.598199,31.0013925 C35.597614,30.9380175 35.455589,30.8297925 35.372064,30.8219925 C35.114534,30.7980075 34.851999,30.8290125 34.594014,30.8075625 C34.339084,30.7864375 34.275644,30.9005775 34.230339,31.1314575 C34.122699,31.6805775 34.024939,32.2406175 33.830654,32.7617225 C33.518524,33.5991175 32.850714,34.0114125 31.967299,34.0257125 C30.744584,34.0454725 29.521284,34.0321475 28.298244,34.0313025 C28.247674,34.0312375 28.197169,34.0142725 28.141984,34.0043925 L28.141984,29.7669125 C28.548429,29.7669125 28.938559,29.7325275 29.320369,29.7744525 C29.992794,29.8483575 30.372069,30.2061825 30.508829,30.8756175 C30.573244,31.1909325 30.563819,31.5207425 30.608474,31.8411275 C30.619784,31.9224425 30.706559,32.0548475 30.764539,32.0580325 C31.127954,32.0780525 31.493059,32.0681725 31.868239,32.0681725 L31.868239,26.1365975 L30.632329,26.1365975 C30.674579,28.4664575 29.601039,28.4863475 28.151539,28.3448425 L28.151539,24.6120225 C29.511144,24.6120225 30.842604,24.5676275 32.169579,24.6261275 C33.214714,24.6722775 33.774559,25.2122975 34.025524,26.2285075 C34.115874,26.5942625 34.176974,26.9671675 34.252959,27.3441675 L35.577854,27.3441675 L35.577854,23.1936575 L35.192729,23.1936575 C29.889184,23.1936575 24.585639,23.1936575 19.282159,23.1937225 C19.206369,23.1937225 19.123429,23.1763025 19.056934,23.2015225 C18.991024,23.2265475 18.894369,23.2936275 18.892614,23.3451075 C18.878899,23.7396575 18.885074,24.1349225 18.885074,24.5270675 C19.325189,24.5531975 19.715319,24.5520925 20.097649,24.6062375 C20.435974,24.6542075 20.566104,24.8364025 20.533474,25.1755075 C20.511959,25.3984575 20.451899,25.6223175 20.377474,25.8347375 C19.651619,27.9060275 18.919394,29.9750425 18.187754,32.0443175 C18.154214,32.1392175 18.109169,32.2300225 18.055089,32.3564475 C18.013749,32.2836475 17.993209,32.2591425 17.984889,32.2309975 C17.288089,29.8893075 16.588169,27.5483975 15.900079,25.2041075 C15.773459,24.7726375 15.940314,24.5729575 16.396939,24.5582025 C16.705559,24.5481925 17.014764,24.5562525 17.319874,24.5562525 L17.319874,23.1935925 L15.025699,23.1935925 C14.062399,23.1936575 13.099099,23.1902125 12.135864,23.1991175 C12.037974,23.2000275 11.858704,23.2713325 11.856169,23.3175475 C11.833874,23.7216525 11.843299,24.1275125 11.843299,24.5551475 C12.003589,24.5551475 12.110969,24.5535225 12.218154,24.5554725 C13.184054,24.5726975 13.870714,25.5619325 13.554684,26.4821375 C12.908649,28.3635625 12.261834,30.2448575 11.614239,32.1258925 C11.575694,32.2377575 11.527269,32.3461775 11.454339,32.5291525 C11.383944,32.3338275 11.342344,32.2239125 11.304579,32.1127625 C10.960014,31.0993475 10.614474,30.0863225 10.272379,29.0721275 C9.850919,27.8224375 9.420294,26.5756725 9.018789,25.3194825 C8.862724,24.8312025 9.078719,24.5731525 9.589749,24.5569025 C9.822709,24.5494925 10.056059,24.5556025 10.316774,24.5556025 C10.316774,24.1778225 10.299809,23.8537975 10.321909,23.5324375 C10.340694,23.2585925 10.242089,23.1861175 9.974809,23.1880675 C8.427159,23.1995725 6.879379,23.1933975 5.331599,23.1943725 C5.226949,23.1944375 5.122364,23.2041225 5.000879,23.2101675 L5.000879,24.5275875 Z M-2.6e-05,77.9350325 L-2.6e-05,3.24999993e-05 L77.934454,3.24999993e-05 C77.935039,0.0216125 77.9363638,0.0432575 77.9363638,0.0649025 C77.9363638,25.9103325 77.9363638,51.7558275 77.9363638,77.6012575 C77.9363638,77.7051925 77.924574,77.8091275 77.917034,77.9373725 L77.405874,77.9373725 C51.733799,77.9373725 26.061659,77.9373725 0.389584,77.9373725 C0.259714,77.9373725 0.129844,77.9358125 -2.6e-05,77.9350325 L-2.6e-05,77.9350325 Z" id="Fill-1" fill="#B21E30" mask="url(#mask-2)"></path>
            </g>
            <g id="Group-6">
                <mask id="mask-4" fill="white">
                    <use xlink:href="#path-3"></use>
                </mask>
                <g id="Clip-5"></g>
                <path d="M-6.5e-06,77.935039 C0.1298635,77.935819 0.2597335,77.937249 0.3896035,77.937249 C26.0616785,77.937379 51.7338185,77.937379 77.4058935,77.937379 L77.9170535,77.937379 C77.9245285,77.809134 77.9359685,77.705199 77.9359685,77.601264 C77.9366185,51.755834 77.9363585,25.910339 77.9361635,0.064909 C77.9361635,0.043264 77.9349935,0.021619 77.9344735,3.9e-05 C77.9561185,0.010829 77.9957685,0.020514 77.9965485,0.032604 C78.0019435,0.118859 77.9999935,0.205634 77.9999935,0.292214 L77.9999935,77.9999749 L77.4961785,77.9999749 C51.7615085,77.9999749 26.0268385,77.9999749 0.2921685,77.997309 C0.1947985,77.997309 0.0974285,77.956684 -6.5e-06,77.935039" id="Fill-4" fill="#FDCA02" mask="url(#mask-4)"></path>
            </g>
            <path d="M5.0008985,24.527607 L5.0008985,23.210187 C5.1223835,23.204142 5.2269685,23.194457 5.3315535,23.194392 C6.8793335,23.193417 8.4271135,23.199592 9.9748285,23.188087 C10.2421085,23.186072 10.3407135,23.258612 10.3218635,23.532457 C10.2998285,23.853817 10.3167285,24.177842 10.3167285,24.555622 C10.0560785,24.555622 9.8227285,24.549512 9.5897685,24.556922 C9.0787385,24.573107 8.8627435,24.831157 9.0188085,25.319502 C9.4203135,26.575627 9.8508735,27.822457 10.2723985,29.072147 C10.6144935,30.086342 10.9600335,31.099367 11.3045335,32.112717 C11.3423635,32.223932 11.3839635,32.333847 11.4543585,32.529172 C11.5272235,32.346197 11.5757135,32.237777 11.6142585,32.125847 C12.2618535,30.244877 12.9086035,28.363582 13.5547035,26.482092 C13.8706685,25.561952 13.1840735,24.572717 12.2181735,24.555427 C12.1109235,24.553477 12.0036085,24.555167 11.8433185,24.555167 C11.8433185,24.127532 11.8338935,23.721672 11.8561235,23.317567 C11.8586585,23.271287 12.0379935,23.200047 12.1358835,23.199137 C13.0991185,23.190167 14.0624185,23.193677 15.0257185,23.193612 L17.3198935,23.193612 L17.3198935,24.556272 C17.0147835,24.556272 16.7055135,24.548212 16.3968935,24.558157 C15.9402685,24.572977 15.7734135,24.772657 15.9000985,25.204127 C16.5881885,27.548417 17.2881085,29.889262 17.9848435,32.231017 C17.9932285,32.259162 18.0137685,32.283602 18.0551085,32.356402 C18.1091885,32.230042 18.1541685,32.139237 18.1877735,32.044337 C18.9193485,29.975062 19.6516385,27.906047 20.3774935,25.834692 C20.4519185,25.622337 20.5119785,25.398412 20.5334285,25.175527 C20.5661235,24.836357 20.4359935,24.654162 20.0976685,24.606192 C19.7153385,24.552047 19.3252085,24.553217 18.8850935,24.527087 C18.8850935,24.134877 18.8789185,23.739677 18.8925685,23.345127 C18.8943885,23.293647 18.9909785,23.226502 19.0569535,23.201542 C19.1234485,23.176257 19.2063885,23.193742 19.2821135,23.193742 C24.5856585,23.193677 29.8892035,23.193677 35.1926835,23.193677 L35.5778735,23.193677 L35.5778735,27.344187 L34.2529135,27.344187 C34.1769935,26.967187 34.1158935,26.594217 34.0255435,26.228527 C33.7745785,25.212317 33.2147335,24.672297 32.1695335,24.626147 C30.8426235,24.567582 29.5111635,24.611977 28.1515585,24.611977 L28.1515585,28.344862 C29.6009935,28.486367 30.6745985,28.466477 30.6323485,26.136552 L31.8682585,26.136552 L31.8682585,32.068127 C31.4930785,32.068127 31.1279735,32.078072 30.7645585,32.058052 C30.7065785,32.054867 30.6198035,31.922462 30.6084285,31.841147 C30.5637735,31.520762 30.5732635,31.190952 30.5088485,30.875637 C30.3720885,30.206202 29.9927485,29.848377 29.3203885,29.774472 C28.9385785,29.732547 28.5484485,29.766932 28.1420035,29.766932 L28.1420035,34.004347 C28.1971235,34.014292 28.2476935,34.031257 28.2982635,34.031257 C29.5213035,34.032167 30.7446035,34.045492 31.9673185,34.025732 C32.8506685,34.011432 33.5185435,33.599137 33.8306735,32.761742 C34.0249585,32.240637 34.1226535,31.680597 34.2303585,31.131477 C34.2755985,30.900597 34.3390385,30.786457 34.5939685,30.807582 C34.8520185,30.828967 35.1145535,30.798027 35.3720835,30.822012 C35.4556085,30.829812 35.5976335,30.938037 35.5982185,31.001412 C35.6111535,32.450132 35.6084624,33.898982 35.6084624,35.374157 L23.5598935,35.374157 L23.5598935,34.032362 C23.9268835,34.032362 24.2714485,34.037107 24.6158185,34.031257 C25.1756635,34.021702 25.4030985,33.833462 25.4936435,33.282392 C25.5284835,33.070492 25.5275735,32.851247 25.5278335,32.635317 C25.5300435,30.340752 25.5295885,28.046122 25.5285485,25.751557 C25.5284185,25.600172 25.5308235,25.447032 25.5093735,25.297922 C25.4546435,24.917477 25.2446285,24.653057 24.8691885,24.625302 C24.3449635,24.586562 23.8101435,24.576682 23.2894935,24.637457 C22.8140185,24.692967 22.5604535,25.074257 22.4106935,25.503192 C21.9723335,26.758602 21.5407985,28.016417 21.1087435,29.274037 C20.4413235,31.216822 19.7723435,33.159087 19.1138935,35.104862 C19.0412885,35.319427 18.9523685,35.414002 18.7101785,35.406917 C18.0721385,35.388262 17.4327985,35.387222 16.7948235,35.407177 C16.5394385,35.415172 16.4403135,35.321312 16.3705685,35.088027 C15.8128685,33.223632 15.2433385,31.362812 14.6769935,29.501017 C14.6398785,29.379012 14.5992535,29.258047 14.5296385,29.041402 C14.4521585,29.251872 14.4038635,29.374202 14.3618085,29.498612 C13.7317635,31.362617 13.0979485,33.225387 12.4788885,35.093032 C12.4011485,35.327487 12.2989685,35.414197 12.0483935,35.406787 C11.4212085,35.388132 10.7923335,35.382542 10.1656685,35.408542 C9.8681635,35.420957 9.7616285,35.302332 9.6734235,35.040317 C8.6078135,31.874037 7.5310885,28.711592 6.4564435,25.548432 C6.1480835,24.640967 6.1122035,24.615032 5.1521535,24.552502 C5.1106185,24.549837 5.0696685,24.539177 5.0008985,24.527607" id="Fill-7" fill="#FDCA02"></path>
            <path d="M23.7551405,44.761301 C23.7249155,44.761691 23.6946905,44.762146 23.6644655,44.762536 C23.1286705,46.212296 22.5928755,47.662186 22.0500605,49.130861 L25.3713005,49.130861 C24.8223105,47.646651 24.2887255,46.203911 23.7551405,44.761301 M34.8931505,43.642066 L34.8931505,47.379176 C35.9128055,47.345571 36.9076955,47.360586 37.8921205,47.266141 C38.8090105,47.178261 39.4115605,46.610421 39.5562505,45.866301 C39.7799805,44.716321 39.1152905,43.778371 37.8631305,43.660396 C36.8915105,43.568811 35.9043555,43.642066 34.8931505,43.642066 M30.2536455,43.582396 L30.2536455,42.216941 L30.5906055,42.216941 C33.1231355,42.217006 35.6556005,42.215446 38.1881305,42.218046 C39.0057005,42.218891 39.8109205,42.304821 40.5569905,42.672201 C41.7360905,43.252911 42.1929755,44.249751 42.1547555,45.514781 C42.1192655,46.688161 41.4970205,47.461336 40.4388855,47.880391 C39.9418955,48.077276 39.4066205,48.177636 38.9293905,48.310431 C39.0718705,48.341826 39.2716155,48.377251 39.4666805,48.430291 C40.4191905,48.689446 40.9536855,49.306101 41.0456605,50.297611 C41.0925255,50.802791 41.0785505,51.313431 41.1047455,51.820886 C41.1169005,52.057486 41.1398455,52.296816 41.1918455,52.527176 C41.2729655,52.886756 41.4851255,53.057966 41.7936805,53.055821 C42.0966455,53.053741 42.3169955,52.875186 42.3888855,52.517231 C42.4481005,52.222326 42.4609705,51.918061 42.4973055,51.590851 L43.6669155,51.590851 C43.6844655,52.461981 43.6534605,53.314976 43.0759355,54.025166 C42.4698105,54.770261 41.6213005,54.873091 40.7429555,54.790801 C39.4425005,54.668926 38.8367005,53.997671 38.7774855,52.660231 C38.7539555,52.131001 38.7850905,51.596766 38.7271755,51.071956 C38.5583705,49.542051 37.9248155,48.906416 36.3984205,48.742876 C35.9088405,48.690421 35.4089255,48.734686 34.8947105,48.734686 C34.8852205,48.787011 34.8679955,48.837581 34.8679305,48.888151 C34.8665005,50.067836 34.8622105,51.247521 34.8695555,52.427206 C34.8721555,52.849966 35.0539605,53.032096 35.4908255,53.050946 C35.9014305,53.068626 36.3132055,53.056601 36.7244605,53.059396 C36.7875755,53.059786 36.8506255,53.069341 36.9338905,53.076426 L36.9338905,54.399826 L24.7861055,54.399826 L24.7861055,53.057966 C25.2346705,53.057966 25.6651005,53.061411 26.0954005,53.056991 C26.6032455,53.051726 26.7265505,52.900341 26.5692505,52.414401 C26.3828955,51.838891 26.1694355,51.271636 25.9498005,50.707761 C25.9174305,50.624626 25.7869105,50.526216 25.7010455,50.525501 C24.3699755,50.514061 23.0387755,50.514711 21.7076405,50.524526 C21.6275605,50.525111 21.5041905,50.609156 21.4755255,50.683126 C21.2532905,51.257596 21.0330705,51.833886 20.8451555,52.420186 C20.7028705,52.864396 20.8502905,53.044381 21.3246605,53.055106 C21.7556105,53.064791 22.1870155,53.057121 22.6420805,53.057121 L22.6420805,54.397356 L16.9436605,54.397356 L16.9436605,53.082666 C17.1537405,53.061281 17.3543955,53.038271 17.5555705,53.020851 C18.2331305,52.962351 18.6545255,52.595556 18.8995105,51.968436 C19.7137655,49.883951 20.5422555,47.804926 21.3654155,45.723951 C21.7909705,44.648201 22.2234155,43.575116 22.6368805,42.494816 C22.7207955,42.275571 22.8325305,42.205046 23.0612655,42.211611 C23.6235805,42.227861 24.1871955,42.230591 24.7492505,42.210831 C25.0053505,42.201796 25.1246255,42.281486 25.2228405,42.525626 C26.4809155,45.655571 27.7644705,48.775246 29.0111055,51.909611 C29.3001605,52.636181 29.7755705,53.011101 30.5384755,53.041326 C30.9058555,53.055821 31.2747305,53.065831 31.6417205,53.050101 C32.0836555,53.031186 32.2733905,52.835471 32.2741705,52.395356 C32.2787855,49.678811 32.2786555,46.962266 32.2746905,44.245721 C32.2739755,43.781036 32.0932755,43.600011 31.6215705,43.585386 C31.1791155,43.571671 30.7358805,43.582396 30.2536455,43.582396" id="Fill-9" fill="#FDCA02"></path>
            <path d="M53.841736,43.190511 C53.958086,42.934216 54.079571,42.694366 54.175966,42.444831 C54.246036,42.263416 54.356536,42.205111 54.545491,42.213171 C54.868736,42.227081 55.193021,42.217006 55.554681,42.217006 C55.563456,42.338231 55.577366,42.441126 55.577496,42.544021 C55.579056,43.712591 55.572946,44.881226 55.583021,46.049731 C55.585036,46.292636 55.532256,46.405281 55.261921,46.388381 C54.895386,46.365501 54.457351,46.501416 54.178826,46.342881 C53.915901,46.193251 53.819831,45.750601 53.650116,45.437041 C53.004276,44.243641 52.084136,43.462081 50.655826,43.446221 C49.536851,43.433741 48.674691,43.909606 48.059596,44.834491 C47.581976,45.552546 47.346741,46.360626 47.253206,47.207966 C47.095646,48.635756 47.163116,50.040016 47.796931,51.365366 C48.752236,53.363076 50.707956,53.511471 52.103311,52.975806 C52.877981,52.678431 53.298466,52.068276 53.385241,51.246676 C53.422616,50.893011 53.425216,50.533366 53.414296,50.177231 C53.395836,49.570391 53.112696,49.305776 52.494416,49.291476 C52.216281,49.285106 51.937821,49.290436 51.646621,49.290436 C51.634011,49.167391 51.618801,49.083931 51.618151,49.000341 C51.615356,48.656621 51.616916,48.312836 51.616916,47.945521 L57.216731,47.945521 L57.216731,49.297586 C57.013736,49.297586 56.821076,49.284326 56.630821,49.300251 C56.198376,49.336651 56.011371,49.513711 55.948126,49.941281 C55.926091,50.090131 55.926351,50.243206 55.926156,50.394331 C55.924531,51.595401 55.925246,52.796471 55.925181,53.997541 L55.925181,54.424656 C55.521141,54.424656 55.146091,54.433886 54.772211,54.417051 C54.695901,54.413606 54.608346,54.324751 54.552836,54.254161 C54.366481,54.017041 54.192346,53.770301 53.998906,53.507441 C53.313676,54.071966 52.552396,54.436941 51.707396,54.636816 C48.023781,55.507751 44.777616,53.217346 44.358691,49.452741 C44.171166,47.767356 44.335616,46.139106 45.199011,44.648201 C46.330726,42.693911 48.088196,41.831556 50.306711,41.856646 C51.580061,41.870946 52.730886,42.256851 53.706406,43.102826 C53.737671,43.129996 53.776346,43.148586 53.841736,43.190511" id="Fill-11" fill="#FDCA02"></path>
            <path d="M68.8456429,48.300434 C68.8423775,47.408829 68.7470875,46.531654 68.4564725,45.681779 C67.9240575,44.124639 66.7923425,43.311359 65.1273025,43.296799 C63.4398375,43.282174 62.2509875,44.070949 61.7369025,45.635499 C61.1493025,47.423584 61.1490425,49.237539 61.7434025,51.024519 C62.2580725,52.571974 63.4501725,53.369199 65.1085175,53.3615838 C66.7581525,53.353859 67.9219125,52.524069 68.4503625,50.983764 C68.7489725,50.113479 68.8470575,49.214789 68.8456429,48.300434 M71.7394275,48.326369 C71.7351375,51.983984 69.0822275,54.698904 65.4049175,54.807909 C64.0261375,54.848729 62.7081975,54.604394 61.5112225,53.893814 C59.6879075,52.811369 58.6874925,51.174019 58.4895675,49.087389 C58.2492625,46.555054 59.0426525,44.423314 61.2082575,42.954054 C62.7095625,41.935569 64.4082725,41.697344 66.1789375,41.928224 C67.7570075,42.134014 69.1179125,42.791229 70.1787125,43.998994 C71.2629775,45.233734 71.7223975,46.702409 71.7394275,48.326369" id="Fill-13" fill="#FDCA02"></path>
            <path d="M63.6628265,34.3300035 C63.5430965,34.6454485 63.4565165,34.9256635 63.3281415,35.1851435 C63.2802365,35.2818635 63.1387965,35.3818335 63.0326515,35.3907385 C62.7119415,35.4175835 62.3876565,35.4004235 62.0387365,35.4004235 L62.0387365,30.8205885 C62.4611065,30.8205885 62.8878965,30.8116185 63.3133865,30.8317035 C63.3680515,30.8342385 63.4424765,30.9819185 63.4623015,31.0723335 C63.6709515,32.0233485 64.0782415,32.8648385 64.8989315,33.4248785 C66.1418615,34.2730635 67.5043915,34.4216535 68.9243815,33.9585285 C69.2017365,33.8681135 69.4697965,33.6839035 69.6856615,33.4824035 C70.3653665,32.8480035 70.2927615,31.9025785 69.5388915,31.3562535 C68.9080665,30.8989785 68.1558865,30.7654685 67.4206065,30.5860035 C66.4140165,30.3403685 65.3989765,30.1195635 64.4098715,29.8154285 C63.7002015,29.5972235 63.0900465,29.1678985 62.6185365,28.5755535 C61.3122965,26.9347585 61.8495865,24.4567635 63.8025115,23.4980135 C65.9478365,22.4448835 68.0441515,22.5653285 70.0209965,24.0795685 C70.1470315,23.8898985 70.3004315,23.6938585 70.4149615,23.4772785 C70.5388515,23.2430185 70.7109065,23.1643035 70.9658365,23.1898485 C71.1575865,23.2090235 71.3529115,23.1936185 71.5747565,23.1936185 C71.5833365,23.3243335 71.5962715,23.4292435 71.5964015,23.5342835 C71.5978315,24.7032435 71.5913315,25.8722685 71.6021215,27.0410985 C71.6043965,27.2903735 71.5370565,27.3952185 71.2750415,27.3750035 C71.0168615,27.3551135 70.7550415,27.3579735 70.4963415,27.3745485 C70.2839215,27.3881335 70.1785565,27.3069485 70.1351365,27.1026535 C70.1084215,26.9770085 70.0505065,26.8577335 70.0038365,26.7367685 C69.1607865,24.5552385 67.3225215,24.1069985 65.4685915,24.5609585 C65.2029365,24.6260235 64.9393615,24.7637585 64.7156315,24.9246985 C63.9098265,25.5043685 63.9119065,26.6406985 64.7792665,27.1155235 C65.3736265,27.4409785 66.0643165,27.6045185 66.7261465,27.7895085 C67.5997465,28.0337135 68.5032465,28.1793785 69.3631315,28.4610235 C69.9396165,28.6497835 70.5120715,28.9338335 71.0012615,29.2915285 C72.9079065,30.6856485 72.8137865,33.5811385 70.8366815,34.8758735 C69.6550465,35.6497635 68.3200765,35.8196085 66.9454565,35.7451835 C65.7604415,35.6810285 64.7195965,35.2405885 63.8269515,34.4553235 C63.7874965,34.4206135 63.7433615,34.3912335 63.6628265,34.3300035" id="Fill-15" fill="#FDCA02"></path>
            <path d="M11.8917825,48.782162 C11.8917825,48.974237 11.8917825,49.122567 11.8917825,49.270962 C11.8919775,50.201502 11.8871675,51.132107 11.8941225,52.062647 C11.8991275,52.743002 12.1428125,53.004432 12.8253125,53.046877 C13.1900275,53.069627 13.5572125,53.050972 13.9499425,53.050972 L13.9499425,54.408237 L7.2599475,54.408237 L7.2599475,53.057992 C7.6083475,53.057992 7.9505075,53.060527 8.2926025,53.057472 C9.0144275,53.050972 9.3055625,52.772707 9.3067975,52.057642 C9.3113475,49.503922 9.3103075,46.950267 9.3074475,44.396547 C9.3067975,43.845087 9.0781275,43.606082 8.5245875,43.585542 C8.1147625,43.570267 7.7038975,43.582552 7.2607275,43.582552 L7.2607275,42.237832 L18.7590975,42.237832 L18.7590975,46.356817 L17.4777525,46.356817 C17.4330325,46.116577 17.3919525,45.874127 17.3423575,45.633432 C17.0978275,44.447312 16.4536775,43.781582 15.2481225,43.664712 C14.1542375,43.558567 13.0479375,43.581122 11.9188225,43.546087 L11.9188225,47.410792 C12.5456825,47.398247 13.1895725,47.561982 13.7306325,47.119657 C14.2735775,46.675837 14.2824175,46.029542 14.2982125,45.385132 L15.5586925,45.385132 L15.5586925,50.962327 L14.3062725,50.962327 C14.2575225,50.281582 14.3763425,49.545457 13.7442825,49.073037 C13.2087475,48.672767 12.5660275,48.801272 11.8917825,48.782162" id="Fill-17" fill="#FDCA02"></path>
            <path d="M54.0395245,33.994402 C55.1878795,33.994402 56.2809845,34.035027 57.3694745,33.981077 C58.1880195,33.940517 58.7166645,33.426172 58.9538495,32.653062 C59.0830045,32.232057 59.1450795,31.790122 59.2308145,31.356377 C59.2640295,31.188092 59.2789795,31.016167 59.3062145,30.817202 C59.7324845,30.817202 60.1415295,30.811222 60.5499895,30.824352 C60.6049145,30.826107 60.7029995,30.924192 60.7033245,30.978077 C60.7117095,32.436027 60.7100195,33.894107 60.7100195,35.376237 L49.4410995,35.376237 L49.4410995,34.033402 C49.8330495,34.033402 50.2088795,34.036522 50.5847745,34.032687 C51.2199545,34.026187 51.4656545,33.810712 51.4679945,33.181252 C51.4776795,30.584762 51.4767695,27.988207 51.4683845,25.391717 C51.4665645,24.809642 51.2549895,24.602942 50.6569895,24.567907 C50.2602945,24.544637 49.8611295,24.563487 49.4391495,24.563487 L49.4391495,23.219222 L56.1380495,23.219222 L56.1380495,24.555492 C55.8145445,24.555492 55.4949395,24.552307 55.1754645,24.556012 C54.2035195,24.567387 54.0397195,24.731642 54.0395895,25.689417 C54.0393945,28.329197 54.0395245,30.969042 54.0395245,33.608822 L54.0395245,33.994402 Z" id="Fill-19" fill="#FDCA02"></path>
            <path d="M41.512679,33.9940575 C42.664739,33.9940575 43.757974,34.0355275 44.846334,33.9806025 C45.678074,33.9386775 46.220889,33.4223825 46.441954,32.6270425 C46.603089,32.0473075 46.694154,31.4480725 46.821359,30.8338225 L48.165494,30.8338225 L48.165494,35.3753075 L36.918999,35.3753075 L36.918999,34.0336425 C37.264539,34.0336425 37.616189,34.0347475 37.967774,34.0334475 C38.737699,34.0305875 38.951029,33.8211575 38.951744,33.0478525 C38.954019,30.5374225 38.953889,28.0270575 38.951809,25.5166275 C38.951224,24.8003925 38.743289,24.5838775 38.030564,24.5606075 C37.665849,24.5487125 37.300484,24.5584625 36.893519,24.5584625 L36.893519,23.8798625 L36.893519,23.2165375 L43.619719,23.2165375 L43.619719,24.5546925 C43.487509,24.5546925 43.361994,24.5515725 43.236609,24.5552775 C42.880344,24.5658725 42.521154,24.5550175 42.168464,24.5975275 C41.705534,24.6532975 41.560649,24.8302925 41.521779,25.2990725 C41.511054,25.4281625 41.513069,25.5585525 41.513069,25.6882925 C41.512614,28.3177375 41.512679,30.9471825 41.512679,33.5766275 L41.512679,33.9940575 Z" id="Fill-21" fill="#FDCA02"></path>
            <path d="M34.8931505,43.642079 C35.9043555,43.642079 36.8915105,43.568824 37.8631305,43.660409 C39.1152905,43.778384 39.7799805,44.716269 39.5562505,45.866314 C39.4115605,46.610434 38.8090105,47.178209 37.8921205,47.266154 C36.9076955,47.360599 35.9128055,47.345584 34.8931505,47.379189 L34.8931505,43.642079 Z" id="Fill-23" fill="#B21E30"></path>
            <path d="M23.7551405,44.761301 C24.2887255,46.203911 24.8223105,47.646651 25.3713005,49.130861 L22.0500605,49.130861 C22.5928755,47.662186 23.1286705,46.212296 23.6644655,44.762536 C23.6946905,44.762146 23.7249155,44.761691 23.7551405,44.761301" id="Fill-25" fill="#B21E30"></path>
            <path d="M68.8452688,48.3006875 C68.847064,49.2147825 68.748979,50.1134725 68.450369,50.9837575 C67.921919,52.5241275 66.758159,53.3538525 65.108524,53.3615782 C63.450179,53.3692575 62.258079,52.5719675 61.743409,51.0245125 C61.149049,49.2375325 61.149309,47.4235775 61.736909,45.6354925 C62.250994,44.0709425 63.439844,43.2821675 65.127309,43.2968575 C66.792349,43.3113525 67.924064,44.1246325 68.456479,45.6817725 C68.747094,46.5316475 68.842384,47.4088225 68.8452688,48.3006875" id="Fill-27" fill="#B21E30"></path>
        </g>
    </g>
</svg>