<svg xmlns="http://www.w3.org/2000/svg" width="12" height="11" viewBox="0 0 12 11">
    <g fill="none" fill-rule="evenodd">
        <g fill-rule="nonzero">
            <g>
                <path fill="#C2C4C2" d="M1.158 3.092H2.33V7.547000000000001H1.158z" transform="translate(-31 -93) translate(31.595 93.36)"/>
                <path fill="#DDD" d="M2.33 3.668v3.879h-.758V3.923c0-.14.114-.255.254-.255h.504z" transform="translate(-31 -93) translate(31.595 93.36)"/>
                <path fill="#C2C4C2" d="M2.646 2.286v.74c0 .139-.112.251-.25.251H1.092c-.139 0-.251-.112-.251-.25v-.379l1.804-.362z" transform="translate(-31 -93) translate(31.595 93.36)"/>
                <path fill="#DDD" d="M2.646 2.862v.164c0 .139-.112.251-.25.251H1.267v-.225c0-.105.085-.19.19-.19h1.188z" transform="translate(-31 -93) translate(31.595 93.36)"/>
                <path fill="#C2C4C2" d="M2.646 7.612v.378H.841v-.378c0-.139.113-.251.252-.251h1.302c.139 0 .251.112.251.251z" transform="translate(-31 -93) translate(31.595 93.36)"/>
                <path fill="#DDD" d="M2.646 7.574v.416H1.268v-.226c0-.105.085-.19.19-.19h1.188z" transform="translate(-31 -93) translate(31.595 93.36)"/>
                <path fill="#C2C4C2" d="M4.02 3.092H5.191999999999999V7.547000000000001H4.02z" transform="translate(-31 -93) translate(31.595 93.36)"/>
                <path fill="#DDD" d="M5.192 3.863v3.684h-.758V3.98l.006.001c.055.007.11.01.166.01.21 0 .408-.046.586-.129z" transform="translate(-31 -93) translate(31.595 93.36)"/>
                <path fill="#C2C4C2" d="M5.509 7.612v.378H3.704v-.378c0-.139.112-.251.25-.251h1.303c.14 0 .252.112.252.251z" transform="translate(-31 -93) translate(31.595 93.36)"/>
                <path fill="#DDD" d="M5.509 7.574v.416h-1.38v-.226c0-.105.086-.19.19-.19h1.19z" transform="translate(-31 -93) translate(31.595 93.36)"/>
                <path fill="#C2C4C2" d="M6.882 3.092H8.054V7.547000000000001H6.882z" transform="translate(-31 -93) translate(31.595 93.36)"/>
                <path fill="#DDD" d="M8.054 3.668v3.879h-.758V3.923c0-.14.114-.255.255-.255h.503z" transform="translate(-31 -93) translate(31.595 93.36)"/>
                <path fill="#C2C4C2" d="M8.37 2.648v.378c0 .139-.112.251-.25.251H6.817c-.139 0-.251-.112-.251-.25V2.21l1.805.437z" transform="translate(-31 -93) translate(31.595 93.36)"/>
                <path fill="#DDD" d="M8.37 2.862v.164c0 .139-.112.251-.25.251H6.992v-.225c0-.105.085-.19.19-.19h1.189z" transform="translate(-31 -93) translate(31.595 93.36)"/>
                <path fill="#C2C4C2" d="M8.37 7.612v.378H6.567v-.378c0-.139.112-.251.251-.251H8.12c.138 0 .25.112.25.251z" transform="translate(-31 -93) translate(31.595 93.36)"/>
                <g fill="#DDD">
                    <path d="M8.353 7.574v.416H6.974v-.226c0-.105.085-.19.19-.19h1.189zM4.498.025L.12 2.275c-.184.095-.117.373.09.373h8.754c.207 0 .274-.278.09-.372L4.678.025c-.056-.03-.123-.03-.18 0z" transform="translate(-31 -93) translate(31.595 93.36) translate(.018)"/>
                </g>
                <path fill="#C2C4C2" d="M6.004 2.275c0 .772-.626 1.397-1.398 1.397-.056 0-.111-.003-.166-.01-.176-.02-.343-.074-.493-.154-.137-.074-.26-.17-.365-.283-.209-.224-.344-.516-.37-.84-.002-.036-.004-.073-.004-.11 0-.772.626-1.398 1.398-1.398.037 0 .074.001.11.004.324.026.617.16.84.37.114.104.21.228.283.365.08.15.134.316.155.493.007.054.01.11.01.166z" transform="translate(-31 -93) translate(31.595 93.36)"/>
                <path fill="#EFEFEF" d="M5.708 2.275c0 .608-.493 1.102-1.102 1.102-.044 0-.088-.003-.13-.008-.14-.016-.271-.059-.39-.122-.108-.058-.205-.133-.288-.223-.164-.176-.27-.407-.29-.662-.003-.029-.004-.058-.004-.087 0-.61.493-1.103 1.102-1.103.03 0 .059.002.087.004.256.02.486.126.663.29.09.083.165.18.223.29.063.117.105.249.122.388.005.043.007.086.007.13z" transform="translate(-31 -93) translate(31.595 93.36)"/>
                <g fill="#C2C4C2">
                    <path d="M4.192 1.979c-.332 0-.602-.236-.602-.525 0-.078.063-.141.141-.141.078 0 .141.063.141.14 0 .132.147.244.32.244.174 0 .32-.112.32-.243 0-.132-.146-.244-.32-.244-.332 0-.602-.236-.602-.525 0-.29.27-.526.602-.526.332 0 .603.236.603.526 0 .078-.064.14-.141.14-.078 0-.141-.062-.141-.14 0-.132-.147-.244-.32-.244-.174 0-.321.112-.321.244s.147.243.32.243c.332 0 .603.236.603.526 0 .29-.27.525-.603.525z" transform="translate(-31 -93) translate(31.595 93.36) translate(.414 1.206)"/>
                    <path d="M4.192 2.133c-.078 0-.14-.063-.14-.141V.146c0-.077.062-.14.14-.14.078 0 .141.063.141.14v1.846c0 .078-.063.14-.14.14zM8.378 6.953v.637H.007v-.637c0-.145.117-.263.262-.263h7.846c.145 0 .263.118.263.263z" transform="translate(-31 -93) translate(31.595 93.36) translate(.414 1.206)"/>
                </g>
                <g fill="#DDD">
                    <path d="M8.792.278V.52H.42V.278C.42.133.538.015.683.015H8.53c.145 0 .263.118.263.263zM9.212 1.329H0V.952C0 .807.117.69.262.69H8.95c.145 0 .262.117.262.262v.377z" transform="translate(-31 -93) translate(31.595 93.36) translate(0 7.88)"/>
                </g>
            </g>
        </g>
    </g>
</svg>
