<svg xmlns="http://www.w3.org/2000/svg" width="12" height="9" viewBox="0 0 12 9">
    <g fill="none" fill-rule="evenodd">
        <g fill-rule="nonzero">
            <g>
                <path fill="#8798CC" d="M9.711 7.344H.571C.254 7.344 0 7.092 0 6.781V.563C0 .252.255 0 .57 0h9.141c.315 0 .57.252.57.563V6.78c0 .311-.255.563-.57.563" transform="translate(-31 -165) translate(31.085 165.27)"/>
                <path fill="#556180" d="M0 0.874H10.282V2.273H0z" transform="translate(-31 -165) translate(31.085 165.27)"/>
                <path fill="#B0D3F0" d="M2.659 3.147H1.064c-.098 0-.178.079-.178.175 0 .097.08.175.178.175h1.595c.098 0 .177-.078.177-.175 0-.096-.079-.175-.177-.175M5.14 3.322c0-.096-.078-.175-.176-.175H3.368c-.098 0-.177.079-.177.175 0 .097.08.175.177.175h1.596c.098 0 .177-.078.177-.175M1.24 4.022h-.176c-.098 0-.178.078-.178.175 0 .096.08.174.178.174h.177c.098 0 .177-.078.177-.174 0-.097-.08-.175-.177-.175M2.304 4.022H1.95c-.098 0-.177.078-.177.175 0 .096.079.174.177.174h.354c.099 0 .178-.078.178-.174 0-.097-.08-.175-.178-.175M3.19 4.022h-.176c-.098 0-.178.078-.178.175 0 .096.08.174.178.174h.177c.098 0 .177-.078.177-.174 0-.097-.08-.175-.177-.175M4.254 4.022H3.9c-.098 0-.177.078-.177.175 0 .096.079.174.177.174h.354c.098 0 .178-.078.178-.174 0-.097-.08-.175-.178-.175M4.838 4.072c-.032.034-.052.08-.052.125s.02.09.052.124c.033.031.077.05.126.05.046 0 .092-.019.125-.05.032-.034.052-.079.052-.124 0-.046-.02-.091-.052-.125-.065-.064-.186-.064-.251 0" transform="translate(-31 -165) translate(31.085 165.27)"/>
                <path fill="#91BAE1" d="M6.382 4.546H9.218V6.295H6.382z" transform="translate(-31 -165) translate(31.085 165.27)"/>
            </g>
        </g>
    </g>
</svg>
