<svg xmlns="http://www.w3.org/2000/svg" viewBox="0 0 11 8" width="11" height="8">
	<style>
		tspan { white-space:pre }
		.shp0 { fill: #8798cc } 
		.shp1 { fill: #556180 } 
		.shp2 { fill: #b0d3f0 } 
		.shp3 { fill: #91bae1 } 
	</style>
	<g id="Layer">
		<g id="Layer">
			<g id="Layer">
				<path id="Layer" class="shp0" d="M9.8 7.61L0.66 7.61C0.34 7.61 0.09 7.36 0.09 7.05L0.09 0.83C0.09 0.52 0.34 0.27 0.66 0.27L9.8 0.27C10.11 0.27 10.37 0.52 10.37 0.83L10.37 7.05C10.37 7.36 10.11 7.61 9.8 7.61" />
				<path id="Layer" class="shp1" d="M0.09 1.14L10.37 1.14L10.37 2.54L0.09 2.54L0.09 1.14Z" />
				<path id="Layer" class="shp2" d="M2.74 3.42L1.15 3.42C1.05 3.42 0.97 3.5 0.97 3.59C0.97 3.69 1.05 3.77 1.15 3.77L2.74 3.77C2.84 3.77 2.92 3.69 2.92 3.59C2.92 3.5 2.84 3.42 2.74 3.42ZM5.23 3.59C5.23 3.5 5.15 3.42 5.05 3.42L3.45 3.42C3.36 3.42 3.28 3.5 3.28 3.59C3.28 3.69 3.36 3.77 3.45 3.77L5.05 3.77C5.15 3.77 5.23 3.69 5.23 3.59M1.33 4.29L1.15 4.29C1.05 4.29 0.97 4.37 0.97 4.47C0.97 4.56 1.05 4.64 1.15 4.64L1.33 4.64C1.42 4.64 1.5 4.56 1.5 4.47C1.5 4.37 1.42 4.29 1.33 4.29M2.39 4.29L2.04 4.29C1.94 4.29 1.86 4.37 1.86 4.47C1.86 4.56 1.94 4.64 2.04 4.64L2.39 4.64C2.49 4.64 2.57 4.56 2.57 4.47C2.57 4.37 2.49 4.29 2.39 4.29ZM3.28 4.29L3.1 4.29C3 4.29 2.92 4.37 2.92 4.47C2.92 4.56 3 4.64 3.1 4.64L3.28 4.64C3.37 4.64 3.45 4.56 3.45 4.47C3.45 4.37 3.37 4.29 3.28 4.29M4.34 4.29L3.99 4.29C3.89 4.29 3.81 4.37 3.81 4.47C3.81 4.56 3.89 4.64 3.99 4.64L4.34 4.64C4.44 4.64 4.52 4.56 4.52 4.47C4.52 4.37 4.44 4.29 4.34 4.29ZM4.92 4.34C4.89 4.38 4.87 4.42 4.87 4.47C4.87 4.51 4.89 4.56 4.92 4.59C4.96 4.62 5 4.64 5.05 4.64C5.1 4.64 5.14 4.62 5.17 4.59C5.21 4.56 5.23 4.51 5.23 4.47C5.23 4.42 5.21 4.38 5.17 4.34C5.11 4.28 4.99 4.28 4.92 4.34Z" />
				<path id="Layer" class="shp3" d="M6.47 4.82L9.3 4.82L9.3 6.57L6.47 6.57L6.47 4.82Z" />
			</g>
		</g>
	</g>
</svg>