<svg xmlns="http://www.w3.org/2000/svg" width="18" height="18" viewBox="0 0 18 18">
    <g fill="none" fill-rule="evenodd">
        <g fill="#E78D55">
            <path d="M709 601c-4.97 0-9 4.03-9 9s4.03 9 9 9 9-4.03 9-9-4.03-9-9-9zm.67 13.217c0-.316-.186-.602-.469-.723-.284-.12-.61-.054-.827.17-.217.224-.281.56-.164.852.117.293.394.484.701.484.201 0 .394-.083.536-.23.142-.147.222-.346.222-.553zm1.826-5.629v.001c-.053-1.44-1.195-2.581-2.591-2.589h-.016c-.989.004-1.889.592-2.314 1.513-.181.389-.023.855.352 1.042.377.187.829.024 1.01-.364.175-.379.542-.622.948-.63.58.01 1.053.48 1.084 1.077.017.483-.27.92-.711 1.082-.657.214-1.109.839-1.119 1.55v.622c0 .43.339.78.756.78s.756-.35.756-.78v-.623c0-.046.075-.071.075-.075 1.085-.367 1.807-1.426 1.773-2.605h-.003z" transform="translate(-700 -601)"/>
        </g>
    </g>
</svg>
