<svg xmlns="http://www.w3.org/2000/svg" viewBox="0 0 24 24" width="24" height="24">
	<style>
		tspan { white-space:pre }
		.shp0 { fill: #3d5a98 } 
		.shp1 { fill: #ffffff } 
	</style>
	<path id="Layer" class="shp0" d="M12 24C5.36 24 0 18.64 0 12C0 5.36 5.36 0 12 0C18.64 0 24 5.36 24 12C24 18.64 18.64 24 12 24Z" />
	<path id="f" class="shp1" d="M13.31 20.44L13.31 12.75L15.9 12.75L16.27 9.75L13.31 9.75L13.31 7.84C13.31 6.97 13.54 6.38 14.81 6.38L16.39 6.38L16.39 3.68C16.13 3.64 15.19 3.56 14.06 3.56C11.77 3.56 10.2 4.95 10.2 7.54L10.2 9.75L7.61 9.75L7.61 12.75L10.2 12.75L10.2 20.44L13.31 20.44Z" />
</svg>