<svg version="1.2" baseProfile="tiny-ps" xmlns="http://www.w3.org/2000/svg" viewBox="0 0 21 21" width="21" height="21">
	<title>Google-Adwords-Icon-01-svg</title>
	<style>
		tspan { white-space:pre }
		.shp0 { fill: #3c8bd9 } 
		.shp1 { fill: #fabc04 } 
		.shp2 { fill: #34a852 } 
		.shp3 { fill: #e1c025 } 
	</style>
	<g id="Layer">
		<path id="Layer" class="shp0" d="M7.21 3.46C7.41 2.94 7.69 2.46 8.09 2.07C9.72 0.48 12.4 0.88 13.51 2.87C14.34 4.39 15.21 5.86 16.07 7.35C17.49 9.83 18.94 12.31 20.35 14.8C21.53 16.88 20.25 19.51 17.89 19.86C16.45 20.08 15.1 19.42 14.35 18.12C13.1 15.94 11.84 13.76 10.59 11.59C10.57 11.54 10.53 11.5 10.5 11.45C10.36 11.35 10.31 11.19 10.22 11.05C9.67 10.07 9.1 9.1 8.54 8.13C8.19 7.5 7.81 6.88 7.45 6.25C7.13 5.68 6.98 5.07 7 4.43C7.02 4.09 7.06 3.76 7.21 3.46Z" />
		<path id="Layer" class="shp1" d="M7.21 3.46C7.14 3.76 7.07 4.06 7.05 4.37C7.03 5.07 7.2 5.72 7.55 6.32C8.46 7.89 9.37 9.46 10.28 11.04C10.36 11.18 10.43 11.32 10.51 11.45C10.01 12.31 9.52 13.16 9.01 14.03C8.32 15.23 7.62 16.44 6.91 17.64C6.88 17.64 6.87 17.62 6.86 17.6C6.86 17.53 6.88 17.48 6.9 17.41C7.23 16.17 6.95 15.06 6.1 14.12C5.58 13.55 4.92 13.22 4.15 13.11C3.16 12.97 2.28 13.23 1.49 13.85C1.35 13.96 1.26 14.12 1.09 14.2C1.06 14.2 1.04 14.18 1.04 14.16C1.44 13.47 1.82 12.78 2.22 12.1C3.86 9.24 5.5 6.39 7.15 3.55C7.17 3.52 7.19 3.5 7.21 3.46Z" />
		<path id="Layer" class="shp2" d="M1.07 14.19C1.23 14.05 1.37 13.91 1.54 13.77C3.56 12.18 6.59 13.33 7.03 15.85C7.13 16.46 7.08 17.04 6.89 17.62C6.88 17.67 6.87 17.71 6.86 17.76C6.78 17.89 6.71 18.04 6.63 18.17C5.89 19.38 4.81 19.99 3.38 19.9C1.75 19.78 0.47 18.55 0.24 16.93C0.13 16.14 0.29 15.41 0.7 14.72C0.78 14.58 0.88 14.44 0.97 14.3C1.01 14.26 1 14.19 1.07 14.19Z" />
		<path id="Layer" class="shp1" d="M1.07 14.19C1.04 14.23 1.04 14.28 0.98 14.3C0.97 14.24 1 14.21 1.04 14.16L1.07 14.19Z" />
		<path id="Layer" class="shp3" d="M6.86 17.76C6.82 17.7 6.86 17.66 6.89 17.62C6.9 17.62 6.91 17.64 6.92 17.65L6.86 17.76Z" />
	</g>
</svg>