<svg xmlns="http://www.w3.org/2000/svg" xmlns:xlink="http://www.w3.org/1999/xlink" width="23" height="23" viewBox="0 0 23 23">
    <defs>
        <rect id="cz1llk26ya" width="21.93" height="21.93" x="0" y="0" rx="3.57"/>
    </defs>
    <g fill="none" fill-rule="evenodd">
        <g>
            <g transform="translate(-279 -389) translate(279.316 389.149)">
                <mask id="xm2rl12usb" fill="#fff">
                    <use xlink:href="#cz1llk26ya"/>
                </mask>
                <use fill="#FFF" xlink:href="#cz1llk26ya"/>
                <g mask="url(#xm2rl12usb)">
                    <g>
                        <path fill="#002E86" d="M2.491 10.073H.349c-.035 0-.072 0-.106-.007-.163-.034-.263-.183-.237-.353.051-.324.104-.647.156-.971l.143-.909.135-.845.154-.972.135-.844.133-.846.135-.84.132-.834.145-.913.122-.772c.03-.183.057-.366.088-.549.04-.237.246-.413.486-.417h3.545c.321-.001.642.013.96.058.365.05.721.135 1.06.288.493.223.853.581 1.074 1.076.093.211.14.434.156.663.02.265-.001.528-.044.789-.012-.005-.024-.008-.035-.014-.169-.085-.346-.149-.53-.194-.127-.032-.255-.058-.384-.081-.084-.016-.169-.023-.253-.033l-.138-.012c-.083-.006-.166-.02-.249-.02H4.044c-.015 0-.03-.002-.043.001-.166.041-.29.133-.343.302-.013.038-.019.079-.026.119l-.05.309c-.015.085-.028.171-.042.257l-.054.33-.042.267-.034.21c-.012.082-.023.165-.036.247l-.06.367-.052.32-.044.282-.051.315-.046.288-.04.257-.024.2-.001.01-.001.02c-.007.029-.016.058-.02.088l-.036.216-.06.373-.061.38-.067.416c-.023.149-.045.299-.069.448l-.082.51-.068.433-.072.453c-.008.045-.02.09-.029.134" transform="translate(6.12 5.1)"/>
                        <path fill="#009ADE" d="M2.491 10.073c.01-.045.021-.09.029-.134l.072-.453.068-.432.082-.511.07-.448c.02-.14.043-.278.066-.416l.06-.38L3 6.926l.035-.216c.005-.03.014-.059.02-.088l.002-.02.001-.01.04-.054c.03-.036.055-.076.088-.107.104-.099.23-.14.371-.14.368 0 .736.003 1.103 0 .18-.002.36-.01.54-.025.205-.017.41-.05.612-.092.411-.086.802-.225 1.167-.436.323-.186.604-.423.844-.709.2-.238.363-.502.495-.785.17-.362.284-.741.363-1.133l.044-.23c.3.153.538.372.704.666.123.217.193.452.226.698.04.303.026.605-.02.906-.058.392-.157.772-.313 1.136-.175.407-.416.767-.746 1.066-.299.271-.644.464-1.023.596-.286.1-.58.16-.88.197-.313.037-.627.04-.94.038-.081 0-.157.017-.227.056-.119.067-.195.167-.219.301-.043.242-.08.485-.12.728l-.113.713-.122.766c-.01.07-.022.14-.036.21-.043.22-.204.359-.428.373l-.059.001h-1.75c-.029 0-.058-.001-.086-.005-.153-.022-.25-.156-.226-.308l.14-.882c.004-.02.004-.042.005-.064" transform="translate(6.12 5.1)"/>
                        <path fill="#11216A" d="M8.724 2.88l-.044.231c-.079.392-.194.77-.363 1.133-.132.283-.294.547-.495.785-.24.286-.52.523-.844.71-.365.21-.756.35-1.167.435-.203.043-.407.075-.612.092-.18.015-.36.023-.54.025-.367.003-.735 0-1.103 0-.14 0-.267.041-.37.14-.034.031-.06.07-.088.107l-.04.055c.007-.067.014-.134.024-.2.012-.086.026-.172.04-.258l.045-.288.05-.315c.016-.094.03-.188.045-.283l.052-.32.06-.366c.013-.082.024-.165.036-.247l.034-.21.042-.267.054-.33.041-.257.051-.31c.007-.04.013-.08.026-.118.054-.169.177-.26.343-.302.014-.003.028-.001.043-.001h3.088c.083 0 .166.014.25.02l.137.012c.084.01.17.017.253.033.129.023.257.05.384.08.184.046.361.11.53.195.011.006.023.01.035.014.002.001.003.003.003.006M3.153 6.602l-.03.17.03-.17" transform="translate(6.12 5.1)"/>
                    </g>
                </g>
            </g>
        </g>
    </g>
</svg>
