<svg version="1.2" baseProfile="tiny-ps" xmlns="http://www.w3.org/2000/svg" viewBox="0 0 21 21" width="21" height="21">
	<title>facebook-icon-svg</title>
	<style>
		tspan { white-space:pre }
		.shp0 { fill: #27346a } 
		.shp1 { fill: #2790c3 } 
		.shp2 { fill: #1f264f } 
	</style>
	<g id="Folder 1">
		<path id="Layer" class="shp0" d="M16.9 2.23C16.04 1.24 14.48 0.82 12.48 0.82L6.68 0.82C6.58 0.82 6.48 0.84 6.39 0.87C6.3 0.9 6.21 0.95 6.14 1.02C6.06 1.08 6 1.16 5.95 1.24C5.9 1.33 5.87 1.42 5.86 1.52L3.44 16.84C3.39 17.14 3.63 17.42 3.93 17.42L7.51 17.42L8.41 11.71L8.39 11.89C8.45 11.49 8.79 11.19 9.2 11.19L10.91 11.19C14.25 11.19 16.87 9.83 17.63 5.9C17.66 5.79 17.67 5.67 17.69 5.56C17.6 5.51 17.6 5.51 17.69 5.56C17.92 4.11 17.69 3.12 16.9 2.23" />
		<path id="Layer" class="shp0" d="M9.78 5.04C9.81 5.03 9.83 5.02 9.86 5.01C9.88 5 9.91 4.99 9.94 4.99C9.96 4.98 9.99 4.98 10.02 4.97C10.04 4.97 10.07 4.97 10.1 4.97L14.65 4.97C15.19 4.97 15.69 5 16.15 5.08C16.18 5.08 16.21 5.09 16.24 5.09C16.27 5.1 16.31 5.1 16.34 5.11C16.37 5.12 16.4 5.12 16.43 5.13C16.47 5.14 16.5 5.14 16.53 5.15C16.57 5.16 16.62 5.17 16.66 5.18C16.71 5.19 16.75 5.2 16.8 5.22C16.84 5.23 16.89 5.24 16.93 5.25C16.98 5.27 17.02 5.28 17.06 5.3C17.29 5.37 17.5 5.46 17.69 5.56C17.92 4.11 17.69 3.12 16.9 2.23C16.04 1.24 14.48 0.82 12.48 0.82L6.68 0.82C6.27 0.82 5.92 1.12 5.86 1.52L3.44 16.84C3.39 17.14 3.63 17.42 3.93 17.42L7.51 17.42L9.38 5.58C9.39 5.52 9.41 5.47 9.43 5.41C9.45 5.36 9.48 5.31 9.52 5.26C9.55 5.21 9.59 5.17 9.64 5.13C9.68 5.1 9.73 5.06 9.78 5.04L9.78 5.04Z" />
		<path id="Layer" class="shp1" d="M17.63 5.9C16.87 9.83 14.25 11.19 10.91 11.19L9.2 11.19C8.79 11.19 8.45 11.49 8.39 11.89L7.27 18.98C7.22 19.25 7.43 19.49 7.7 19.49L10.72 19.49C10.8 19.49 10.89 19.47 10.97 19.44C11.05 19.41 11.12 19.37 11.19 19.31C11.25 19.26 11.31 19.19 11.35 19.12C11.39 19.04 11.42 18.96 11.43 18.88L11.46 18.72L12.03 15.11L12.07 14.92C12.08 14.83 12.11 14.75 12.15 14.67C12.19 14.6 12.25 14.53 12.31 14.48C12.38 14.42 12.45 14.38 12.53 14.35C12.62 14.32 12.7 14.3 12.79 14.3L13.24 14.3C16.16 14.3 18.45 13.11 19.12 9.68C19.4 8.24 19.26 7.04 18.52 6.2C18.29 5.94 18.02 5.73 17.69 5.56C17.67 5.67 17.66 5.79 17.63 5.9L17.63 5.9Z" />
		<path id="Layer" class="shp2" d="M16.89 5.24C16.86 5.23 16.83 5.23 16.8 5.22C16.77 5.21 16.74 5.2 16.71 5.19C16.68 5.19 16.65 5.18 16.62 5.17C16.59 5.16 16.56 5.16 16.53 5.15C16.5 5.14 16.47 5.14 16.44 5.13C16.4 5.12 16.37 5.12 16.34 5.11C16.31 5.1 16.28 5.1 16.24 5.09C16.21 5.09 16.18 5.08 16.15 5.08C15.69 5 15.19 4.97 14.65 4.97L10.1 4.97C10.07 4.97 10.04 4.97 10.02 4.97C9.99 4.98 9.96 4.98 9.94 4.99C9.91 4.99 9.89 5 9.86 5.01C9.83 5.02 9.81 5.03 9.78 5.04C9.73 5.06 9.68 5.1 9.64 5.13C9.59 5.17 9.55 5.21 9.52 5.26C9.48 5.31 9.45 5.36 9.43 5.41C9.41 5.47 9.39 5.52 9.38 5.58L8.41 11.71L8.39 11.89C8.45 11.49 8.79 11.19 9.2 11.19L10.91 11.19C14.25 11.19 16.87 9.83 17.63 5.9C17.66 5.79 17.67 5.67 17.69 5.56C17.5 5.46 17.29 5.37 17.06 5.3C17.05 5.29 17.03 5.29 17.02 5.28C17.01 5.28 16.99 5.27 16.98 5.27C16.96 5.26 16.95 5.26 16.93 5.26C16.92 5.25 16.91 5.25 16.89 5.24" />
	</g>
</svg>