<svg xmlns="http://www.w3.org/2000/svg" viewBox="0 0 20 23" width="20" height="23">
	<style>
		tspan { white-space:pre }
		.shp0 { fill: #9ebd5a } 
		.shp1 { fill: #698c49 } 
		.shp2 { fill: #fdfdfc } 
	</style>
	<g id="Layer">
		<path id="Layer" fill-rule="evenodd" class="shp0" d="M12.37 22.35C10.65 22.05 8.94 21.76 7.22 21.45C5.18 21.07 3.14 20.68 1.09 20.3C0.86 20.25 0.64 20.2 0.36 20.14C0.5 19.06 0.62 18.01 0.76 16.95C1.14 14.03 1.53 11.11 1.9 8.18C2.02 7.25 2.03 7.11 2.94 6.93C4.04 6.72 4.69 6.24 5.01 5.07C5.26 4.17 5.88 3.36 6.44 2.57C6.9 1.9 7.61 1.52 8.42 1.34C8.96 1.22 9.43 1.3 9.85 1.69C9.93 1.77 10.03 1.85 10.13 1.9C11.69 2.55 11.69 2.55 12.37 3.92L13.33 3.84C13.21 5.73 13.09 7.62 12.98 9.51C12.89 11.03 12.81 12.55 12.74 14.06C12.61 16.82 12.49 19.59 12.37 22.35M9.69 2.88C8.76 3.26 7.97 4.39 8.03 5.28C10.2 4.74 10.26 5.03 9.72 2.92C9.72 2.9 9.7 2.89 9.69 2.88ZM9.25 2.14C7.53 1.71 5.88 3.97 5.5 6.12C5.83 6.03 6.15 5.92 6.47 5.86C6.91 5.78 7.1 5.54 7.21 5.09C7.49 3.89 8.04 2.84 9.25 2.14ZM3.71 16.2C3.71 16.2 3.71 16.2 3.71 16.2C3.71 16.2 3.71 16.2 3.71 16.2M3.31 17.62C3.27 17.81 3.34 18.11 3.47 18.22C4.46 19.01 5.59 19.4 6.85 19.19C8.08 18.98 8.85 18.2 9.16 16.99C9.51 15.65 9.24 14.48 8.15 13.56C7.8 13.26 7.42 13.01 7.07 12.73C6.69 12.43 6.31 12.1 6.52 11.54C6.73 10.97 7.21 10.84 7.73 10.88C8.27 10.93 8.8 11.04 9.38 11.12C9.51 10.76 9.64 10.39 9.76 10.02C9.89 9.63 10.02 9.25 10.14 8.87C8.69 8.28 7.01 8.46 5.81 9.28C4.19 10.4 3.41 13.37 5.58 14.79C5.79 14.93 5.97 15.13 6.15 15.31C6.54 15.7 6.73 16.15 6.43 16.65C6.1 17.2 5.57 17.06 5.1 16.89C4.64 16.72 4.22 16.46 3.71 16.2C3.57 16.67 3.4 17.14 3.31 17.62ZM10.72 4.54L11.72 4.19C11.42 3.57 11.26 2.92 10.48 2.72L10.72 4.54Z" />
		<path id="Layer" fill-rule="evenodd" class="shp1" d="M12.37 22.35C12.49 19.59 12.61 16.83 12.74 14.06C12.81 12.55 12.89 11.03 12.97 9.51C13.08 7.62 13.21 5.73 13.33 3.85C13.51 3.99 13.74 4.11 13.87 4.29C14.39 5.04 15.15 5.21 15.99 5.19C16.41 5.18 16.61 5.31 16.67 5.78C17.29 10.14 17.93 14.49 18.57 18.84C18.68 19.54 18.79 20.24 18.91 21C17.61 21.28 16.32 21.57 15.04 21.84C14.15 22.02 13.26 22.18 12.37 22.35" />
		<path id="Layer" fill-rule="evenodd" class="shp2" d="M3.71 16.2C4.22 16.45 4.64 16.72 5.1 16.89C5.57 17.06 6.1 17.2 6.43 16.65C6.73 16.15 6.54 15.7 6.15 15.31C5.97 15.13 5.79 14.93 5.58 14.79C3.41 13.37 4.19 10.4 5.81 9.28C7.01 8.46 8.69 8.28 10.14 8.87C10.02 9.25 9.89 9.63 9.76 10.02C9.64 10.39 9.51 10.76 9.38 11.12C8.8 11.04 8.27 10.93 7.73 10.88C7.21 10.84 6.73 10.97 6.52 11.54C6.31 12.1 6.69 12.42 7.06 12.73C7.42 13.01 7.8 13.26 8.15 13.56C9.24 14.48 9.51 15.65 9.16 16.99C8.85 18.2 8.08 18.98 6.85 19.19C5.59 19.4 4.46 19.01 3.47 18.22C3.34 18.11 3.27 17.81 3.31 17.62C3.4 17.14 3.57 16.67 3.71 16.2" />
	</g>
</svg>