<?xml version="1.0" encoding="UTF-8"?>
<svg width="20px" height="23px" viewBox="0 0 20 23" version="1.1" xmlns="http://www.w3.org/2000/svg" xmlns:xlink="http://www.w3.org/1999/xlink">
    <title>Group 5</title>
    <g id="Profit-Analysis" stroke="none" stroke-width="1" fill="none" fill-rule="evenodd">
        <g id="Enable" transform="translate(-251.000000, -142.000000)">
            <g id="Group-14" transform="translate(239.914474, 132.000000)">
                <g id="Group-5" transform="translate(11.798091, 10.791780)">
                    <path d="M10.3610934,3.25181313 C10.7430835,3.11877111 11.0293975,3.0188111 11.3618836,2.90314309 C11.0627175,2.274585 10.9037335,1.63174691 10.1230934,1.42635288 C10.2032994,2.04086897 10.2758894,2.59731304 10.3610934,3.25181313 M9.32484128,1.5865269 C8.39473715,1.96923096 7.61147905,3.10068311 7.66383905,3.98604323 C9.83368535,3.44863916 9.89770736,3.7392372 9.35935129,1.62889091 C9.35530529,1.61294491 9.33650328,1.60056891 9.32484128,1.5865269 M8.89096722,0.853010803 C7.17427299,0.421040744 5.51612676,2.67966105 5.13770671,4.83165735 C5.47257275,4.73859934 5.7841148,4.62769132 6.10541484,4.56890531 C6.5502369,4.4872713 6.73825693,4.25331727 6.84488094,3.80087921 C7.12762498,2.59945504 7.68073706,1.5465429 8.89096722,0.853010803 M3.35080246,14.9054847 C3.21062044,15.3814848 3.04068842,15.8493929 2.94644041,16.3318189 C2.9102644,16.517221 2.97928441,16.818291 3.11351643,16.926819 C4.09550456,17.7203111 5.22743272,18.1087272 6.48835689,17.8947651 C7.72262506,17.6853251 8.48922317,16.908493 8.80028921,15.7020708 C9.14634126,14.3614167 8.87716322,13.1859345 7.78950307,12.2660644 C7.44226102,11.9723723 7.05955697,11.7208063 6.70374692,11.4363963 C6.32485087,11.1338982 5.95095282,10.8130742 6.16134485,10.2444921 C6.36983288,9.68186002 6.84488094,9.549294 7.36729101,9.591658 C7.90778909,9.63545001 8.44305116,9.74540603 9.02043924,9.83227604 C9.14538926,9.47027799 9.27509928,9.09899794 9.40100129,8.72652789 C9.53071131,8.34310983 9.65685133,7.95802578 9.78203934,7.58055773 C8.33071515,6.99245965 6.65067291,7.17095967 5.45186675,7.99253579 C3.82466053,9.10804194 3.05044642,12.0809003 5.21957872,13.5036645 C5.43211275,13.6431326 5.60799477,13.8413866 5.7905408,14.0225046 C6.17562485,14.4049707 6.36983288,14.8555047 6.06804883,15.3579228 C5.73722879,15.9079409 5.20434672,15.7706149 4.74000865,15.5987788 C4.28138259,15.4293228 3.85798053,15.1637148 3.35080246,14.9054847 M12.0059117,21.0563576 C10.2918354,20.7562395 8.57561718,20.4656415 6.86368294,20.1536235 C4.81854866,19.7811534 2.77674638,19.3908334 0.733992101,19.0064633 C0.503846069,18.9631473 0.275842038,18.9086453 1.53654867e-13,18.8493833 C0.134232018,17.7691011 0.260134036,16.714761 0.396746055,15.6618488 C0.776356107,12.7389704 1.16929416,9.81752004 1.53795621,6.89321363 C1.65624223,5.9547795 1.66528623,5.81459749 2.57611235,5.64038146 C3.68162251,5.42879943 4.3318386,4.95256137 4.65028264,3.78112521 C4.89494667,2.88077108 5.52302876,2.06324097 6.07518884,1.27522286 C6.5395269,0.61239277 7.246863,0.230878718 8.05534911,0.0516646932 C8.60132118,-0.0697153234 9.07422725,0.013822688 9.4885853,0.397954741 C9.57378932,0.476970752 9.66494333,0.561936763 9.76966334,0.606204769 C11.3278496,1.26379886 11.3285636,1.26237086 12.0116237,2.63467905 C12.3312577,2.60849904 12.6508917,2.58160504 12.9705258,2.55447304 C12.8510498,4.4434793 12.7251477,6.33224756 12.6144777,8.22196782 C12.5257037,9.73850403 12.4493057,11.2557542 12.3788577,12.7734804 C12.2500997,15.5342808 12.1299097,18.2953192 12.0059117,21.0563576" id="Fill-4" fill="#9EBD5A"></path>
                    <path d="M12.0059355,21.0563814 C12.1299335,18.295343 12.2501235,15.5343046 12.3786435,12.7735042 C12.4493295,11.255778 12.5257275,9.73852783 12.6145015,8.22199162 C12.7249335,6.33227136 12.8510736,4.4435031 12.9705496,2.55449684 C13.1530956,2.70062886 13.3815756,2.81486887 13.5100957,2.9988429 C14.0344097,3.749019 14.7914878,3.92299703 15.6292479,3.90276702 C16.05384,3.89253302 16.245668,4.01605504 16.312546,4.4896751 C16.9268241,8.8455517 17.5720422,13.1971443 18.2110723,17.5496889 C18.3138883,18.249647 18.4312223,18.9477011 18.5518884,19.7083492 C17.2495522,19.9910932 15.964114,20.2793113 14.6741538,20.5475373 C13.7878417,20.7317493 12.8955796,20.8878774 12.0059355,21.0563814" id="Fill-6" fill="#698C49"></path>
                    <path d="M3.35089766,14.9055799 C3.85783773,15.16381 4.28123979,15.42918 4.73986585,15.598874 C5.20420392,15.7707101 5.73708599,15.9080361 6.06814403,15.35778 C6.36992808,14.8555999 6.17548205,14.4048279 5.790636,14.0225998 C5.60808997,13.8412438 5.43220795,13.6429898 5.21967392,13.5035217 C3.05054162,12.0809955 3.82475573,9.10813714 5.45196195,7.99263099 C6.65076811,7.17081687 8.33057235,6.99231685 9.78213454,7.58065293 C9.65694653,7.95812098 9.53056851,8.34296703 9.40085849,8.72662309 C9.27495648,9.09909314 9.14524646,9.47037319 9.02053444,9.83237124 C8.44314636,9.74526323 7.90788429,9.63530721 7.36714821,9.5915152 C6.84497614,9.5493892 6.36992808,9.68195522 6.16144005,10.2445873 C5.95081002,10.8131694 6.32494607,11.1337554 6.70360412,11.4364915 C7.05965217,11.7209015 7.44211822,11.9724675 7.78959827,12.2661596 C8.87702042,13.1857917 9.14619846,14.3615119 8.80038441,15.702166 C8.48908037,16.9085882 7.72248226,17.6854203 6.48821409,17.8948603 C5.22728992,18.1088224 4.09536176,17.7204063 3.11361163,16.9269142 C2.97937961,16.8183862 2.9101216,16.5170782 2.94629761,16.3319141 C3.04078362,15.8494881 3.21047764,15.38158 3.35089766,14.9055799" id="Fill-8" fill="#FDFDFC"></path>
                </g>
            </g>
        </g>
    </g>
</svg>