<svg xmlns="http://www.w3.org/2000/svg" width="22" height="22" viewBox="0 0 22 22">
    <g fill="none" fill-rule="evenodd">
        <g>
            <g>
                <path fill="#FFFC02" d="M6.158 8.172c-.036-.004-.063-.004-.088-.01-.177-.043-.356-.052-.536-.034-.344.032-.64.168-.874.427-.406.45-.445 1.136-.098 1.65.164.243.383.428.626.588.195.128.392.255.587.384.155.104.177.183.098.353-.038.083-.081.164-.127.243-.323.557-.77.994-1.299 1.353-.23.157-.473.291-.723.414-.158.079-.311.166-.439.291-.28.276-.356.684-.19 1.04.125.268.33.461.58.608.265.155.546.272.839.362.087.027.175.053.262.082.089.03.149.091.184.178l.033.085c.154.409.45.656.875.736.199.038.404.042.606.06.226.02.453.03.678.06.304.042.595.133.858.3.128.08.26.157.39.237.623.385 1.294.616 2.03.65.646.032 1.27-.058 1.87-.31.342-.143.658-.334.97-.53.268-.17.553-.29.867-.334.238-.033.478-.05.717-.072.19-.017.38-.018.567-.047.446-.069.776-.3.933-.733.066-.18.175-.283.356-.32.007 0 .014-.002.02-.004.32-.091.628-.215.92-.377.201-.112.375-.255.51-.444.325-.457.232-1.018-.227-1.34-.097-.069-.201-.127-.307-.18-.369-.182-.72-.393-1.041-.651-.455-.366-.829-.8-1.085-1.328-.099-.204-.078-.276.108-.397.19-.125.382-.247.572-.372.176-.116.34-.247.48-.406.253-.286.387-.615.373-1.002-.019-.516-.339-.974-.82-1.162-.293-.114-.594-.122-.9-.062l-.108.02v-.119c0-.468-.013-.935-.089-1.399-.071-.441-.194-.867-.408-1.26-.466-.856-1.151-1.475-2.039-1.869-.816-.361-1.671-.468-2.555-.375-.667.07-1.295.262-1.87.606-1.22.729-1.903 1.8-2.042 3.217-.036.358-.046.717-.044 1.076v.117M10.69 21.36c-2.418 0-4.836-.002-7.255.001-.478 0-.937-.086-1.375-.274-.367-.158-.697-.376-.988-.651-.513-.485-.843-1.071-.995-1.76C.02 18.413 0 18.146 0 17.878V3.408c0-.57.133-1.11.404-1.61.332-.617.81-1.09 1.431-1.415.44-.23.907-.354 1.402-.379.06-.003.122-.003.183-.003 4.826 0 9.652.001 14.478-.001.426 0 .838.061 1.236.21.828.313 1.446.864 1.854 1.65.256.494.372 1.021.372 1.577v14.5c0 .6-.14 1.163-.436 1.685-.324.574-.777 1.02-1.36 1.333-.513.275-1.058.405-1.64.405-2.411-.003-4.823-.001-7.234-.001" transform="translate(-108 -392) translate(108 392)"/>
                <path fill="#040303" d="M14.478 8.034c-.005-.395-.017-.788-.074-1.178-.051-.348-.137-.686-.3-.999-.396-.762-1.003-1.288-1.797-1.602-.642-.254-1.308-.32-1.99-.248-.621.066-1.199.26-1.716.614-.802.55-1.28 1.302-1.406 2.271-.052.401-.07.805-.058 1.209.01.345.029.69.045 1.036.007.164-.055.22-.215.186-.072-.016-.142-.044-.213-.069-.204-.072-.407-.148-.613-.218-.126-.043-.256-.064-.39-.057-.279.015-.467.222-.45.499.008.131.067.244.159.332.1.096.207.186.32.266.192.134.393.255.587.386.16.108.318.219.473.335.126.095.175.225.156.385-.018.157-.062.306-.118.451-.245.648-.643 1.19-1.145 1.661-.447.419-.955.747-1.503 1.017-.037.018-.074.036-.107.058-.133.09-.141.183-.02.286.051.044.11.08.169.113.24.135.499.226.764.302.182.052.363.108.541.173.18.065.273.203.295.392.009.074.023.147.037.22.023.124.1.198.22.226.056.012.113.023.17.027.305.022.61.032.914.062.352.035.698.109 1.02.262.198.095.385.214.577.32.21.118.417.244.634.347.397.19.822.27 1.262.28.53.012 1.043-.07 1.519-.312.283-.145.556-.31.83-.473.277-.164.572-.278.886-.35.36-.08.724-.105 1.09-.12.142-.005.285-.019.425-.04.13-.02.214-.098.237-.232.013-.073.027-.147.037-.22.023-.18.11-.31.279-.384.03-.013.061-.03.093-.04.13-.04.259-.082.39-.117.292-.078.577-.175.841-.325.07-.04.139-.087.197-.143.08-.077.073-.154-.014-.226-.038-.032-.083-.058-.129-.08-.313-.155-.617-.328-.903-.529-.588-.412-1.086-.91-1.456-1.53-.17-.283-.308-.58-.389-.902-.082-.327-.04-.453.236-.645.284-.197.576-.383.863-.576.104-.07.21-.14.303-.223.077-.07.147-.152.201-.24.133-.211.068-.612-.315-.683-.123-.022-.245-.014-.363.02-.134.038-.266.08-.398.126-.144.05-.285.109-.428.16-.054.018-.112.03-.169.034-.102.006-.143-.036-.146-.137-.001-.034 0-.068.002-.102l.053-1.056m-8.205.137v-.117c-.002-.36.009-.719.044-1.077.14-1.418.823-2.49 2.044-3.219.576-.344 1.205-.537 1.872-.606.885-.093 1.741.014 2.558.375.889.394 1.575 1.013 2.04 1.87.215.394.338.82.41 1.26.075.465.088.932.088 1.4v.12c.043-.009.076-.015.108-.02.306-.06.608-.053.902.062.481.187.801.646.82 1.162.014.388-.12.717-.373 1.003-.14.16-.305.29-.481.406-.19.125-.382.248-.572.372-.187.122-.207.194-.109.398.257.528.63.962 1.087 1.328.321.258.672.47 1.041.652.106.053.211.111.308.18.46.322.553.883.227 1.34-.135.19-.309.333-.51.445-.292.162-.6.285-.921.377l-.02.004c-.182.037-.29.14-.356.32-.157.433-.488.665-.934.734-.187.029-.379.03-.568.047-.24.021-.48.039-.718.071-.314.044-.6.166-.867.334-.313.197-.63.388-.972.532-.6.251-1.224.341-1.871.31-.737-.035-1.409-.266-2.032-.651-.13-.08-.262-.156-.391-.238-.263-.166-.554-.257-.859-.299-.225-.03-.452-.04-.678-.06-.203-.019-.408-.023-.607-.06-.426-.08-.721-.328-.876-.737-.01-.028-.021-.057-.033-.085-.035-.086-.095-.148-.184-.178-.087-.029-.175-.055-.262-.082-.293-.09-.574-.207-.84-.362-.25-.147-.456-.34-.58-.608-.167-.356-.091-.765.19-1.041.128-.125.28-.213.44-.29.25-.124.492-.259.723-.415.53-.36.977-.797 1.3-1.354.046-.08.089-.16.127-.244.08-.17.057-.249-.098-.352-.195-.13-.392-.256-.588-.385-.242-.16-.462-.345-.626-.589-.348-.514-.308-1.2.098-1.65.234-.259.53-.395.875-.428.18-.017.36-.009.536.034.026.006.053.007.088.01" transform="translate(-108 -392) translate(108 392)"/>
                <path fill="#FFF" d="M14.441 7.906l-.052 1.06c-.001.034-.003.068-.002.102.003.102.043.143.145.137.056-.003.114-.016.167-.035.142-.05.282-.11.425-.16.13-.045.26-.088.393-.126.118-.033.238-.042.36-.02.38.072.444.474.312.686-.054.088-.123.17-.2.24-.092.084-.197.153-.3.224-.284.193-.573.38-.854.578-.273.192-.315.318-.234.646.08.323.218.621.386.906.366.62.86 1.12 1.441 1.534.284.201.585.375.895.53.045.022.09.048.128.08.086.072.093.15.014.227-.058.056-.126.103-.195.143-.262.15-.544.247-.834.326-.13.035-.257.078-.385.118-.032.01-.062.026-.093.04-.167.073-.253.205-.277.384-.01.074-.023.148-.035.221-.024.135-.107.213-.235.233-.14.021-.28.035-.421.041-.363.014-.725.039-1.08.12-.311.071-.603.186-.878.35-.271.164-.541.33-.822.475-.471.243-.98.325-1.505.313-.435-.01-.856-.09-1.25-.28-.215-.105-.419-.23-.627-.348-.191-.107-.376-.227-.572-.322-.319-.154-.662-.227-1.01-.262-.301-.03-.604-.041-.906-.063-.056-.004-.113-.014-.168-.027-.12-.028-.196-.102-.218-.226-.014-.074-.028-.147-.037-.222-.022-.188-.113-.328-.292-.393-.176-.064-.356-.12-.536-.173-.263-.076-.519-.167-.757-.303-.058-.033-.116-.07-.167-.113-.12-.104-.112-.196.02-.287.033-.022.07-.04.105-.058.543-.27 1.047-.6 1.49-1.02.497-.472.89-1.016 1.134-1.665.055-.147.098-.296.117-.453.019-.16-.03-.291-.155-.386-.153-.117-.31-.228-.469-.337-.192-.131-.39-.253-.58-.387-.113-.08-.22-.17-.318-.266-.091-.089-.15-.202-.157-.334-.017-.277.17-.484.445-.5.133-.007.262.015.387.058.203.07.405.146.607.218.07.025.14.053.21.07.16.034.221-.023.214-.187-.016-.346-.036-.693-.045-1.04-.011-.405.006-.81.058-1.212.125-.971.598-1.727 1.393-2.277.512-.354 1.083-.55 1.7-.616.675-.073 1.335-.006 1.97.248.786.315 1.388.844 1.78 1.607.161.314.247.653.297 1.002.057.391.069.786.073 1.181" transform="translate(-108 -392) translate(108 392)"/>
            </g>
        </g>
    </g>
</svg>
