<svg xmlns="http://www.w3.org/2000/svg" width="17" height="24" viewBox="0 0 17 24">
    <g fill="none" fill-rule="evenodd">
        <g fill="#6775DC">
            <path d="M127.828 406.611c-.256-.124-.485-.24-.72-.347-1.073-.486-2.191-.83-3.35-1.045-.813-.15-1.632-.24-2.459-.21-.446.016-.888.078-1.284.312-.64.38-.763 1.26-.258 1.81.375.407.86.64 1.362.828.952.356 1.918.673 2.87 1.03 1.272.474 2.485 1.063 3.455 2.043.903.913 1.414 2.022 1.563 3.298.128 1.094.076 2.173-.257 3.23-.251.796-.644 1.513-1.19 2.147-1.044 1.213-2.392 1.916-3.91 2.333-.832.228-1.68.35-2.543.403-1.086.067-2.163 0-3.24-.141-1.5-.198-2.941-.61-4.343-1.173-.148-.06-.21-.14-.21-.307.005-1.857.003-3.713.003-5.57v-.212c.086.03.148.044.201.072 1.198.63 2.45 1.123 3.755 1.475.85.23 1.713.378 2.593.432.602.037 1.192-.004 1.765-.185.68-.215 1.027-.703 1.003-1.392-.015-.447-.249-.784-.585-1.055-.49-.395-1.061-.636-1.64-.862-1.149-.45-2.308-.872-3.445-1.35-.864-.363-1.652-.868-2.326-1.53-.737-.725-1.235-1.59-1.432-2.605-.336-1.725-.123-3.38.75-4.923.605-1.07 1.488-1.865 2.566-2.448 1.007-.545 2.086-.869 3.218-1.011.506-.064 1.018-.09 1.528-.114.945-.043 1.887.021 2.823.148 1.244.17 2.455.475 3.623.941.06.024.13.118.13.18.007 1.892.006 3.785.005 5.677 0 .03-.01.058-.021.121" transform="translate(-113 -399)"/>
        </g>
    </g>
</svg>
