<svg version="1.2" baseProfile="tiny-ps" xmlns="http://www.w3.org/2000/svg" viewBox="0 0 21 21" width="21" height="21">
	<title>facebook-icon-svg</title>
	<style>
		tspan { white-space:pre }
		.shp0 { fill: #6775dc } 
	</style>
	<path id="Layer" fill-rule="evenodd" class="shp0" d="M15.99 6.92C15.78 6.82 15.6 6.73 15.41 6.64C14.54 6.25 13.63 5.97 12.69 5.79C12.03 5.67 11.36 5.6 10.69 5.62C10.33 5.64 9.97 5.69 9.65 5.88C9.13 6.18 9.03 6.9 9.44 7.34C9.74 7.67 10.14 7.86 10.55 8.02C11.32 8.31 12.1 8.56 12.87 8.85C13.91 9.24 14.89 9.72 15.68 10.51C16.41 11.25 16.83 12.15 16.95 13.19C17.05 14.08 17.01 14.95 16.74 15.81C16.54 16.46 16.22 17.04 15.77 17.55C14.93 18.54 13.83 19.11 12.6 19.45C11.92 19.63 11.24 19.73 10.54 19.77C9.65 19.83 8.78 19.77 7.91 19.66C6.69 19.5 5.52 19.16 4.38 18.71C4.26 18.66 4.21 18.59 4.21 18.46C4.21 16.95 4.21 15.44 4.21 13.94L4.21 13.76C4.28 13.79 4.33 13.8 4.38 13.82C5.35 14.33 6.36 14.73 7.42 15.02C8.11 15.21 8.81 15.33 9.53 15.37C10.02 15.4 10.5 15.37 10.96 15.22C11.51 15.05 11.79 14.65 11.78 14.09C11.76 13.73 11.57 13.45 11.3 13.23C10.9 12.91 10.44 12.72 9.97 12.53C9.04 12.17 8.1 11.83 7.17 11.44C6.47 11.14 5.83 10.73 5.28 10.2C4.69 9.61 4.28 8.91 4.12 8.08C3.85 6.68 4.02 5.34 4.73 4.09C5.22 3.22 5.94 2.57 6.81 2.1C7.63 1.66 8.51 1.39 9.43 1.28C9.84 1.23 10.25 1.21 10.67 1.19C11.43 1.15 12.2 1.2 12.96 1.31C13.97 1.44 14.95 1.69 15.9 2.07C15.95 2.09 16 2.17 16 2.22C16.01 3.75 16.01 5.29 16.01 6.82C16.01 6.85 16 6.87 15.99 6.92" />
</svg>