<?xml version="1.0" encoding="UTF-8"?>
<svg width="217px" height="246px" viewBox="0 0 217 246" version="1.1" xmlns="http://www.w3.org/2000/svg" xmlns:xlink="http://www.w3.org/1999/xlink">
    <title>tik-tok</title>
    <g id="Page-1" stroke="none" stroke-width="1" fill="none" fill-rule="evenodd">
        <g id="Artboard" transform="translate(-89.000000, -74.000000)" fill-rule="nonzero">
            <g id="tik-tok" transform="translate(89.000000, 74.000000)">
                <g id="Group" transform="translate(28.000000, 11.000000)" fill="#F00044">
                    <path d="M45.0759202,116.510577 C25.4608896,116.510577 9.6142638,132.341343 9.9041411,151.743685 C10.0973926,164.195933 16.9578221,175.007188 27.0552147,181.040255 C23.625,175.779421 21.5958589,169.553296 21.4992331,162.844527 C21.2093558,143.442185 37.0559816,127.611419 56.6710123,127.611419 C60.5360429,127.611419 64.256135,128.238858 67.7346626,129.348942 L67.7346626,90.4959951 C64.1111963,89.9650852 60.3911043,89.675498 56.6710123,89.675498 C56.4777607,89.675498 56.3328221,89.675498 56.1395706,89.675498 L56.1395706,118.2481 C52.6610429,117.138016 48.9409509,116.510577 45.0759202,116.510577 L45.0759202,116.510577 Z" id="Path"></path>
                    <path d="M129.865031,0 L129.575153,0 L119.526074,0 C122.424847,14.5276237 130.589724,27.1729308 141.991564,35.7640173 C134.503067,25.8697885 129.961656,13.5140686 129.865031,0 L129.865031,0 Z" id="Path"></path>
                    <path d="M189,59.1240501 C185.183282,59.1240501 181.511503,58.7379339 177.888037,58.0622304 L177.888037,85.9108647 C164.746933,85.9108647 151.992331,83.3528445 140.010736,78.2368043 C132.280675,74.9548162 125.082055,70.755802 118.46319,65.6880263 L118.656442,151.550626 C118.559816,170.856439 110.92638,188.955638 97.1088957,202.6145 C85.8519939,213.715342 71.5996933,220.810228 56.1395706,223.078661 C52.5161043,223.609571 48.7960123,223.899158 45.0759202,223.899158 C28.5529141,223.899158 12.8029141,218.541795 0,208.647566 C1.4493865,210.385089 2.99539877,212.074348 4.68634969,213.715342 C18.6004601,227.422469 37.0559816,235 56.7193252,235 C60.4394172,235 64.1595092,234.710413 67.7829755,234.179503 C83.2430982,231.91107 97.4953988,224.816184 108.752301,213.715342 C122.569785,200.05648 130.203221,181.957281 130.299847,162.651468 L129.575153,76.7888684 C136.145706,81.8566441 143.344325,86.1039228 151.122699,89.3376463 C163.152607,94.4054221 175.907209,97.0117067 189,97.0117067" id="Path"></path>
                </g>
                <path d="M33.1850676,122.45178 C47.0120861,108.805638 65.3995949,101.235163 85,101.090504 L85,90.8197329 C81.3613109,90.2893175 77.6255901,90 73.8898694,90 C54.0954008,90 35.5138286,97.5704748 21.5412626,111.361276 C7.81127583,124.910979 -0.048292563,143.4273 0,162.666914 C0,182.051187 7.71424412,200.22997 21.6382943,213.972552 C23.8700236,216.142433 26.1502688,218.167656 28.5760615,220 C17.6114784,207.028932 11.6440283,190.827151 11.5955125,173.757418 C11.6440283,154.517804 19.4550809,136.001484 33.1850676,122.45178 Z" id="Path" fill="#08FFF9"></path>
                <path d="M206,69 L206,58.8095238 L205.902965,58.8095238 C192.415094,58.8095238 179.994609,54.4285714 170,47 C178.684636,58.2380952 191.396226,66.2380952 206,69 Z" id="Path" fill="#08FFF9"></path>
                <path d="M83.4942529,207.949236 C88.0606061,208.190364 92.4346917,207.56343 96.4723093,206.261336 C110.411703,201.679894 120.45768,188.658954 120.45768,173.32318 L120.505747,115.934592 L120.505747,11.0919119 L148,11.0919119 C147.278997,7.47498412 146.894462,3.80983062 146.846395,0 L108.969697,0 L108.969697,104.794455 L108.92163,162.183043 C108.92163,177.518816 98.8756531,190.539757 84.9362591,195.121198 C80.8986416,196.471518 76.5245559,197.098452 71.9582027,196.809098 C66.1421108,196.471518 60.7105538,194.735393 56,191.938302 C61.9122257,201.101186 72.0062696,207.322302 83.4942529,207.949236 L83.4942529,207.949236 Z" id="Path" fill="#08FFF9"></path>
                <path d="M84.1251391,234.222061 C99.6013119,231.95217 113.868409,224.852723 125.136997,213.744745 C138.968827,200.077103 146.610187,181.966269 146.706913,162.648047 L146.513461,76.730252 C153.090834,81.8012854 160.296927,86.0512944 168.083377,89.2870966 C180.125774,94.35813 192.893616,96.9660901 206,96.9660901 L206,69.0995541 C191.442725,66.2984119 178.771608,58.1847584 170.114624,46.7870072 C158.700947,38.1903981 150.47923,25.5369624 147.625811,11 L119.913789,11 L119.913789,115.946244 L119.865426,173.417956 C119.865426,188.775942 109.75755,201.815743 95.7322687,206.40382 C91.6697734,207.756096 87.2687367,208.383938 82.6742479,208.094165 C71.0671183,207.466323 60.9592429,201.236196 55.010589,192.108336 C44.9027137,186.119687 38.035162,175.253187 37.8417098,162.792933 C37.5515316,143.37812 53.4146087,127.537177 73.0500029,127.537177 C76.9190462,127.537177 80.6430002,128.165019 84.1251391,129.275817 L84.1251391,100.684848 C64.5864709,100.829735 46.2568788,108.412137 32.4734124,122.079779 C18.786672,135.650831 10.9518595,154.196324 11,173.417956 C11,190.514582 16.9488765,206.741889 27.9272866,219.733394 C40.7918552,229.633983 56.5098433,234.99479 73.0500029,234.99479 C76.773957,235.043085 80.4979111,234.753312 84.1251391,234.222061 L84.1251391,234.222061 Z" id="Path" fill="#000000"></path>
            </g>
        </g>
    </g>
</svg>