<svg xmlns="http://www.w3.org/2000/svg" width="20" height="22" viewBox="0 0 20 22">
    <g fill="none" fill-rule="evenodd">
        <g>
            <g>
                <path fill="#FDFDFD" d="M15.506 4.159l.168.148.054.042-.008-.006.126.084-.004-.003c.01.038.009.09.033.113.703.66 1.503 1.142 2.465 1.319.011.007.02.016.028.026v2.784c-.938.018-1.812-.088-2.636-.406-.818-.316-1.606-.711-2.413-1.074 0 .671.003 1.375 0 2.079-.01 1.893.074 3.792-.052 5.677-.278 4.19-4.349 7.007-8.395 5.87-.584-.164-1.133-.451-1.698-.682l.002.003-.077-.06.003.005-.087-.074-.362-.304-.088-.084.004.004c-.057-.102-.104-.21-.173-.304-1.734-2.335-1.808-5.398-.13-7.782 1.272-1.81 3.038-2.77 5.265-2.842v2.8c-.092-.022-.144-.037-.197-.048-2.226-.452-4.131 1.441-3.636 3.634.184.818.603 1.498 1.39 1.892l-.007-.002.1.072.15.14c.529.735 1.268 1.12 2.15 1.175 1.864.115 3.274-1.25 3.275-3.128V.922h2.635c.012.01.02.024.024.039.18 1.09.715 1.988 1.5 2.744.135.13.311.217.469.324l-.003-.003.066.073-.003-.006.062.066" transform="translate(-110 -435) translate(110 435)"/>
                <path fill="#F92C54" d="M3.174 20.13c.565.23 1.114.518 1.698.682 4.046 1.137 8.117-1.68 8.395-5.87.126-1.885.043-3.784.052-5.677.003-.704 0-1.408 0-2.079.807.363 1.595.758 2.413 1.074.824.318 1.698.424 2.636.406V5.882l1.023.121v3.573c-.893.042-1.76-.08-2.582-.391-.816-.308-1.6-.7-2.419-1.066-.002.048-.012.16-.012.27-.001 2.257.012 4.513-.004 6.77-.02 2.677-1.19 4.706-3.52 6.037-2.32 1.327-5.522.959-7.512-.841-.068-.062-.112-.15-.168-.225" transform="translate(-110 -435) translate(110 435)"/>
                <path fill="#26F3ED" d="M13.391.922h-2.635v14.306c0 1.878-1.411 3.242-3.275 3.127-.882-.054-1.621-.44-2.15-1.175.64.227 1.286.355 1.97.204 1.396-.308 2.396-1.53 2.397-2.963.003-4.668.004-9.336.005-14.004V.043h3.601l.087.879" transform="translate(-110 -435) translate(110 435)"/>
                <path fill="#26F0EB" d="M7.531 8.692c-2.227.072-3.993 1.033-5.266 2.842-1.677 2.384-1.603 5.447.13 7.782.07.093.117.202.174.304-.782-.53-1.35-1.252-1.779-2.078-2.151-4.145.322-9.022 4.938-9.718.579-.087 1.181-.012 1.81-.012l.037.84c-.016.011-.031.024-.044.04" transform="translate(-110 -435) translate(110 435)"/>
                <path fill="#F92C54" d="M7.531 8.692c.013-.016.028-.029.044-.04l1.013.068v3.62c-.465 0-.95-.065-1.413.01-1.991.328-3.08 2.507-2.189 4.326.045.092.068.196.101.294-.786-.394-1.205-1.074-1.39-1.892-.494-2.193 1.411-4.086 3.637-3.634.053.01.105.026.197.048v-2.8zM15.384 4.029c-.158-.107-.334-.194-.469-.324-.785-.756-1.32-1.654-1.5-2.744h.945c.02.217.031.442.062.664.115.826.41 1.582.902 2.259.03.041.04.096.06.145" transform="translate(-110 -435) translate(110 435)"/>
                <path fill="#26F0EB" d="M18.34 5.856c-.962-.177-1.762-.658-2.465-1.32-.024-.022-.022-.074-.033-.112.544.185 1.082.388 1.634.547.268.078.56.074.864.11v.775zM15.846 4.443l-.126-.1.126.1" transform="translate(-110 -435) translate(110 435)"/>
                <path fill="#F92C54" d="M15.481 4.126l-.1-.1.1.1M15.538 4.192l-.093-.1.093.1" transform="translate(-110 -435) translate(110 435)"/>
                <path fill="#26F0EB" d="M15.758 4.377l-.081-.064.081.064" transform="translate(-110 -435) translate(110 435)"/>
                <path fill="#F92C54" d="M5.181 17.068l-.1-.1.1.1" transform="translate(-110 -435) translate(110 435)"/>
                <path fill="#26F0EB" d="M2.565 19.616l.1.1-.1-.1" transform="translate(-110 -435) translate(110 435)"/>
                <path fill="#F92C54" d="M3.015 20.004l.1.1-.1-.1M3.1 20.074l.1.091-.1-.091" transform="translate(-110 -435) translate(110 435)"/>
            </g>
        </g>
    </g>
</svg>
